<svg width="239" height="237" viewBox="0 0 239 237" fill="none" xmlns="http://www.w3.org/2000/svg">
<g id="&#227;&#130;&#176;&#227;&#131;&#171;&#227;&#131;&#188;&#227;&#131;&#151; 52">
<path id="&#227;&#131;&#145;&#227;&#130;&#185; 1" d="M122.771 94.117C114.673 116.124 90.2678 133.965 68.2605 133.965C46.2532 133.965 34.9788 116.124 43.074 94.117C51.1716 72.1097 75.5771 54.2686 97.5844 54.2686C119.592 54.2686 130.868 72.1097 122.771 94.117Z" fill="#00E2FF" stroke="black" stroke-width="2"/>
<path id="&#227;&#131;&#145;&#227;&#130;&#185; 34" d="M83.3192 195.437C75.2216 217.444 50.8161 235.285 28.8088 235.285C6.8015 235.285 -4.47287 217.444 3.62235 195.437C11.72 173.429 36.1254 155.588 58.1327 155.588C80.1401 155.588 91.4168 173.429 83.3192 195.437Z" fill="#00E2FF" stroke="black" stroke-width="2"/>
<path id="&#227;&#131;&#145;&#227;&#130;&#185; 32" d="M178.692 67.7181C170.594 89.7254 146.189 107.566 124.181 107.566C102.174 107.566 90.8997 89.7254 98.9949 67.7181C107.093 45.7107 131.498 27.8696 153.505 27.8696C175.513 27.8696 186.789 45.7107 178.692 67.7181Z" fill="#00E2FF" stroke="black" stroke-width="2"/>
<path id="&#227;&#131;&#145;&#227;&#130;&#185; 33" d="M234.613 41.3191C226.515 63.3264 202.11 81.1676 180.102 81.1676C158.095 81.1676 146.821 63.3264 154.916 41.3191C163.013 19.3118 187.419 1.4707 209.426 1.4707C231.434 1.4707 242.71 19.3118 234.613 41.3191Z" fill="#00E2FF" stroke="black" stroke-width="2"/>
</g>
</svg>
