<svg width="696" height="171" viewBox="0 0 696 171" fill="none" xmlns="http://www.w3.org/2000/svg">
<path d="M4.86018 2.45997H42.3702C51.0235 2.45997 57.5135 4.32997 61.8402 8.06997C66.1668 11.81 68.3302 17.0166 68.3302 23.69C68.3302 27.43 67.7802 30.5283 66.6802 32.985C65.5802 35.4416 64.2968 37.4216 62.8302 38.925C61.3635 40.4283 59.9152 41.51 58.4852 42.17C57.0552 42.83 56.0102 43.27 55.3502 43.49V43.71C56.5235 43.8566 57.7885 44.2233 59.1452 44.81C60.5018 45.3966 61.7668 46.3316 62.9402 47.615C64.1135 48.8983 65.0852 50.5666 65.8552 52.62C66.6252 54.6733 67.0102 57.24 67.0102 60.32C67.0102 64.94 67.3585 69.1383 68.0552 72.915C68.7518 76.6916 69.8335 79.3866 71.3002 81H56.5602C55.5335 79.3133 54.9285 77.4433 54.7452 75.39C54.5618 73.3366 54.4702 71.3566 54.4702 69.45C54.4702 65.8566 54.2502 62.7583 53.8102 60.155C53.3702 57.5516 52.5635 55.3883 51.3902 53.665C50.2168 51.9416 48.6218 50.6766 46.6052 49.87C44.5885 49.0633 42.0035 48.66 38.8502 48.66H18.6102V81H4.86018V2.45997ZM18.6102 38.21H41.1602C45.5602 38.21 48.8968 37.165 51.1702 35.075C53.4435 32.985 54.5802 29.85 54.5802 25.67C54.5802 23.1766 54.2135 21.1416 53.4802 19.565C52.7468 17.9883 51.7385 16.76 50.4552 15.88C49.1718 15 47.7052 14.4133 46.0552 14.12C44.4052 13.8266 42.7002 13.68 40.9402 13.68H18.6102V38.21ZM79.0002 2.45997H92.7502V81H79.0002V2.45997ZM97.3702 2.45997H111.67L131.36 64.61H131.58L151.71 2.45997H165.68L138.84 81H123.55L97.3702 2.45997ZM170.19 2.45997H226.73V14.34H183.94V34.91H223.54V46.13H183.94V69.12H227.5V81H170.19V2.45997ZM236.19 2.45997H273.7C282.354 2.45997 288.844 4.32997 293.17 8.06997C297.497 11.81 299.66 17.0166 299.66 23.69C299.66 27.43 299.11 30.5283 298.01 32.985C296.91 35.4416 295.627 37.4216 294.16 38.925C292.694 40.4283 291.245 41.51 289.815 42.17C288.385 42.83 287.34 43.27 286.68 43.49V43.71C287.854 43.8566 289.119 44.2233 290.475 44.81C291.832 45.3966 293.097 46.3316 294.27 47.615C295.444 48.8983 296.415 50.5666 297.185 52.62C297.955 54.6733 298.34 57.24 298.34 60.32C298.34 64.94 298.689 69.1383 299.385 72.915C300.082 76.6916 301.164 79.3866 302.63 81H287.89C286.864 79.3133 286.259 77.4433 286.075 75.39C285.892 73.3366 285.8 71.3566 285.8 69.45C285.8 65.8566 285.58 62.7583 285.14 60.155C284.7 57.5516 283.894 55.3883 282.72 53.665C281.547 51.9416 279.952 50.6766 277.935 49.87C275.919 49.0633 273.334 48.66 270.18 48.66H249.94V81H236.19V2.45997ZM249.94 38.21H272.49C276.89 38.21 280.227 37.165 282.5 35.075C284.774 32.985 285.91 29.85 285.91 25.67C285.91 23.1766 285.544 21.1416 284.81 19.565C284.077 17.9883 283.069 16.76 281.785 15.88C280.502 15 279.035 14.4133 277.385 14.12C275.735 13.8266 274.03 13.68 272.27 13.68H249.94V38.21ZM337.28 2.45997H351.03V33.7H386.78V2.45997H400.53V81H386.78V45.58H351.03V81H337.28V2.45997ZM447.17 11.81C442.99 11.81 439.379 12.6533 436.335 14.34C433.292 16.0266 430.817 18.2816 428.91 21.105C427.004 23.9283 425.592 27.1366 424.675 30.73C423.759 34.3233 423.3 37.99 423.3 41.73C423.3 45.47 423.759 49.1366 424.675 52.73C425.592 56.3233 427.004 59.5316 428.91 62.355C430.817 65.1783 433.292 67.4333 436.335 69.12C439.379 70.8066 442.99 71.65 447.17 71.65C451.35 71.65 454.962 70.8066 458.005 69.12C461.049 67.4333 463.524 65.1783 465.43 62.355C467.337 59.5316 468.749 56.3233 469.665 52.73C470.582 49.1366 471.04 45.47 471.04 41.73C471.04 37.99 470.582 34.3233 469.665 30.73C468.749 27.1366 467.337 23.9283 465.43 21.105C463.524 18.2816 461.049 16.0266 458.005 14.34C454.962 12.6533 451.35 11.81 447.17 11.81ZM447.17 0.589966C453.037 0.589966 458.299 1.68996 462.955 3.88997C467.612 6.08997 471.554 9.05997 474.78 12.8C478.007 16.54 480.482 20.9033 482.205 25.89C483.928 30.8766 484.79 36.1566 484.79 41.73C484.79 47.3766 483.928 52.6933 482.205 57.68C480.482 62.6666 478.007 67.03 474.78 70.77C471.554 74.51 467.612 77.4616 462.955 79.625C458.299 81.7883 453.037 82.87 447.17 82.87C441.303 82.87 436.042 81.7883 431.385 79.625C426.729 77.4616 422.787 74.51 419.56 70.77C416.334 67.03 413.859 62.6666 412.135 57.68C410.412 52.6933 409.55 47.3766 409.55 41.73C409.55 36.1566 410.412 30.8766 412.135 25.89C413.859 20.9033 416.334 16.54 419.56 12.8C422.787 9.05997 426.729 6.08997 431.385 3.88997C436.042 1.68996 441.303 0.589966 447.17 0.589966ZM493.15 2.45997H506.9V48.22C506.9 50.86 507.029 53.5366 507.285 56.25C507.542 58.9633 508.275 61.4016 509.485 63.565C510.695 65.7283 512.529 67.5066 514.985 68.9C517.442 70.2933 520.907 70.99 525.38 70.99C529.854 70.99 533.319 70.2933 535.775 68.9C538.232 67.5066 540.065 65.7283 541.275 63.565C542.485 61.4016 543.219 58.9633 543.475 56.25C543.732 53.5366 543.86 50.86 543.86 48.22V2.45997H557.61V52.73C557.61 57.79 556.84 62.19 555.3 65.93C553.76 69.67 551.578 72.805 548.755 75.335C545.932 77.865 542.54 79.7533 538.58 81C534.62 82.2466 530.22 82.87 525.38 82.87C520.54 82.87 516.14 82.2466 512.18 81C508.22 79.7533 504.829 77.865 502.005 75.335C499.182 72.805 497 69.67 495.46 65.93C493.92 62.19 493.15 57.79 493.15 52.73V2.45997ZM579.17 54.82C579.17 57.8266 579.683 60.3933 580.71 62.52C581.737 64.6466 583.167 66.3883 585 67.745C586.833 69.1016 588.942 70.0916 591.325 70.715C593.708 71.3383 596.293 71.65 599.08 71.65C602.087 71.65 604.654 71.3016 606.78 70.605C608.907 69.9083 610.63 69.01 611.95 67.91C613.27 66.81 614.224 65.545 614.81 64.115C615.397 62.685 615.69 61.2366 615.69 59.77C615.69 56.7633 615.012 54.545 613.655 53.115C612.299 51.685 610.813 50.6766 609.2 50.09C606.413 49.0633 603.168 48.0916 599.465 47.175C595.762 46.2583 591.197 45.0666 585.77 43.6C582.397 42.72 579.592 41.565 577.355 40.135C575.119 38.705 573.34 37.11 572.02 35.35C570.7 33.59 569.765 31.72 569.215 29.74C568.665 27.76 568.39 25.7433 568.39 23.69C568.39 19.73 569.215 16.3016 570.865 13.405C572.515 10.5083 574.697 8.10664 577.41 6.19997C580.123 4.2933 583.203 2.88164 586.65 1.96497C590.097 1.0483 593.58 0.589966 597.1 0.589966C601.207 0.589966 605.075 1.12164 608.705 2.18497C612.335 3.24831 615.525 4.8433 618.275 6.96997C621.025 9.09664 623.207 11.7183 624.82 14.835C626.434 17.9516 627.24 21.5633 627.24 25.67H613.49C613.124 20.61 611.4 17.035 608.32 14.945C605.24 12.855 601.317 11.81 596.55 11.81C594.937 11.81 593.287 11.975 591.6 12.305C589.913 12.635 588.373 13.185 586.98 13.955C585.587 14.725 584.432 15.77 583.515 17.09C582.598 18.41 582.14 20.06 582.14 22.04C582.14 24.8266 583.002 27.0083 584.725 28.585C586.448 30.1616 588.703 31.3533 591.49 32.16C591.784 32.2333 592.938 32.545 594.955 33.095C596.972 33.645 599.227 34.25 601.72 34.91C604.214 35.57 606.652 36.2116 609.035 36.835C611.419 37.4583 613.123 37.9166 614.15 38.21C616.717 39.0166 618.953 40.1166 620.86 41.51C622.767 42.9033 624.362 44.4983 625.645 46.295C626.928 48.0916 627.882 50.0166 628.505 52.07C629.129 54.1233 629.44 56.1766 629.44 58.23C629.44 62.63 628.542 66.3883 626.745 69.505C624.948 72.6216 622.583 75.17 619.65 77.15C616.717 79.13 613.38 80.5783 609.64 81.495C605.9 82.4116 602.087 82.87 598.2 82.87C593.727 82.87 589.51 82.32 585.55 81.22C581.59 80.12 578.143 78.4333 575.21 76.16C572.277 73.8866 569.93 70.9716 568.17 67.415C566.41 63.8583 565.493 59.66 565.42 54.82H579.17ZM638.13 2.45997H694.67V14.34H651.88V34.91H691.48V46.13H651.88V69.12H695.44V81H638.13V2.45997ZM38.3002 99.81C34.1202 99.81 30.5085 100.653 27.4652 102.34C24.4218 104.027 21.9468 106.282 20.0402 109.105C18.1335 111.928 16.7218 115.137 15.8052 118.73C14.8885 122.323 14.4302 125.99 14.4302 129.73C14.4302 133.47 14.8885 137.137 15.8052 140.73C16.7218 144.323 18.1335 147.532 20.0402 150.355C21.9468 153.178 24.4218 155.433 27.4652 157.12C30.5085 158.807 34.1202 159.65 38.3002 159.65C42.4802 159.65 46.0918 158.807 49.1352 157.12C52.1785 155.433 54.6535 153.178 56.5602 150.355C58.4668 147.532 59.8785 144.323 60.7952 140.73C61.7118 137.137 62.1702 133.47 62.1702 129.73C62.1702 125.99 61.7118 122.323 60.7952 118.73C59.8785 115.137 58.4668 111.928 56.5602 109.105C54.6535 106.282 52.1785 104.027 49.1352 102.34C46.0918 100.653 42.4802 99.81 38.3002 99.81ZM38.3002 88.59C44.1668 88.59 49.4285 89.69 54.0852 91.89C58.7418 94.09 62.6835 97.06 65.9102 100.8C69.1368 104.54 71.6118 108.903 73.3352 113.89C75.0585 118.877 75.9202 124.157 75.9202 129.73C75.9202 135.377 75.0585 140.693 73.3352 145.68C71.6118 150.667 69.1368 155.03 65.9102 158.77C62.6835 162.51 58.7418 165.462 54.0852 167.625C49.4285 169.788 44.1668 170.87 38.3002 170.87C32.4335 170.87 27.1718 169.788 22.5152 167.625C17.8585 165.462 13.9168 162.51 10.6902 158.77C7.46351 155.03 4.98851 150.667 3.26518 145.68C1.54184 140.693 0.680176 135.377 0.680176 129.73C0.680176 124.157 1.54184 118.877 3.26518 113.89C4.98851 108.903 7.46351 104.54 10.6902 100.8C13.9168 97.06 17.8585 94.09 22.5152 91.89C27.1718 89.69 32.4335 88.59 38.3002 88.59ZM94.1802 142.82C94.1802 145.827 94.6935 148.393 95.7202 150.52C96.7468 152.647 98.1768 154.388 100.01 155.745C101.844 157.102 103.952 158.092 106.335 158.715C108.719 159.338 111.304 159.65 114.09 159.65C117.097 159.65 119.664 159.302 121.79 158.605C123.917 157.908 125.64 157.01 126.96 155.91C128.28 154.81 129.234 153.545 129.82 152.115C130.407 150.685 130.7 149.237 130.7 147.77C130.7 144.763 130.022 142.545 128.665 141.115C127.309 139.685 125.824 138.677 124.21 138.09C121.424 137.063 118.179 136.092 114.475 135.175C110.772 134.258 106.207 133.067 100.78 131.6C97.4068 130.72 94.6018 129.565 92.3652 128.135C90.1285 126.705 88.3502 125.11 87.0302 123.35C85.7102 121.59 84.7752 119.72 84.2252 117.74C83.6752 115.76 83.4002 113.743 83.4002 111.69C83.4002 107.73 84.2252 104.302 85.8752 101.405C87.5252 98.5083 89.7068 96.1066 92.4202 94.2C95.1335 92.2933 98.2135 90.8816 101.66 89.965C105.107 89.0483 108.59 88.59 112.11 88.59C116.217 88.59 120.085 89.1216 123.715 90.185C127.345 91.2483 130.535 92.8433 133.285 94.97C136.035 97.0966 138.217 99.7183 139.83 102.835C141.444 105.952 142.25 109.563 142.25 113.67H128.5C128.134 108.61 126.41 105.035 123.33 102.945C120.25 100.855 116.327 99.81 111.56 99.81C109.947 99.81 108.297 99.975 106.61 100.305C104.924 100.635 103.384 101.185 101.99 101.955C100.597 102.725 99.4418 103.77 98.5252 105.09C97.6085 106.41 97.1502 108.06 97.1502 110.04C97.1502 112.827 98.0118 115.008 99.7352 116.585C101.459 118.162 103.714 119.353 106.5 120.16C106.794 120.233 107.949 120.545 109.965 121.095C111.982 121.645 114.237 122.25 116.73 122.91C119.224 123.57 121.662 124.212 124.045 124.835C126.429 125.458 128.134 125.917 129.16 126.21C131.727 127.017 133.964 128.117 135.87 129.51C137.777 130.903 139.372 132.498 140.655 134.295C141.939 136.092 142.892 138.017 143.515 140.07C144.139 142.123 144.45 144.177 144.45 146.23C144.45 150.63 143.552 154.388 141.755 157.505C139.959 160.622 137.594 163.17 134.66 165.15C131.727 167.13 128.39 168.578 124.65 169.495C120.91 170.412 117.097 170.87 113.21 170.87C108.737 170.87 104.52 170.32 100.56 169.22C96.6002 168.12 93.1535 166.433 90.2202 164.16C87.2868 161.887 84.9402 158.972 83.1802 155.415C81.4202 151.858 80.5035 147.66 80.4302 142.82H94.1802ZM174.15 90.46H188.78L219.03 169H204.29L196.92 148.21H165.57L158.2 169H144.01L174.15 90.46ZM169.31 137.76H193.29L181.52 103.99H181.19L169.31 137.76ZM223.21 90.46H236.96V126.21L271.94 90.46H288.88L257.53 121.81L291.08 169H273.92L248.18 131.49L236.96 142.6V169H223.21V90.46ZM316.27 90.46H330.9L361.15 169H346.41L339.04 148.21H307.69L300.32 169H286.13L316.27 90.46ZM311.43 137.76H335.41L323.64 103.99H323.31L311.43 137.76Z" fill="black"/>
</svg>
