<svg width="148" height="167" viewBox="0 0 148 167" fill="none" xmlns="http://www.w3.org/2000/svg">
<g id="&#227;&#130;&#176;&#227;&#131;&#171;&#227;&#131;&#188;&#227;&#131;&#151; 16">
<g id="&#227;&#130;&#176;&#227;&#131;&#171;&#227;&#131;&#188;&#227;&#131;&#151; 15">
<path id="&#227;&#131;&#145;&#227;&#130;&#185; 81" d="M34.7195 106.288L34.2994 107.064C33.9747 107.673 33.6507 108.28 33.2697 108.849C32.6723 109.747 31.9696 110.58 31.4243 111.203C31.198 111.461 30.9049 111.599 30.6463 111.719C30.5525 111.763 30.4594 111.806 30.3741 111.856C30.2651 111.92 30.1554 111.986 30.0603 112.069L29.8415 112.272C29.5069 112.592 29.0891 112.994 28.4074 113.023C28.0709 113.034 27.6877 113.011 27.4106 112.732C27.1343 112.451 27.1142 112.072 27.1299 111.738C27.1522 111.321 27.2496 110.909 27.4332 110.477C27.5683 110.159 27.7397 109.854 27.924 109.55C27.9803 109.459 28.0272 109.364 28.0694 109.264C28.1369 109.105 28.1903 108.938 28.2319 108.772L28.3818 108.18C28.5762 107.425 28.7596 106.712 28.8466 105.986C28.8925 105.597 28.8162 105.163 28.7348 104.704L28.7307 104.682L28.4868 105.054L28.5283 105.076L28.5859 105.341C28.6578 105.677 28.5546 106.024 28.456 106.256C28.2518 106.737 27.8015 107.335 27.2002 107.44C26.8316 107.506 26.4169 107.255 26.2663 106.975C26.1591 106.774 26.0857 106.562 26.0131 106.348L25.8759 105.958C25.7926 105.733 25.7101 105.506 25.6446 105.275C25.5819 105.058 25.5932 104.844 25.6147 104.648L25.7516 103.539C25.5337 103.319 25.3116 103.103 25.1002 102.898C25.1002 102.898 24.2745 103.979 23.9038 104.452C23.8363 104.538 23.6558 104.771 23.3568 104.871L23.3824 105.18C23.4509 105.914 23.5208 106.671 23.2474 107.445L23.112 107.832L22.2176 107.826L21.9054 107.348C21.8466 107.091 21.8056 106.917 21.8223 106.717C21.9347 105.39 21.8383 104.004 21.5349 102.6C21.4515 102.213 21.3359 101.835 21.2157 101.442C21.0005 101.511 20.7715 101.551 20.5361 101.46C20.1163 101.304 19.9569 100.748 19.9832 100.426C20.0422 99.6311 20.1163 98.8318 20.2303 98.0428L20.2928 97.6717C20.3641 97.2799 20.4241 96.9408 20.3186 96.6376C20.2374 96.4021 20.1381 96.1677 20.0142 95.9494C19.3277 94.7455 18.9808 93.741 18.8939 92.6966C18.5146 92.5179 18.1495 92.363 17.7853 92.2062L17.391 92.0366C17.1897 91.9644 17.0889 91.926 16.9963 91.8735C16.3959 91.5391 15.8356 91.0737 16.2226 90.162L16.3136 89.9686C16.705 89.1869 17.2461 88.5108 17.9206 87.9575C18.2423 87.6942 18.7947 87.7254 19.1211 87.9037C19.5243 87.5888 20.0859 87.5775 20.3916 87.6587C20.8984 87.792 21.0234 88.4814 20.9511 88.813C21.0479 88.8453 21.1776 88.9092 21.3095 88.9784C21.4056 89.028 21.5027 89.0803 21.6059 89.1131C22.5175 89.4117 23.2255 89.9663 23.9068 90.5007L24.3357 90.833C24.8637 91.2339 25.0503 91.9914 24.7794 92.6298C24.6456 92.9397 24.4837 93.3107 24.2114 93.6348C24.3079 93.7354 24.4007 93.8654 24.4841 94.0333C24.554 94.1757 24.6194 94.3338 24.6313 94.5244C24.6536 94.8675 24.7652 95.0209 25.0719 95.1312C25.4821 95.2788 25.7581 95.7893 25.7573 96.1712C25.7562 97.4124 26.4494 98.3871 27.1852 99.4175C27.1852 99.4175 27.4785 99.8248 27.5528 99.9204L27.5925 99.8842C28.3095 99.1789 28.9709 99.2343 29.2994 99.3295C29.8915 99.5013 30.3661 100.054 30.5376 100.774C30.6973 101.45 30.7714 102.201 30.7609 103.012C30.737 104.984 30.482 106.99 29.9815 109.137C31.0391 108.457 31.9101 107.503 32.5797 106.301C32.6428 106.188 32.6974 106.07 32.7483 105.95C32.8317 105.754 32.9055 105.549 32.9767 105.345C33.0592 105.119 33.1399 104.892 33.2328 104.673C33.3881 104.328 33.6121 103.915 33.9941 103.64C34.3952 103.351 34.9564 103.465 35.1176 103.507L35.3742 103.574L35.6379 103.916C35.7129 104.067 35.7723 104.317 35.6308 104.651L34.7195 106.288ZM22.6615 100.06C22.6448 100.157 22.6518 100.255 22.6834 100.368C22.7042 100.438 22.7205 100.509 22.7368 100.58C22.7212 100.388 22.6946 100.211 22.6615 100.06ZM21.7472 94.6877C21.8881 94.5067 22.0402 94.315 22.2062 94.1269C22.2014 94.1227 21.7501 93.9002 21.5647 93.806L21.7135 94.7308L21.7472 94.6877Z" fill="#1A1311"/>
<path id="&#227;&#131;&#145;&#227;&#130;&#185; 82" d="M40.5607 99.5118C40.4232 99.8357 40.2334 100.153 39.9994 100.449C39.5307 101.043 39.0341 101.615 38.5286 102.175C38.1586 102.584 37.6669 102.738 37.1404 102.609C37.1316 102.614 37.0148 102.655 36.9425 102.68C36.2012 102.922 35.5585 102.932 34.9556 102.733C34.6265 102.629 34.4022 102.32 34.3052 102.064L34.2206 101.847L34.3143 101.611C34.3453 101.538 34.3862 101.478 34.4338 101.423L33.9615 100.469L35.5276 100.652C35.8704 100.698 36.206 100.745 36.5435 100.752C37.0926 100.759 37.6203 100.526 38.2503 99.9893C38.2698 99.9225 38.1866 99.7126 38.1483 99.6102C38.1063 99.5062 38.0773 99.4078 38.05 99.3056C38.0286 99.2258 37.9921 99.0932 37.9645 99.0594C37.6801 98.9851 37.5733 98.763 37.5378 98.6905C37.5378 98.6905 35.8813 95.9723 35.3823 95.1751C34.6704 94.0311 33.9577 92.889 33.2144 91.767C32.7899 91.1273 32.3521 90.5504 31.9154 90.0491C31.7958 89.9144 31.5654 89.7857 31.3139 89.712C31.2781 89.7079 31.1409 89.7292 31.0175 89.7961C30.6243 90.0092 30.3387 90.3387 30.1432 90.7992C30.1082 90.8816 30.0762 90.9674 30.0479 91.0548C29.8146 91.7711 29.5728 92.5124 29.6304 93.2616C29.6651 93.716 29.6019 94.1354 29.4438 94.508C29.2404 94.9872 28.8783 95.3925 28.3707 95.714L27.9007 96.0093L27.7171 95.7392L26.5718 96.5323L26.4817 95.2612C26.4615 95.0538 26.4465 94.8861 26.4598 94.7194C26.4788 94.4403 26.5332 94.1717 26.6162 93.9241C26.8877 93.1336 26.6085 92.3964 26.281 91.5438C26.0369 90.901 25.9236 90.283 25.8115 89.683C25.7674 89.4434 25.6305 88.7511 25.6135 88.6401C25.5947 88.5283 25.5786 88.4154 25.5491 88.3078C25.4491 87.9605 25.3444 87.4366 25.5733 86.8975C25.6528 86.7103 25.7686 86.5363 25.9162 86.3758C26.0647 86.2135 26.1823 86.0248 26.3037 85.8377C26.5898 85.398 26.9134 84.9012 27.5271 84.616C27.8177 84.4831 28.2307 84.3689 28.5583 84.5809C28.811 84.7456 28.9487 85.0405 28.9837 85.4839L29.2047 88.4765C29.6142 87.9543 30.07 87.4739 30.6535 87.0986C31.1153 86.8019 31.7459 86.3935 32.5592 86.4294C33.4355 86.4678 34.1962 86.8724 34.8194 87.6319C35.3815 88.3168 35.9101 89.0338 36.4115 89.7681L36.5537 89.9743C37.6284 91.544 38.705 93.1145 39.7219 94.7215C40.1453 95.3895 40.4145 96.1556 40.6326 96.8182C40.9445 97.7592 40.9199 98.6657 40.5607 99.5118Z" fill="#1A1311"/>
<path id="&#227;&#131;&#145;&#227;&#130;&#185; 83" d="M55.3684 85.2435C54.7425 86.5774 53.8244 87.8138 52.6405 88.9219C51.9928 89.5264 51.1736 89.6138 50.601 89.141L50.4617 89.0267C50.4617 89.0267 50.364 88.6427 50.3477 88.5563C49.8835 88.2289 49.4115 87.9092 48.9399 87.5942L48.4923 88.0449L48.0507 87.6122C48.0507 87.6122 46.5699 85.9165 46.4592 85.7922L46.4544 85.8034C46.3314 86.2704 46.2075 86.7392 46.1212 87.213C46.1219 87.2375 46.1514 87.3606 46.2274 87.4834L46.6412 88.1274C47.2718 89.1088 47.9235 90.1189 48.3515 91.2705C48.4338 91.4932 48.5072 91.721 48.5552 91.9513C48.6351 92.3409 48.613 92.674 48.4891 92.9661C48.2713 93.479 47.7915 93.7349 47.4489 93.8811L46.6225 94.2351L46.6467 93.3351C46.6614 92.8111 46.4851 92.3363 46.0802 91.7911C45.9917 91.6718 45.9066 91.5495 45.8231 91.4235C45.8254 91.5482 45.8277 91.6729 45.8327 91.7965C45.8437 92.0464 45.8699 92.3647 45.9736 92.6097C46.151 93.0297 46.1541 93.4441 45.9832 93.8466C45.8632 94.1293 45.6739 94.3671 45.5064 94.5744L45.3095 94.778C45.1085 94.9755 44.8621 95.2178 44.4984 95.1584C44.1412 95.0996 43.9917 94.8064 43.8704 94.5715C43.5413 93.9259 43.1653 93.3023 42.7912 92.6795C42.597 92.3562 42.466 92.1703 42.3332 91.9836C42.2587 91.9873 42.1927 91.9814 42.1352 91.9658C41.857 91.903 41.6509 91.6962 41.5266 91.354C41.4627 91.1766 41.3767 91.0097 41.2864 90.8322L40.8888 90.0095L41.3035 89.8342C41.2922 89.4339 41.3601 89.0606 41.5031 88.7236C41.6318 88.4204 41.8194 88.1553 42.059 87.9345L41.4317 87.2992L40.0466 88.8809L39.4279 88.5896L39.2122 88.2859C39.1266 88.0971 39.0262 87.8755 39.0907 87.6091L39.1639 87.291C39.2627 86.8447 39.3669 86.3963 39.5433 85.9807C39.9077 85.1742 40.3415 84.5166 40.6817 84.0225C40.8921 83.7141 41.1902 83.4385 41.6197 83.1502C41.9005 82.9623 42.462 82.7588 43.0886 83.4998L44.4166 85.0975C44.4674 84.9622 44.52 84.8277 44.5757 84.6966C45.0135 83.6651 45.5531 82.9353 46.2723 82.3965C47.0578 81.8108 47.7952 81.8588 48.4673 82.5395C48.7222 82.7979 48.9393 83.0934 49.1563 83.3888C49.2768 83.5526 49.3984 83.7191 49.5284 83.8759L49.8253 84.2383C50.2466 84.7552 50.6687 85.2702 51.139 85.7394C51.2789 85.8783 51.5493 86.0063 51.8992 86.093C52.503 86.2476 52.8884 86.1152 53.1856 85.6492C53.5261 85.1177 53.8867 84.6013 54.2492 84.0857C54.3446 83.9495 54.4562 83.8532 54.5462 83.7765L54.9024 83.4682L55.3784 83.6636L55.7115 83.9199L55.6787 84.4031L55.5947 84.648C55.5402 84.8127 55.4831 84.9785 55.4156 85.1376L55.3684 85.2435Z" fill="#1A1311"/>
<path id="&#227;&#131;&#145;&#227;&#130;&#185; 84" d="M60.6352 83.9949C60.4614 84.2327 60.2875 84.4704 60.0893 84.6823C59.9201 84.8624 59.6993 84.9609 59.4681 84.9643C59.286 84.9666 59.0051 84.9048 58.7151 84.6094C58.3507 84.2448 58.0966 83.9845 57.9014 83.6896C57.6902 83.3701 57.4858 83.0447 57.2849 82.7164L56.9032 82.8505L56.6151 82.3791L55.4119 79.4933L55.7925 79.2836C55.5942 78.4549 55.2627 77.669 54.9146 76.8496C54.9016 76.8176 54.8868 76.7848 54.872 76.752L54.7054 77.0613L54.1589 76.1002L53.9074 75.5008C53.8518 75.5589 53.7924 75.6155 53.732 75.6694C53.4221 75.9466 53.0694 76.1945 52.6824 76.4036C52.2621 76.6339 51.946 76.5197 51.7956 76.4315C51.6423 76.3399 51.3838 76.1109 51.3804 75.6035C51.3805 75.4732 51.3956 75.2763 51.4774 75.0835C51.9427 74.3465 52.3285 73.7656 52.7383 73.2061C52.8013 73.1201 52.8377 73.0605 52.8576 73.0137C52.7006 72.2489 52.5895 71.6516 52.4793 71.0524L52.389 70.5678C52.3074 70.151 52.3503 69.7428 52.5148 69.3552C52.6221 69.1025 52.7828 68.8592 52.9898 68.6267C53.5381 68.0221 54.0427 67.463 54.5946 66.9593C54.8456 66.7322 55.1549 66.6647 55.403 66.6109C55.4778 66.5962 55.5533 66.5797 55.6221 66.5581L56.0233 66.4301L56.4985 67.0958L56.3776 67.5681L56.2002 67.8507C56.0534 68.0977 55.8848 68.3752 55.6506 68.6095C55.5337 68.7233 55.4588 68.8219 55.4246 68.9024C55.4031 68.9529 55.3626 69.0484 55.4883 69.3249L55.5453 69.4507L55.558 69.4208C55.6518 69.1999 55.7357 68.9814 55.8028 68.7558L55.8176 68.7157C56.0846 68.0867 56.4689 67.8786 56.7238 67.7416C57.1158 67.5103 57.3999 67.5072 57.6327 67.6458C57.9782 67.852 58.0822 68.2784 58.0655 68.6094C58.0418 69.1075 57.9332 69.5872 57.7441 70.0328C57.547 70.497 57.2596 70.9296 56.8918 71.317C56.7053 71.5118 56.5733 71.7032 56.489 71.9016C56.3237 72.291 56.3423 72.7209 56.5487 73.2548C56.9351 74.2496 57.3036 75.25 57.6775 76.2483C58.212 77.6903 58.7477 79.1351 59.3249 80.5599C59.5576 81.1359 59.8976 81.6779 60.2577 82.2505C60.4277 82.5215 60.5976 82.7925 60.757 83.0678L60.901 83.3168L60.8438 83.6858L60.8167 83.7494L60.6352 83.9949Z" fill="#1A1311"/>
<path id="&#227;&#131;&#145;&#227;&#130;&#185; 85" d="M79.6802 76.7036C79.1499 77.1148 78.4702 77.0141 78.0228 76.4597C77.694 76.0528 77.446 75.6117 77.3038 75.1867C76.834 73.7744 76.3668 72.3609 75.9821 70.925C75.8073 70.2697 75.6675 69.605 75.5284 68.9384C75.378 68.2206 75.2276 67.5027 75.0289 66.7997C74.6739 65.5488 74.2309 64.0837 73.6158 62.6958L73.478 62.3855C73.0824 61.4906 72.6711 60.5649 72.4351 59.5699C72.3359 59.1478 72.27 58.7199 72.2034 58.2939C72.1392 57.8778 72.0761 57.4644 71.9788 57.0585C71.8293 56.4427 71.6493 55.8361 71.4728 55.2265C71.3377 54.7692 71.2034 54.3101 71.0808 53.8493C70.9828 53.4764 70.9312 53.0722 70.9292 52.645C70.9265 52.4847 70.962 52.3231 71.032 52.1583C71.2465 51.6528 71.7559 51.2283 72.2457 51.1468C72.5713 51.0928 72.9039 51.2097 73.1371 51.4567C73.3585 51.6898 73.4504 52.0095 73.3836 52.3125C73.2069 53.1036 73.3707 53.9044 73.5445 54.7493C73.9697 56.8343 74.4133 58.9381 74.9254 60.9849C75.2544 62.3021 75.6328 63.6072 76.0112 64.9123L76.5513 66.7942L77.1043 68.781C77.4777 70.1237 77.8485 71.4676 78.2425 72.8036C78.4465 73.5044 78.7233 74.2317 79.0637 74.9705C79.145 75.1486 79.301 75.3275 79.4817 75.5368C79.5817 75.6499 79.6839 75.7684 79.781 75.8936L80.1356 76.349L79.6802 76.7036Z" fill="#1A1311"/>
<path id="&#227;&#131;&#145;&#227;&#130;&#185; 86" d="M68.3289 77.3468C68.0821 77.8032 67.8172 78.2608 67.504 78.6758C67.112 79.1987 66.6953 79.7067 66.2786 80.2147L65.8499 80.7354L65.6537 80.9062L65.0965 81.3391L65.0372 81.2498L64.9122 81.3205C64.4572 81.5803 64.0023 81.8401 63.5382 82.085C63.0099 82.3667 62.0842 82.1064 61.7543 81.6968C61.6132 81.5242 61.4808 81.2117 61.5756 80.9051L61.6622 80.6126C61.74 80.3408 61.8224 80.0686 61.9312 79.8122C61.9734 79.7129 62.0184 79.6172 62.0691 79.5238C62.5486 78.6492 63.2585 78.502 63.7697 78.5312C64.5496 78.5728 65.1927 78.3486 65.6784 77.8655C65.7968 77.7478 65.902 77.5782 66.0156 77.3988L66.6424 76.4011C66.9396 75.9197 67.4077 75.7693 67.8903 75.9962C68.3904 76.2284 68.5928 76.7407 68.3806 77.2406L68.3289 77.3468Z" fill="#1A1311"/>
<path id="&#227;&#131;&#145;&#227;&#130;&#185; 87" d="M34.5368 97.286C34.3254 97.784 33.963 98.2576 33.4245 98.7405C33.2855 98.8649 33.1425 98.9831 32.9976 99.1006C32.6118 99.4162 32.2432 99.7171 32.0433 100.121C31.856 100.494 31.3796 100.57 31.114 100.504L31.0193 100.477L30.9651 100.865L30.2021 100.466L29.4217 99.9777C28.9282 99.6621 28.9387 98.8513 29.1366 98.3852L29.2518 98.1712C29.6141 97.6246 30.0019 97.091 30.3948 96.5663C30.5463 96.3654 30.8275 96.1401 31.1625 96.1056C31.9041 96.0293 32.6511 95.9664 33.4 95.9042L34.8058 95.7829L34.7446 96.4684C34.7192 96.747 34.6496 97.0202 34.5368 97.286Z" fill="#1A1311"/>
<path id="&#227;&#131;&#145;&#227;&#130;&#185; 88" d="M82.2759 80.1498C82.0987 80.4369 81.9123 80.7356 81.6854 80.9994C81.2229 81.5322 80.7135 82.0296 80.2006 82.5144C79.9578 82.7428 79.6192 82.9106 79.2936 82.9646C78.9707 83.0175 78.6571 82.9286 78.4337 82.7211C78.1969 82.5035 78.078 82.1746 78.1061 81.822C78.1216 81.5878 78.1356 81.3883 78.219 81.1917C78.7391 80.3829 79.1938 79.754 79.6638 79.136C79.8805 78.8546 80.274 78.7499 80.5671 78.7726C80.9002 78.7947 81.2362 78.8357 81.6028 78.8831L82.9989 79.0449L82.2759 80.1498Z" fill="#1A1311"/>
<path id="&#227;&#131;&#145;&#227;&#130;&#185; 89" d="M62.6337 73.7852C62.5685 73.9387 62.4774 74.0856 62.3538 74.2364C62.2352 74.3805 62.1091 74.5214 61.9857 74.6612C61.8298 74.8358 61.6747 75.0086 61.5349 75.1923C61.4027 75.3682 61.287 75.5577 61.1712 75.7471L60.9577 76.094C60.5343 76.7428 60.0086 77.5492 59.065 77.9816L58.9994 78.0112L58.7382 78.0749L58.1914 78.1764L57.962 77.6548C57.8909 77.333 57.9534 76.9464 58.1537 76.4746C58.7648 75.035 60.6813 72.857 61.9615 72.4592L62.5158 72.288L62.6852 72.8415C62.7816 73.1608 62.764 73.4781 62.6337 73.7852Z" fill="#1A1311"/>
<path id="&#227;&#131;&#145;&#227;&#130;&#185; 90" d="M71.716 122.553C71.5284 122.994 71.2965 123.499 70.9053 123.89C70.4702 124.322 69.9981 124.715 69.526 125.109C69.0557 125.504 68.5844 125.896 68.156 126.333C67.8318 126.659 67.5912 127.112 67.3349 127.591L67.1266 127.977C66.9995 128.204 66.8913 128.443 66.784 128.68C66.611 129.062 66.4341 129.442 66.2041 129.786C65.8675 130.293 65.4272 130.7 64.9997 131.093C64.6071 131.461 64.065 131.463 63.7394 131.299C63.4288 131.14 63.3045 130.782 63.3723 130.232C63.4078 129.94 63.484 129.657 63.5985 129.387C63.7685 128.987 64.0262 128.603 64.3913 128.217C64.6126 127.982 64.7779 127.738 64.8844 127.487C65.0091 127.193 65.0559 126.891 65.0288 126.559C64.9944 126.166 65.0716 125.724 65.2448 125.316L65.3604 125.065C65.5495 124.619 65.5638 124.117 65.5799 123.585C65.5908 123.262 65.5885 123.007 65.5821 122.773L65.4199 122.889L65.0288 122.608L64.561 122.18C64.458 122.589 64.435 122.878 64.6142 123.195C64.7792 123.488 64.7434 123.879 64.6338 124.137C64.393 124.543 64.1986 124.788 64.0008 125.035L63.514 125.662L63.1032 125.489C62.5894 125.274 62.3449 124.902 62.3555 124.357C62.3609 124.136 62.3406 123.913 62.323 123.689C62.2757 123.134 62.2247 122.505 62.4833 121.859C62.5133 121.784 62.533 121.706 62.5528 121.628C62.5881 121.493 62.6271 121.359 62.6812 121.232C62.7908 120.973 62.7882 120.813 62.5234 120.557C62.3597 120.402 62.2115 120.23 62.0632 120.059C61.9856 120.57 61.8493 121.058 61.6562 121.513C61.4408 122.02 61.1506 122.495 60.794 122.93C60.5897 123.176 60.3423 123.374 60.1234 123.546L59.9455 123.69C59.7319 123.86 59.3533 123.955 59.0724 123.79C59.1019 123.928 59.1297 124.066 59.1566 124.205C59.4071 125.432 59.689 126.652 59.971 127.872C60.0358 128.151 60.0135 128.422 59.9062 128.675C59.8132 128.894 59.6741 129.06 59.5603 129.193C59.4925 129.275 59.4263 129.353 59.399 129.412L59.2248 129.791L58.3363 129.688L58.1444 129.198C58.0946 128.852 58.0615 128.628 58.113 128.387C58.311 127.483 58.0228 126.632 57.6823 125.846C57.279 124.917 57.1115 123.881 57.1669 122.678C57.2086 121.783 56.9695 120.915 56.4315 120.017C55.7461 118.874 55.4104 117.874 55.3728 116.875C55.3372 115.865 55.1338 114.882 54.7706 113.952C54.7469 113.894 54.6568 113.794 54.5767 113.706C54.4954 113.617 54.4142 113.527 54.3444 113.431L54.2138 113.265C54.0499 113.063 53.8651 112.832 53.768 112.53C53.4273 111.464 53.0453 110.043 53.1171 108.505C52.9867 107.875 53.0258 107.346 53.253 106.81C53.4406 106.368 53.7218 105.997 53.9956 105.639L54.2514 105.296C54.6327 104.762 55.3143 104.557 55.9875 104.772C57.0424 105.102 58.0987 105.44 59.147 105.797C59.8015 106.02 60.3226 106.426 60.6995 107.006C61.4015 107.684 61.5713 108.362 61.298 109.006C61.2113 109.21 61.0806 109.408 60.908 109.591C60.722 109.795 60.6246 109.9 60.5173 109.991C60.335 110.15 59.7737 110.634 58.9236 110.3C58.2043 110.017 57.4749 109.762 56.7463 109.506L56.2543 109.333C56.4817 110.92 57.1167 114.151 57.6498 116.533C57.7213 116.307 57.8057 116.082 57.9027 115.854C58.0044 115.614 58.1182 115.378 58.2421 115.143C58.2733 115.075 58.2995 115.013 58.3226 114.959C58.4013 114.773 58.4383 114.665 58.4761 114.555L58.661 114.057C59.1632 112.874 60.0375 112.001 60.7419 111.372L60.822 111.298L61.0641 111.175C61.1985 111.124 61.3147 111.131 61.3943 111.137L62.1443 111.181L62.0084 111.897C61.9086 112.225 61.8677 112.358 61.8153 112.482C61.8034 112.525 61.8988 112.608 61.9949 112.688C62.0999 112.779 62.2068 112.871 62.3219 112.949C62.8631 113.313 63.1522 113.887 63.1135 114.524C63.0762 115.154 63.265 115.713 63.7098 116.284C63.8554 116.472 63.9915 116.667 64.1268 116.863C64.1987 116.964 64.2717 117.068 64.3436 117.17C64.6398 116.862 64.92 116.577 65.2321 116.336C65.6253 116.034 66.0869 115.941 66.4987 116.085C66.9356 116.237 67.2606 116.627 67.389 117.152C67.6527 118.212 67.7122 119.269 67.5692 120.293C67.3745 121.673 67.1477 123.05 66.9217 124.426L66.8344 124.97C67.6994 123.905 68.5715 123.027 69.5295 122.27C69.6597 122.166 69.78 121.976 69.9078 121.774C70.0081 121.616 70.1085 121.457 70.2245 121.314C70.3572 121.147 70.5232 121.048 70.6426 120.975L71.195 120.641L71.5981 121.144C71.813 121.507 72.0161 121.84 71.8595 122.209L71.716 122.553ZM58.4371 120.732C58.5832 121.335 58.7146 121.967 58.8405 122.613C58.8836 122.501 58.9305 122.39 58.9755 122.279C59.0843 122.007 59.1969 121.737 59.2742 121.456C59.4124 120.953 59.5107 120.441 59.6072 119.927C59.6072 119.927 59.693 119.491 59.7041 119.433C59.4896 119.663 59.2693 119.885 59.0462 120.109C58.8421 120.314 58.6354 120.52 58.4371 120.732Z" fill="#1A1311"/>
<path id="&#227;&#131;&#145;&#227;&#130;&#185; 91" d="M94.9311 104.416C94.688 104.989 94.3506 105.57 93.902 106.195C93.0813 107.343 91.9209 107.323 90.9894 107.305C90.6606 107.294 90.5343 107.284 90.4123 107.301L90.1256 107.498L89.7484 107.455C88.9959 107.062 88.3672 106.435 87.9286 105.641C87.3629 104.621 86.7946 103.602 86.2068 102.593C86.1036 102.414 85.9815 102.239 85.8448 102.077C85.7665 102.209 85.7025 102.339 85.6469 102.47C85.3783 103.103 85.2694 103.797 85.152 104.531C85.145 104.668 85.2388 104.827 85.2938 104.921L85.4279 105.157L88.1947 110.454C88.3439 110.742 88.3104 111.082 88.231 111.3L88.2199 111.326C87.8766 112.135 87.4042 112.67 86.6734 113.169L86.1427 113.529L85.6592 112.628C85.3734 112.093 85.095 111.573 84.7947 111.068C84.779 111.313 84.7512 111.555 84.7053 111.798C84.6718 111.976 84.619 112.153 84.5482 112.319C84.2828 112.945 83.7847 113.462 82.9352 114.001L82.4697 114.296L81.9673 113.575C81.8106 113.356 81.6547 113.135 81.5073 112.904L80.909 111.961C80.6024 111.471 80.293 110.982 79.9733 110.501C79.4689 109.748 79.3855 108.878 79.7367 108.05C79.8257 107.84 79.9428 107.627 80.0868 107.423C80.2978 107.124 80.5241 106.835 80.7503 106.547L81.1831 105.991C80.9538 105.688 80.7289 105.385 80.5041 105.082C80.1312 104.581 79.7564 104.079 79.3738 103.585C79.1182 103.256 78.8931 103.255 78.6874 103.303C78.3381 103.387 77.9651 103.266 77.7377 102.995C77.535 102.754 77.4813 102.433 77.5997 102.154L77.9138 101.638C78.2769 101.058 78.6532 100.458 79.1666 99.9669C79.5528 99.5984 80.0577 99.4084 80.5903 99.4289C81.1712 99.4502 81.7396 99.7246 82.1516 100.18C82.591 100.665 82.976 101.199 83.3611 101.734L83.6692 102.159C83.6899 102.126 83.9877 101.684 83.9877 101.684C84.4877 100.949 84.9859 100.212 85.5165 99.4984C85.7764 99.1514 86.1312 98.8933 86.4779 98.6648C86.9673 98.3445 87.3834 98.3532 87.6461 98.4161C87.9025 98.4785 88.2641 98.6519 88.5366 99.1344C88.7762 99.5587 88.9903 99.9964 89.2071 100.433C89.4056 100.84 89.6059 101.248 89.8265 101.644C90.3312 102.547 90.8676 103.433 91.4362 104.296C91.6031 104.548 91.9036 104.865 92.3955 104.95C92.8166 105.025 93.124 104.869 93.3059 104.482L93.8818 103.151C94.0146 102.869 94.2423 102.676 94.429 102.544L95.6224 101.674L95.3344 103.122C95.2444 103.564 95.1131 103.987 94.9311 104.416Z" fill="#1A1311"/>
<path id="&#227;&#131;&#145;&#227;&#130;&#185; 92" d="M77.446 116.923C77.3045 117.256 77.0971 117.583 76.8303 117.894C76.6324 118.126 76.4182 118.345 76.192 118.576L75.4233 119.372L74.1353 117.685L74.7557 117.374L73.9561 116.051C73.6131 115.418 73.2702 114.784 72.9131 114.157L72.6068 113.614C71.7099 112.031 70.8138 110.447 69.8695 108.893C69.4228 108.16 68.8382 107.611 68.1315 107.267C67.6005 107.008 67.4391 107.035 66.9831 107.453C66.772 107.649 66.6183 107.859 66.519 108.093C66.3458 108.502 66.3224 108.989 66.4433 109.672C66.5604 110.338 66.6397 111.01 66.7098 111.683C66.7424 111.971 66.7041 112.248 66.5944 112.507C66.4831 112.769 66.3018 113.003 66.0528 113.205C65.9498 113.291 65.635 113.549 65.2481 113.409C64.9909 113.317 64.827 113.1 64.7585 112.761C64.7327 112.625 64.6978 112.488 64.6575 112.354C64.5843 112.407 63.6276 113.068 63.6276 113.068L63.3842 112.335C63.3276 112.187 63.2842 112.076 63.2853 111.933L63.2898 111.625C63.2983 110.84 63.307 110.029 63.6455 109.231C63.7329 109.025 63.8417 108.826 63.977 108.627L63.9778 108.625C64.1415 108.24 63.9539 107.453 63.7317 107.279C63.2947 106.935 63.1308 106.498 62.9847 106.114C62.6489 105.229 62.3568 104.402 62.2885 103.481L62.2604 103.016C62.2457 102.764 62.2328 102.514 62.2063 102.264C62.1692 101.961 62.2093 101.669 62.3229 101.401C62.4151 101.184 62.5538 100.982 62.7468 100.788L63.3433 100.168C63.6001 99.9015 63.855 99.6341 64.1203 99.3734C64.3623 99.1314 64.8399 99.016 65.1619 99.2256C65.4798 99.429 65.5097 99.8062 65.5255 99.9875L65.8985 105.199C65.9111 105.372 65.9291 105.543 65.9508 105.716C65.9944 105.67 66.0399 105.625 66.0844 105.578C66.4018 105.247 66.7315 104.907 67.1461 104.643C67.8027 104.226 68.5594 103.896 69.331 103.686C70.0076 103.503 71.0287 103.554 72.0497 104.834C72.9424 105.953 73.6491 106.984 74.2064 107.987C74.9314 109.283 75.5876 110.615 76.2457 111.948L76.897 113.261C77.074 113.614 77.2208 113.982 77.3657 114.348C77.7674 115.354 77.7702 116.159 77.446 116.923Z" fill="#1A1311"/>
<path id="&#227;&#131;&#145;&#227;&#130;&#185; 93" d="M115.565 94.3286C115.474 94.5421 115.31 94.7245 115.083 94.869L113.971 95.6427L113.508 94.5051C113.371 94.1619 113.24 93.8347 113.094 93.512C113.011 93.3286 112.913 93.1524 112.814 92.9754C112.729 92.8222 112.643 92.6689 112.567 92.5106C112.451 92.2781 112.346 92.0413 112.241 91.8046L112.115 91.519C111.721 90.6423 111.315 89.6151 111.504 88.5088C111.602 87.945 111.49 87.438 111.292 86.8525C111.207 86.5999 111.029 86.3431 110.84 86.0706L110.665 85.8153C110.562 85.6587 110.449 85.509 110.336 85.3574C110.17 85.1345 110.007 84.915 109.864 84.6797C109.752 84.4953 109.698 84.3109 109.648 84.1482C109.617 84.049 109.589 83.9532 109.555 83.8924C108.865 82.6405 108.461 81.4063 108.322 80.1236C108.277 79.6954 108.141 79.2601 107.994 78.7999L107.69 77.7763C107.413 76.8012 107.134 75.828 106.826 74.8621C106.716 74.5236 106.545 74.157 106.28 73.7087C106.031 73.2805 106.087 72.9352 106.178 72.72C106.252 72.5458 106.375 72.3905 106.548 72.265C106.912 71.9953 107.294 71.7555 107.678 71.5138C108.379 71.0737 108.955 71.1964 109.373 71.7454C110.404 73.1064 111.096 74.6462 111.427 76.3224C111.572 77.0579 111.742 77.7882 111.909 78.5196C112.059 79.1755 112.209 79.8313 112.343 80.4891C112.503 81.2775 112.652 82.0674 112.798 82.8584C112.939 83.6142 113.079 84.3719 113.232 85.1241L113.38 85.8631C113.618 87.053 113.863 88.2817 114.188 89.4561C114.472 90.4736 114.842 91.4657 115.209 92.4589L115.542 93.3623C115.677 93.7311 115.684 94.0478 115.565 94.3286Z" fill="#1A1311"/>
<path id="&#227;&#131;&#145;&#227;&#130;&#185; 94" d="M99.9044 102.199L99.7021 102.389C99.5217 102.564 99.3389 102.745 99.0877 102.868C98.5079 103.157 97.8821 102.971 97.5985 102.426L97.252 101.78C96.9236 101.174 96.5941 100.566 96.3467 99.9309C95.8857 98.7476 95.3604 97.7314 94.7484 96.8309L94.5806 97.3562L93.8497 96.3611L93.3095 95.1928C93.2444 95.0547 93.1782 94.9139 93.0944 94.7833C93.0308 94.6834 92.9808 94.6136 92.9441 94.5649C92.8975 94.607 92.8312 94.6694 92.744 94.7605C92.3988 95.1155 91.9969 95.4222 91.596 95.716L91.4652 95.8107L91.0748 95.8924L90.7539 95.9197L90.3812 95.6267C90.1359 95.2884 90.2014 94.8478 90.2282 94.7222L90.3141 94.4471C90.3697 94.3161 90.4461 94.1828 90.5437 94.0519C90.9129 93.5569 91.2843 93.0671 91.6731 92.5937C91.6861 92.5682 91.6993 92.5474 91.7089 92.5249C91.7367 92.4594 91.7378 92.3891 91.694 92.2269C91.448 91.3073 91.2333 90.3766 91.0602 89.4414C91.0036 89.1324 91.0383 88.8267 91.1631 88.5328C91.3156 88.1734 91.5716 87.8932 91.7977 87.6467L91.9954 87.4257C92.3428 87.0341 92.7351 86.5886 93.3517 86.2759L94.4479 85.7183L94.1746 86.919C94.0278 87.5615 94.2691 88.0705 94.5755 88.7175L94.6377 88.8522C94.9254 88.3358 95.2944 87.7214 96.1265 87.4891L96.7887 87.3084L96.8549 87.9905C96.8956 88.1757 96.9514 88.4137 96.8465 88.6608L96.6808 88.9837C96.3503 89.6322 96.0144 90.2828 95.6109 90.8848C95.5668 90.9522 95.5296 91.0138 95.5034 91.0756C95.4676 91.1598 95.458 91.2242 95.5044 91.3544L96.2439 93.396C96.6333 94.4826 97.0216 95.5666 97.4278 96.6448C97.8507 97.7722 98.3094 98.8882 98.7944 99.9889C99.0587 100.589 99.3087 100.989 99.8013 101.26L100.521 101.656L99.9044 102.199Z" fill="#1A1311"/>
<path id="&#227;&#131;&#145;&#227;&#130;&#185; 95" d="M70.4009 113.648C70.2944 113.899 70.1423 114.148 69.9195 114.433C68.8598 115.795 67.3876 116.052 65.8412 116.213C65.2173 116.277 64.9189 116.007 64.7954 115.84C64.6063 115.582 64.5779 115.243 64.7185 114.912C65.1932 114.091 65.6341 113.474 66.0768 112.857L66.3359 112.497C66.5278 112.227 66.8777 112.095 67.1405 112.085C67.8825 112.059 68.628 112.047 69.3728 112.036L69.8398 112.029L70.4653 112.122L70.5874 112.604C70.6047 112.97 70.544 113.311 70.4009 113.648Z" fill="#1A1311"/>
<path id="&#227;&#131;&#145;&#227;&#130;&#185; 96" d="M107.942 92.0693C107.374 93.2265 106.788 94.425 106.095 95.5471C105.435 96.6125 104.591 97.5554 103.773 98.4675C103.362 98.9251 102.963 99.1158 102.612 99.2871L102.275 99.4557C102.093 99.5573 101.912 99.5558 101.782 99.5557L100.869 99.5506L101.103 98.7305L101.255 98.4084C101.655 97.5533 102.109 96.5837 103.313 96.156C103.548 96.0721 103.858 95.753 104.068 95.3781C104.579 94.4641 105.061 93.5329 105.542 92.6035C105.846 92.0168 106.147 91.4312 106.459 90.8477C106.574 90.6291 106.752 90.5059 106.884 90.4138C107.109 90.1802 107.212 90.0052 107.332 89.8109L108.048 88.6764L108.517 89.5339C108.738 89.9393 108.754 90.3548 108.564 90.8022L107.942 92.0693Z" fill="#1A1311"/>
<path id="&#227;&#131;&#145;&#227;&#130;&#185; 97" d="M102.418 93.0295C102.127 93.7147 101.665 94.2656 101.082 94.6255C100.609 94.9174 100.333 95.3109 100.063 95.8126C99.8375 96.2294 99.4727 96.5319 99.1521 96.7979C98.6773 97.1929 98.1885 97.0849 97.9539 96.9765C97.5399 96.7808 97.4661 96.2259 97.5708 95.9168C97.6788 95.5738 97.7298 95.4121 97.7926 95.2642C97.8792 95.0601 97.982 94.8961 98.1038 94.76C98.9088 93.8733 99.5952 93.1881 100.268 92.6121C100.579 92.344 100.959 92.2137 101.296 92.0961C101.42 92.0537 101.543 92.0132 101.662 91.9621L102.129 91.7626L102.521 92.4326L102.503 92.8119L102.418 93.0295Z" fill="#1A1311"/>
<path id="&#227;&#131;&#145;&#227;&#130;&#185; 98" d="M116.943 99.222C116.713 99.7649 116.302 100.171 115.938 100.534C115.607 100.86 115.271 101.09 114.921 101.315C114.717 101.448 114.502 101.46 114.358 101.47L113.701 101.509L113.611 100.863C113.607 100.665 113.602 100.482 113.683 100.293L113.91 99.8257C114.142 99.3346 114.386 98.8282 114.726 98.3714C114.987 98.0207 115.333 97.7677 115.666 97.5246C115.801 97.425 115.936 97.3255 116.071 97.2169L116.728 96.6784L116.985 97.488C117.184 98.118 117.171 98.6848 116.943 99.222Z" fill="#1A1311"/>
<path id="&#227;&#131;&#145;&#227;&#130;&#185; 99" d="M126.91 85.8767C126.567 85.8507 126.421 85.7158 126.181 84.9379L126.112 84.893C125.932 84.7612 125.773 84.4621 125.637 84.086L124.975 84.1893C124.975 84.1893 124.911 83.8023 124.906 83.7734L124.883 83.7749L124.63 83.3095L124.319 83.3498L124.215 82.8041C124.098 82.127 124.032 81.4449 123.966 80.7628C123.938 80.4948 123.911 80.2294 123.884 79.9614L123.837 79.9725C123.571 79.25 123.474 77.8919 123.378 76.5783C123.335 75.9859 123.293 75.4135 123.238 74.944C122.796 71.0931 122.648 66.4766 122.517 62.4022L122.407 59.163C122.147 52.6052 122.364 46.2573 123.04 40.804L123.109 40.2347L123.433 40.2728C123.558 39.7137 123.667 39.3379 123.773 39.087C123.85 38.9054 124.085 38.3532 124.726 38.4444C124.805 38.4559 124.872 38.4754 124.929 38.5019C124.979 38.1562 125.037 37.8008 125.089 37.5643L125.249 37.1861L125.485 37.094C125.594 36.5924 125.697 36.0529 125.807 35.4874L125.864 35.1913L126.672 31.8576L126.988 31.9345L127.13 31.8245L127.559 31.9801C127.959 32.223 127.871 32.6714 127.77 33.1899C125.702 41.4656 125.59 50.2911 125.649 58.6257C125.822 68.4404 126.417 76.8365 127.467 84.2883C127.588 85.1792 127.568 85.3454 127.497 85.5139L127.335 85.8939L126.91 85.8767Z" fill="#1A1311"/>
<path id="&#227;&#131;&#145;&#227;&#130;&#185; 100" d="M134.877 68.1789C134.624 68.1664 134.456 68.0246 134.333 67.82C134.151 67.7557 133.99 67.6145 133.863 67.4037L133.787 67.3628L133.629 67.3708L133.632 67.4846L133.557 67.3735L133.144 67.3901L133.042 67.2124L132.634 67.2223L132.533 66.7201C132.494 66.4492 132.5 66.18 132.507 65.9089C132.505 65.8752 132.508 65.8387 132.508 65.8058C132.275 65.402 132.307 64.8387 132.338 64.2928C132.35 64.0924 132.363 63.8993 132.353 63.7405C132.26 62.3356 132.453 60.7625 132.64 59.24C132.7 58.7396 132.759 58.2502 132.806 57.7862C132.973 55.8311 133.485 53.6157 134.369 51.0236L134.553 50.479L134.94 50.6099C135.204 50.2781 135.56 50.0536 136.079 50.2318C136.133 50.2503 136.203 50.2824 136.269 50.3366L136.316 50.2043L136.619 49.922L136.766 49.9247C136.863 49.6918 136.952 49.4338 137.048 49.1672L137.455 48.0519L137.995 48.2525L138.29 48.2231L138.384 48.4287C138.62 48.6947 138.543 49.0285 138.511 49.1717C137.629 51.6279 136.574 54.8011 136.045 58.1183C135.599 60.8408 135.44 63.8224 135.558 67.2397C135.554 67.5097 135.53 67.6652 135.477 67.7906L135.32 68.1613L134.877 68.1789Z" fill="#1A1311"/>
<path id="&#227;&#131;&#145;&#227;&#130;&#185; 101" d="M63.8375 143.086C63.6284 143.152 63.5337 143.182 62.7641 142.736C62.5661 142.791 62.2756 142.721 61.7289 142.458L61.3029 142.977C61.1821 142.882 61.0627 142.794 60.9588 142.721L60.9514 142.733L60.3998 142.612L60.3254 142.735L60.3179 142.732L60.2228 142.873L59.7446 142.583L59.0394 142.132C58.4329 141.744 57.8187 141.348 57.1887 140.979L57.1654 141.029C56.517 140.802 55.4871 140.215 54.3978 139.596C53.7091 139.204 53.0204 138.812 52.4589 138.532L51.361 137.995C46.8333 135.779 41.6995 133.269 37.1719 131.552C31.1285 129.29 24.7157 127.007 18.7772 125.638L18.2216 125.51L18.2865 125.206C16.8835 124.774 16.3184 124.523 16.4488 123.794C16.4536 123.783 16.5153 123.648 16.5462 123.602L15.1724 123.361L14.9363 123.038C13.2869 122.775 11.4132 122.729 9.65554 122.908L8.97908 122.977L8.99718 122.653L8.81231 122.552L8.91074 121.982C9.07364 121.598 9.49116 121.557 10.068 121.499C15.1931 121.147 19.8852 122.418 24.4237 123.651C28.8496 124.936 33.3767 126.513 37.8925 128.345C42.3982 130.165 46.7656 132.118 50.8689 134.147C55.3803 136.423 59.4176 138.534 63.2149 141.357C64.0793 142.037 64.3993 142.288 64.2025 142.757L64.0984 143.002L63.8375 143.086Z" fill="#1A1311"/>
<path id="&#227;&#131;&#145;&#227;&#130;&#185; 102" d="M54.6932 146.957C54.5566 147.279 54.2868 147.352 53.9807 147.324C53.8206 147.43 53.6111 147.476 53.363 147.457L53.2851 147.495L53.2445 147.559L53.3657 147.633L53.1956 147.638L52.9356 148.042L52.7419 148.02L52.5086 148.371L52.0296 148.142C51.8428 148.04 51.6677 147.922 51.4935 147.801C51.4383 147.765 51.384 147.726 51.3318 147.693C50.9136 147.679 50.5033 147.412 50.1037 147.156C49.9185 147.036 49.7378 146.915 49.5768 146.846C49.0622 146.617 48.5339 146.357 47.9914 146.089C46.8293 145.517 45.6269 144.924 44.5096 144.616C42.4722 144.065 40.3016 143.495 38.2498 143.092L37.6907 142.983L37.7652 142.584C37.4104 142.374 37.1417 142.054 37.2448 141.514L37.2543 141.492C37.2813 141.428 37.3116 141.373 37.345 141.325L37.1818 141.293L36.7151 140.941L36.7322 140.879C36.4711 140.828 36.1997 140.786 35.9218 140.743L34.8522 140.572L34.9329 140.111L34.8988 140.004L34.9697 139.722C35.0889 139.442 35.3539 139.307 35.7577 139.323C38.9078 139.788 42.2062 140.366 45.4011 141.49C48.4328 142.541 51.4068 144.055 54.2378 145.995C54.445 146.147 54.8967 146.478 54.6932 146.957Z" fill="#1A1311"/>
</g>
</g>
</svg>
