<svg width="184" height="387" viewBox="0 0 184 387" fill="none" xmlns="http://www.w3.org/2000/svg">
<path d="M69.6481 152.404C71.8884 148.535 72.8184 144.424 73.4324 140.244C73.6714 138.615 72.5795 138.14 71.4516 138.204C66.1232 138.499 60.8204 137.968 55.4663 140.609C53.0795 141.785 50.3151 142.045 47.7125 142.644C46.0169 143.034 44.3084 143.329 42.6025 143.589C36.3183 144.55 30.5351 143.502 25.1116 141.182C23.4082 140.452 23.2464 139.173 24.7596 137.752C26.1418 136.457 27.2697 134.718 29.3404 134.301C29.6821 134.232 30.1626 133.59 30.2422 133.189C30.3476 132.67 30.1112 132.128 30.0213 131.596C29.6796 132.002 29.3199 132.398 29.0013 132.819C28.8729 132.989 28.8369 133.222 28.4644 133.395C28.5774 130.109 28.8934 126.787 28.7418 123.544C28.5928 120.428 28.6622 117.247 27.4752 114.321C26.3756 111.605 25.8464 108.61 24.8444 105.838C24.3845 104.569 23.4519 103.495 22.6246 102.423C21.2784 100.679 21.5045 99.7796 23.6934 98.6029C31.9558 94.1608 38.8104 87.9794 44.8762 80.8294C45.0689 80.6008 45.1768 80.3027 45.6264 79.4909C43.9564 79.7478 42.6282 79.7375 41.4129 80.1794C38.7436 81.1531 36.1205 82.3221 33.5025 83.4731C31.5679 84.3261 30.4349 84.1025 29.7207 82.579C29.0707 81.1891 29.4509 80.2668 31.4754 79.3136C33.1788 78.5095 34.9926 77.9828 36.7756 77.415C39.7738 76.4593 42.8054 75.6551 45.7857 74.6326C51.2503 72.7622 56.7663 71.6447 62.3439 71.1771C63.1506 71.1077 63.9471 71.2978 65.2034 71.4083C64.3633 72.364 63.9342 73.217 63.2971 73.5176C60.5506 74.8073 57.7888 76.1587 54.9422 77.0296C53.3904 77.5075 52.1212 78.0573 51.1501 79.3316C47.9129 83.5938 43.7612 86.8772 39.6865 90.2634C38.5072 91.2423 37.4667 92.4215 36.4802 93.6033C36.1616 93.9861 36.2207 94.667 36.1076 95.2142C36.7422 95.1731 37.572 95.3889 37.9805 95.0575C44.0746 90.1452 51.2169 87.5632 57.9841 84.1411C61.6734 82.2733 65.1777 79.9405 68.9004 78.1729C73.1216 76.169 77.5328 74.7739 82.0623 74.8099C84.1921 74.8253 85.0913 75.7502 85.3302 77.9186C86.2038 85.7725 85.9006 93.778 84.7804 101.812C83.5087 110.927 81.8542 120.04 80.2844 129.153C80.0326 130.604 80.5028 130.864 81.8079 130.89C83.5498 130.926 85.2917 131.129 86.9462 131.509C88.3259 131.827 88.3027 132.714 87.1235 133.703C85.0784 135.422 82.9075 136.876 80.3795 137.605C79.3055 137.916 78.8688 138.556 78.7146 139.625C78.3061 142.482 77.7409 145.336 77.3427 148.195C77.132 149.701 76.5231 150.762 74.9688 151.276C73.2449 151.846 71.5312 152.465 69.8125 153.061L69.6481 152.404ZM46.8364 95.0857C46.8673 95.2579 46.8955 95.4274 46.9264 95.597C48.4756 95.615 50.0248 95.5353 50.3177 97.4699C50.7364 100.232 51.3068 102.955 51.8052 105.696C51.9414 106.447 51.9054 107.292 52.2266 107.934C52.4347 108.35 53.1746 108.787 53.6242 108.689C58.1844 107.685 58.1793 107.654 59.3842 103.158C59.4819 102.798 59.6129 102.441 59.69 102.079C60.4273 98.5258 61.7761 94.9984 61.2186 91.3938C61.1493 90.9365 62.0099 89.8703 62.5829 89.6648C64.2862 89.0482 66.0589 88.6602 67.8137 88.3031C69.499 87.9589 70.5986 88.6859 70.6269 90.3456C70.6886 93.7446 71.0894 97.2027 70.4342 100.573C69.1111 107.384 68.5099 114.321 65.4911 120.942C65.4141 121.111 65.3858 121.304 65.3653 121.484C64.8977 125.916 62.4184 129.297 58.6983 131.876C57.5422 132.68 56.0649 133.086 54.7058 133.395C54.3101 133.484 53.8708 132.518 53.3441 132.19C52.9819 131.964 52.3653 131.786 51.9825 131.948C49.958 132.811 47.972 133.79 45.8293 134.797C46.1762 135.108 46.2764 135.27 46.4254 135.316C46.7003 135.404 46.9983 135.473 47.2963 135.468C52.2137 135.411 57.1337 135.38 62.0767 133.947C65.8354 132.855 69.589 131.74 73.7561 130.512C73.6482 128.898 73.5172 126.933 73.3862 124.968C73.2141 124.978 73.0419 124.988 72.8672 124.996C72.4176 126.728 71.9654 128.457 71.4079 130.586C71.2075 130.039 71.1279 129.939 71.1433 129.841C72.1247 122.93 73.5609 116.017 72.2198 109.239C71.7959 107.097 72.1633 104.705 72.1915 102.423C72.2763 96.0286 72.3277 89.6494 70.8684 83.5425C70.5473 82.1962 70.0463 81.7235 68.6255 82.466C62.9117 85.4591 57.1568 88.3571 51.4943 91.4581C49.809 92.3804 48.3831 93.8628 46.8364 95.0857ZM41.1586 132.169C41.2896 130.067 41.3307 127.971 41.5697 125.872C42.325 119.256 43.2653 112.638 43.8922 106.028C44.1131 103.705 43.6301 101.406 43.4452 98.7519C42.212 99.6948 41.5363 100.293 40.7886 100.764C39.2959 101.699 38.5586 102.768 39.129 104.448C39.4193 105.306 39.3884 106.313 39.4527 107.264C39.946 114.568 39.4963 121.936 38.2375 129.369C37.8469 131.668 38.4507 132.213 41.1586 132.169Z" fill="#1A1311"/>
<path d="M56.8101 239.003C56.9205 237.166 56.9436 235.257 57.18 233.345C57.3547 231.94 56.6919 231.788 55.3996 232.238C50.418 233.975 45.4569 235.763 40.4599 237.446C36.4109 238.81 32.3336 240.082 28.2461 241.315C27.4548 241.554 26.4836 241.595 25.7386 241.407C25.0937 241.243 24.4257 240.716 24.1971 240.177C24.0609 239.848 24.6955 239.172 25.0603 238.692C25.289 238.386 25.6538 238.152 25.8979 237.482C24.6929 237.6 23.488 237.715 22.1289 237.849C22.5528 235.583 23.0333 233.268 23.4109 230.953C24.007 227.269 24.6056 223.583 25.0398 219.896C25.1323 219.097 24.2664 218.323 24.2844 217.504C24.3538 214.321 24.5542 211.127 24.7957 207.934C25.1348 203.443 25.6769 198.942 25.8825 194.458C25.9672 192.627 25.4637 190.821 25.0963 189.035C24.8394 187.789 24.5388 186.461 26.2755 185.831C30.3631 184.344 32.9245 181.345 35.7917 178.645C38.235 176.343 40.6937 174.044 42.9674 171.626C44.3342 170.172 45.4903 168.538 46.5128 166.891C47.5251 165.262 50.9344 164.014 52.3371 165.06C52.7508 165.368 52.8998 166.336 52.648 166.845C50.6929 170.789 48.1263 174.329 44.252 177.307C41.3026 179.573 38.8978 182.412 36.3338 185.053C36.0127 185.384 36.0743 186.116 36.1848 186.605C36.5316 188.172 37.0609 189.693 37.3743 191.268C37.5953 192.388 37.9498 192.501 39.1625 191.823C46.0401 187.987 53.2158 184.567 60.9413 183.021C64.6717 182.273 68.6847 182.987 72.4511 183.457C73.4788 183.586 74.4808 185.104 74.7916 186.199C75.8219 189.798 75.6138 193.585 75.1308 197.41C74.6144 201.508 74.4448 205.609 73.931 209.709C73.6047 212.322 72.9418 214.935 72.4074 217.545C71.4569 222.19 70.5191 226.835 69.5017 231.475C69.1908 232.901 68.6359 234.309 68.1683 235.722C68.1015 235.92 67.9063 236.105 67.7444 236.277C65.8741 238.294 59.5565 239.928 56.8101 239.003ZM61.3421 208.99C59.798 209.239 58.2719 209.884 57.2083 209.575C54.6365 208.828 52.2832 209.611 49.9555 210.541C47.9002 211.358 46.0273 212.61 43.9848 213.465C41.9963 214.298 39.9024 214.891 37.8419 215.551C36.601 215.947 36.0692 216.677 35.8919 217.768C35.5708 219.747 35.2008 221.725 34.7255 223.693C33.7595 227.703 32.7062 231.709 31.7067 235.647C35.6838 234.527 39.5735 233.381 43.4889 232.346C47.7306 231.223 51.9929 230.18 56.2577 229.158C57.3265 228.903 57.8351 228.461 58.015 227.495C59.0529 221.887 60.1525 216.284 61.2136 210.678C61.3189 210.123 61.301 209.56 61.3421 208.99ZM37.0891 210.58C37.531 210.58 37.716 210.618 37.8804 210.575C42.1119 209.424 46.3279 208.206 50.5721 207.13C53.429 206.405 56.3322 205.573 59.2045 205.339C62.9092 205.036 62.3312 205.547 62.9658 202.449C63.8521 198.13 64.7693 193.793 64.0474 189.521C63.6671 187.29 62.0923 185.68 60.0575 185.924C56.8049 186.312 53.7014 187.365 50.9138 189.199C47.1962 191.643 43.4941 194.106 39.72 196.478C38.3994 197.31 37.5901 197.942 37.7571 199.566C38.0089 202.025 37.6621 204.591 37.5131 207.114C37.4437 208.257 37.2356 209.406 37.0891 210.58Z" fill="#1A1311"/>
<path d="M174.475 154.125C170.804 156.096 166.56 156.247 162.328 156.499C160.967 156.581 159.6 156.656 158.246 156.661C155.376 156.669 153.013 155.559 151.219 153.655C148.144 150.387 144.236 149.868 139.73 151.268C136.598 152.242 133.834 151.553 131.154 150.654C129.995 150.266 128.937 149.367 128.176 148.414C125.674 145.285 122.532 143.396 118.236 143.024C116.936 142.911 115.444 141.945 114.814 140.863C113.925 139.337 112.926 139.219 111.323 139.704C106.616 141.13 105.796 140.475 106.472 135.679C107.621 127.511 110.033 119.57 113.784 111.875C114.755 109.884 115.703 107.872 116.5 105.827C117.476 103.325 119.344 102.169 121.73 102.007C123.436 101.894 124.513 102.66 124.235 104.684C123.791 107.937 123.47 111.192 123.118 114.447C123.069 114.879 123.138 115.308 123.159 115.947C125.689 115.02 128.056 114.028 130.471 113.299C133.805 112.294 137.168 111.243 140.539 110.704C142.284 110.424 142.754 109.894 142.643 108.451C142.497 106.524 142.366 104.589 142.06 102.706C141.783 100.995 142.548 100.198 144.172 99.6588C148.971 98.0608 149.467 98.3177 151.348 102.534C151.957 103.898 153.174 104.941 154.212 106.259C154.724 105.689 155.076 105.285 155.44 104.892C156.645 103.6 157.763 102.922 159.374 104.021C160.389 104.718 161.868 104.787 163.122 105.18C165.465 105.915 165.738 107.194 163.77 109.103C162.339 110.493 160.769 111.811 159.094 112.859C157.249 114.013 156.579 115.367 156.263 117.399C155.348 123.282 154.338 129.181 152.915 135.018C152.306 137.51 152.429 139.412 154.11 140.853C158.259 144.406 162.349 148.059 166.819 151.207C168.98 152.728 171.945 153.203 174.475 154.125ZM140.781 129.366C141.117 128.667 141.279 128.462 141.307 128.251C141.557 126.44 141.839 124.623 142.004 122.812C142.276 119.796 141.405 119.064 138.294 119.549C136.246 119.87 134.191 120.325 132.151 120.477C128.991 120.716 125.841 120.747 122.044 120.888C121.409 124.318 120.669 128.315 119.855 132.721C127.239 129.703 133.872 126.08 140.781 129.366Z" fill="#1A1311"/>
<path d="M163.585 92.961C163.644 90.5769 163.754 88.1772 163.746 85.8136C163.744 84.1642 164.692 81.9085 162.809 81.315C162.688 81.2765 162.773 80.6008 162.791 80.218C163.089 73.9646 163.407 67.7061 163.677 61.4605C163.71 60.7129 163.495 60.0218 163.322 58.8014C162.734 59.9987 162.385 60.7103 161.737 62.0334C162.233 59.2176 162.67 57.0441 162.986 54.8809C163.808 49.2441 164.551 43.61 165.378 37.9732C166.21 32.3159 167.107 26.656 167.975 20.9962C168.014 20.7572 168.063 20.5157 168.091 20.2768C168.584 15.9529 168.227 15.7011 164.82 17.2195C162.914 18.0699 160.972 18.6223 159.045 19.1849C158.564 19.3262 158.084 18.9897 157.604 18.8741C157.858 18.2163 157.994 17.3531 158.387 16.9369C160.229 14.9869 162.082 13.0086 164.052 11.3438C165.311 10.2802 166.313 9.26024 167.323 7.67506C168.44 5.92032 170.28 4.66914 171.906 3.59009C173.607 2.4648 175.418 1.69662 177.196 0.959269C181.546 -0.846854 182.596 0.0677686 183.059 5.33199C183.483 10.144 182.637 15.0614 181.402 19.9968C177.684 34.8491 173.8 49.6835 170.144 64.5435C168.091 72.8856 166.354 81.2662 164.491 89.6288C164.25 90.7156 164.103 91.8075 163.913 92.8968C163.803 92.9199 163.695 92.9405 163.585 92.961Z" fill="#1A1311"/>
<path d="M36.9584 298.99C35.9538 300.763 35.4631 302.548 34.3147 303.45C32.488 304.884 30.258 305.827 28.1307 306.782C26.9977 307.294 25.726 307.45 24.5133 307.674C20.5363 308.406 18.5889 307.419 17.2272 303.915C15.5187 299.522 15.5829 294.671 15.2772 289.905C14.9817 285.327 14.5604 280.77 14.0466 276.237C13.7922 273.987 13.8616 273.208 16.0993 272.569C18.6274 271.847 21.3327 271.366 23.8325 271.5C26.0959 271.621 26.2321 274.041 26.3811 275.898C26.6612 279.344 26.6201 282.856 26.877 286.306C27.1236 289.574 27.3857 292.86 27.9971 296.028C28.755 299.956 31.0442 300.927 35.0187 299.46C35.5119 299.278 36.036 299.208 36.9584 298.99Z" fill="#1A1311"/>
<path d="M115.834 61.5145C116.612 57.3447 117.578 53.5244 117.247 49.424C116.892 45.0127 118.097 39.9823 118.442 35.2525C118.652 32.375 118.683 29.6234 117.098 27.473C115.479 25.2764 116.088 23.3187 118.663 21.5922C121.445 19.727 124.292 18.0365 127.151 16.5207C129.736 15.1513 131.953 16.7699 132.6 20.2306C133.484 24.9321 133.237 29.9446 132.189 35.1035C130.447 43.6716 127.719 52.0291 124.77 60.3686C123.526 63.8807 121.579 64.7927 119.336 65.6971C117.727 66.3471 117.203 65.7407 117.697 63.5518C118.27 61.0161 118.01 60.8157 115.834 61.5145Z" fill="#1A1311"/>
<path d="M60.9133 289.24C61.9872 284.161 61.2473 279.644 59.7289 275.343C58.5625 272.045 56.7076 269.314 53.0491 268.211C52.1961 267.952 51.1453 266.855 51.1993 266.089C51.2584 265.267 52.3759 264.075 53.2803 263.587C55.9805 262.125 58.8194 262.017 61.4579 262.814C63.8164 263.525 64.0348 265.884 64.3508 267.978C64.8056 270.963 66.1055 273.329 67.8911 275.662C69.5046 277.771 70.2342 280.628 71.1385 283.251C71.6652 284.772 71.6729 286.517 72.0866 288.094C72.4411 289.443 71.8939 290.566 70.7403 291.051C68.071 292.177 65.3322 293.153 62.5755 293.862C62.1002 293.983 61.1805 292.593 60.8645 291.719C60.5896 290.956 60.8824 289.934 60.9133 289.24Z" fill="#1A1311"/>
<path d="M136.161 51.7028C136.739 46.955 137.276 42.2123 137.916 37.4594C138.193 35.3989 138.638 33.3179 139.108 31.2549C139.229 30.7282 139.671 30.0345 140.064 29.757C142.535 28.0049 144.989 26.0394 147.538 24.7343C151.155 22.8845 153.01 25.0632 151.846 29.6825C150.51 34.9981 148.822 40.2649 147.437 45.5754C146.772 48.1266 146.541 50.7343 145.932 53.2983C145.695 54.2977 145.056 55.7801 144.431 56.1244C141.659 57.6633 138.838 59.0172 136.012 60.1297C134.579 60.6949 133.872 59.8419 134.491 57.6993C135.057 55.7287 135.48 53.7325 135.966 51.7465C136.03 51.7311 136.097 51.7182 136.161 51.7028Z" fill="#1A1311"/>
<path d="M43.8896 370.834C44.3521 369.57 44.9867 368.319 45.2308 367.045C45.5391 365.423 45.3541 363.771 45.706 362.153C46.1891 359.941 46.7671 357.721 47.6972 355.553C48.6092 353.428 50.2612 351.391 51.1398 349.263C52.5297 345.898 53.4726 342.481 54.7598 339.105C55.212 337.918 56.0341 336.762 56.8382 335.621C58.4465 333.337 60.0343 331.045 61.9149 328.818C62.4133 328.232 63.8264 327.747 65.0467 327.446C67.0018 326.96 69.1291 326.634 71.2307 326.313C71.7625 326.231 72.4639 326.416 73.0882 326.48C72.952 326.737 72.8673 327.004 72.6694 327.246C72.004 328.055 71.2127 328.836 70.6218 329.658C66.4264 335.521 62.7525 341.469 59.8647 347.547C56.7406 354.117 53.5112 360.676 49.3157 367.091C48.8353 367.826 48.5398 368.594 48.2238 369.354C47.543 370.981 47.3015 371.073 43.8896 370.834Z" fill="#1A1311"/>
<path d="M30.7306 384.559C29.2559 384.592 28.7036 383.996 28.516 383.482C28.3644 383.074 28.8783 382.583 29.2508 382.164C29.4152 381.979 29.9522 381.879 30.335 381.75C31.7814 381.265 33.2612 380.792 33.2227 379.903C36.2826 379.644 39.1189 379.379 41.9707 379.171C46.549 378.834 47.6691 380.766 46.7005 382.336C45.4211 384.41 42.464 385.656 38.3405 386.221C37.1561 386.383 36 386.622 34.7925 386.704C34.2041 386.745 33.2895 386.601 32.9427 386.378C32.0769 385.82 31.4526 385.167 30.7332 384.556C31.2239 384.823 31.6786 385.113 32.2259 385.347C32.5008 385.465 33.0172 385.576 33.2869 385.522C33.5875 385.46 33.9524 385.193 33.901 385.047C33.8008 384.762 33.5413 384.433 33.1277 384.25C32.8759 384.137 32.1976 384.237 31.7403 384.294C31.3806 384.34 31.0646 384.469 30.7306 384.559Z" fill="#1A1311"/>
<path d="M12.6797 371.62C12.8929 370.423 13.1524 369.329 13.2655 368.226C13.3477 367.415 13.2038 366.595 13.2346 365.778C13.2603 365.02 13.3836 364.265 13.4659 363.507C13.6791 361.523 14.1287 359.501 16.5206 357.929C18.3318 356.737 18.9818 355.427 19.4006 354.063C19.6832 353.133 19.2824 352.133 19.0769 351.17C18.8688 350.204 18.4192 349.245 18.2856 348.279C18.2085 347.709 18.6915 347.128 18.6607 346.553C18.5194 343.85 19.2208 341.255 21.1836 338.725C22.2036 337.409 22.5042 335.945 23.0668 334.542C24.0534 332.073 25.0708 329.609 25.9057 327.127C26.2346 326.156 26.2372 325.139 26.1318 324.147C26.0573 323.423 26.697 323.058 27.8917 322.973C29.9573 322.827 32.0563 322.768 34.1451 322.701C35.7045 322.649 36.4213 323.06 36.686 323.839C37.8549 327.264 37.4901 330.614 35.5735 333.931C33.9036 336.824 32.5547 339.765 30.9208 342.663C29.1146 345.864 27.0799 349.03 25.266 352.231C23.5421 355.268 21.7 358.297 20.4154 361.387C19.2156 364.272 18.6376 367.227 17.8822 370.158C17.6767 370.947 17.0755 371.412 15.4467 371.469C14.7016 371.494 13.9591 371.548 12.6797 371.62ZM26.2706 337.825L25.5923 338.203L27.6194 338.943C27.7812 338.835 27.9457 338.73 28.1075 338.624C27.4961 338.357 26.882 338.093 26.2706 337.825Z" fill="#1A1311"/>
<path d="M14.9404 377.298C14.6398 383.382 10.894 384.142 7.29201 384.99C5.83016 385.332 4.22443 385.319 2.6521 385.286C2.09716 385.275 1.43946 384.72 0.830566 384.415C1.07464 383.883 1.18768 383.158 1.5859 382.853C3.75171 381.196 5.80704 379.274 8.26059 378.169C10.1335 377.329 12.5408 377.565 14.9404 377.298Z" fill="#1A1311"/>
</svg>
