<svg width="170" height="169" viewBox="0 0 170 169" fill="none" xmlns="http://www.w3.org/2000/svg">
<path d="M36.4024 79.7386C36.1432 78.4682 35.9556 77.4597 36.3852 76.4969C36.5077 76.2229 36.5402 75.8945 36.4989 75.5933C36.4576 75.2916 36.3331 74.9542 36.0715 74.7034L36.0714 74.7033C36.0299 74.6636 36.0119 74.6393 36.0048 74.6282C36.0061 74.6136 36.012 74.5765 36.0386 74.5046C36.0386 74.5044 36.0387 74.5043 36.0388 74.5041L35.5698 74.3308M36.4024 79.7386L36.1173 73.5958M36.4024 79.7386L36.4025 79.7391L36.4026 79.7396L36.4033 79.7431L36.4066 79.7587L36.4185 79.8156L36.4196 79.8207C37.286 79.6534 37.8849 79.9691 38.2024 80.2371L38.2025 80.2371C38.8404 80.7758 39.0765 81.6714 38.9149 82.5346L38.9147 82.5354C38.7771 83.2639 38.5248 84.0199 38.1715 84.7867L36.4024 79.7386ZM35.5698 74.3308C35.6365 74.1518 35.641 73.9807 35.635 73.8222C35.6272 73.6349 35.5952 73.4784 35.548 73.3472M35.5698 74.3308C35.4506 74.6533 35.4902 74.8388 35.7255 75.0643M35.5698 74.3308L35.7255 75.0643M35.548 73.3472L35.7669 73.7968C35.8917 73.736 36.0085 73.6676 36.1173 73.5958M35.548 73.3472L36.0184 73.1778C36.0644 73.3055 36.0979 73.4446 36.1173 73.5958M35.548 73.3472C35.9286 73.1619 36.2274 72.8889 36.4757 72.6601C36.9829 72.1872 37.1205 71.4192 36.8012 70.8383M36.1173 73.5958C36.4022 73.4077 36.6323 73.1957 36.809 73.0329L36.8145 73.0279L36.8167 73.0258C37.4793 72.4079 37.6758 71.3942 37.2406 70.5997L37.2417 70.6017L36.8012 70.8383M36.8012 70.8383L37.2394 70.5974L36.9864 70.1263L36.5445 70.3602M36.8012 70.8383L36.5445 70.3602M36.5445 70.3602C36.1395 69.5949 35.7183 68.8003 35.0069 68.1567M36.5445 70.3602L36.985 70.1237M36.985 70.1237L36.9742 70.1032C36.577 69.3525 36.1206 68.49 35.3423 67.7859L35.3424 67.7859L35.3389 67.7829C35.298 67.7465 35.2609 67.7002 35.1867 67.6075L35.1833 67.6033L35.0601 67.7006C35.0222 67.7783 34.9797 67.8498 34.9338 67.9123L34.8603 67.8583L34.7909 67.9132M36.985 70.1237L29.5727 79.7567C29.4289 79.741 29.2576 79.7111 29.084 79.6399C29.1031 79.4976 29.1211 79.3514 29.1398 79.1996L29.5621 79.2516C29.3621 79.2231 29.1661 79.1606 29.0076 79.0013M36.985 70.1237L35.0069 68.1567M34.7909 67.9132L34.8598 67.858L34.5308 67.6163M34.7909 67.9132C34.7967 67.9204 34.8024 67.9276 34.8082 67.9348C34.8701 68.0123 34.9329 68.0909 35.0069 68.1567M34.7909 67.9132C34.6986 67.7963 34.6061 67.6851 34.5308 67.6163M34.5308 67.6163L34.8681 67.2472C34.9568 67.3282 35.0496 67.4369 35.1298 67.5362M34.5308 67.6163L35.0069 68.1567M35.1298 67.5362C35.1096 67.5916 35.087 67.645 35.0625 67.6957L35.1812 67.6006L35.1822 67.6019C35.1655 67.5808 35.148 67.5587 35.1298 67.5362ZM35.1298 67.5362C35.1877 67.3773 35.2265 67.2022 35.2376 67.0273C35.2589 66.6916 35.1809 66.2487 34.803 65.9449M34.803 65.9449C34.8027 65.9446 34.8024 65.9444 34.8021 65.9442L34.4892 66.3342L34.803 65.9449ZM34.803 65.9449C34.5218 65.7182 33.9892 65.4699 33.4098 65.5089C33.2689 65.3866 33.1045 65.2841 32.9327 65.2103C32.6635 65.0945 32.3207 65.0261 31.9783 65.1199L31.9778 65.12C31.0691 65.3696 30.2367 65.7998 29.5068 66.3993L29.5067 66.3992L29.4973 66.4073L29.3356 66.547L29.3284 66.5532L29.3214 66.5597C28.8591 66.9908 28.68 67.4773 28.7457 67.9769C28.8051 68.4282 29.0575 68.8161 29.272 69.1022M29.272 69.1022C29.2716 69.1016 29.2712 69.101 29.2707 69.1004L29.6731 68.8036L29.2732 69.1037C29.2728 69.1032 29.2724 69.1027 29.272 69.1022ZM29.272 69.1022C29.3627 69.2246 29.4684 69.3277 29.6105 69.4638L29.8911 69.7675C29.8912 69.7676 29.8912 69.7676 29.8912 69.7677C29.9215 69.8004 29.9516 69.833 29.9816 69.8655C30.1591 70.0576 30.3337 70.2465 30.5086 70.4433C30.2098 71.4379 30.1446 72.4985 30.2747 73.8035C30.2953 74.0154 30.292 74.2381 30.2723 74.4637L30.2722 74.4651C30.2584 74.6288 30.1576 74.8014 29.9133 75.1595L29.9133 75.1594L29.9096 75.1649L29.7016 75.4785L29.7014 75.4784L29.6952 75.4883C29.2617 76.1761 28.863 76.8869 28.4836 77.5933C28.364 77.8129 28.2866 78.1097 28.2872 78.4064C28.2879 78.7036 28.369 79.0741 28.6554 79.3562C28.6562 79.357 28.657 79.3578 28.6578 79.3585L29.0076 79.0013M29.0076 79.0013C28.6876 78.6879 28.768 78.1152 28.9233 77.8314L29.0076 79.0013ZM37.9018 91.3536C36.9625 91.9485 35.9578 92.4345 35.2015 92.7845L35.2003 92.7851C34.7875 92.9747 34.3693 92.9811 34.0922 92.9854L34.0813 92.9855C34.0689 92.9858 34.0571 92.986 34.0456 92.9862C33.9508 92.9881 33.8854 92.9894 33.8232 92.9963C33.6976 93.0106 33.6159 93.0222 33.5474 93.0427L33.2759 93.1356C33.267 93.1387 33.258 93.142 33.2489 93.1452C32.8196 93.2993 32.1203 93.5503 31.3116 93.2304L31.3084 93.2292L31.3084 93.2291C30.9879 93.0998 30.4574 92.8554 30.2357 92.2723L30.2349 92.27C30.0162 91.6864 30.2488 91.157 30.4043 90.8478L30.4058 90.8449C30.6245 90.4168 30.9177 90.0345 31.2999 89.6781C31.5787 89.4181 31.8821 89.1933 32.1813 88.9856L32.1851 88.983C32.2476 88.9404 32.3092 88.8899 32.3743 88.8292C32.4783 88.7322 32.5778 88.621 32.6705 88.5028L32.671 88.5021L33.049 88.0218L33.0503 88.0201C33.1449 87.9009 33.2375 87.7842 33.3279 87.6692C33.0802 87.7194 32.8125 87.7272 32.5417 87.6591C32.2251 87.5808 31.9768 87.3788 31.81 87.1656C31.644 86.9534 31.5212 86.6826 31.5008 86.4065L31.5008 86.4061C31.4809 86.1338 31.5045 85.8719 31.5249 85.6511L34.9539 89.2618C35.2159 89.2 35.4753 89.1223 35.7319 89.0285C35.5761 89.2532 35.4159 89.4779 35.2513 89.7029C36.2262 89.4462 37.1602 88.9831 38.0411 88.3218C38.1446 88.2448 38.2425 88.159 38.3377 88.0702C38.4939 87.9246 38.6447 87.7673 38.7927 87.6098C38.8137 87.5881 38.8348 87.5663 38.8558 87.5446C39.0018 87.3936 39.1476 87.2427 39.2997 87.1009C39.5819 86.8488 39.9545 86.5625 40.4155 86.4664L40.3133 85.977C40.3133 85.977 40.3133 85.9769 40.3134 85.9769C40.6941 85.8975 41.0418 85.9925 41.2868 86.0984C41.5351 86.2057 41.7228 86.3434 41.8077 86.4111L41.808 86.4114L42.0152 86.5769L42.1486 86.6835L42.189 86.8495L42.2909 87.2689L42.3025 87.3168L42.3046 87.366C42.317 87.6629 42.2243 88.0633 41.8406 88.4211L41.8211 88.4393L41.7998 88.4553L40.3038 89.5783L39.6092 90.1128L39.6067 90.1147L39.6038 90.117C39.0645 90.5373 38.504 90.974 37.9018 91.3536ZM37.9018 91.3536C37.9017 91.3537 37.9016 91.3537 37.9015 91.3538L37.6349 90.9308L37.9024 91.3532C37.9022 91.3534 37.902 91.3535 37.9018 91.3536ZM35.7255 75.0643C36.0401 75.366 36.0847 75.9446 35.9286 76.2931C35.4228 77.4266 35.6596 78.599 35.9127 79.8396L35.7255 75.0643ZM36.0008 74.6208C36.0009 74.6209 36.0013 74.6217 36.0018 74.6231C36.001 74.6215 36.0007 74.6208 36.0008 74.6208Z" fill="white" stroke="#00ABCC"/>
<path d="M48.0932 85.3654C47.8359 85.6054 47.5335 85.8178 47.1993 85.9932C46.5294 86.3454 45.8434 86.6654 45.1535 86.9722C44.6492 87.1949 44.1376 87.1353 43.7089 86.8038C43.6987 86.8049 43.5753 86.7948 43.4993 86.7878C42.7237 86.7075 42.1324 86.4552 41.6624 86.0287C41.4042 85.7995 41.3251 85.4255 41.3404 85.1526L41.3514 84.9199L41.5332 84.742C41.5912 84.688 41.653 84.6498 41.7188 84.619L41.6754 83.5556L43.0316 84.3598C43.326 84.5413 43.6132 84.7211 43.919 84.8642C44.4175 85.0946 44.9945 85.096 45.7883 84.8619C45.8334 84.8088 45.8427 84.5832 45.8494 84.474C45.8533 84.3619 45.8669 84.2602 45.8835 84.1558C45.8964 84.0742 45.917 83.9382 45.9055 83.8961C45.6759 83.7125 45.6687 83.4662 45.6658 83.3855C45.6658 83.3855 45.258 80.2286 45.1265 79.2973C44.9414 77.9627 44.7549 76.6294 44.5321 75.3021C44.4046 74.5451 44.2393 73.84 44.0442 73.2044C43.9897 73.0327 43.8316 72.8214 43.6318 72.6518C43.6008 72.6334 43.4668 72.5971 43.3268 72.608C42.881 72.6428 42.486 72.8276 42.1201 73.1688C42.0546 73.2299 41.9905 73.2953 41.9291 73.3636C41.4246 73.923 40.9022 74.502 40.6502 75.2098C40.497 75.639 40.2687 75.9965 39.9727 76.2725C39.5919 76.6276 39.0963 76.8506 38.5019 76.9377L37.9523 77.0164L37.8945 76.6949L36.5256 76.9536L36.9603 75.7558C37.0262 75.5581 37.0807 75.3988 37.1606 75.2519C37.2916 75.0047 37.4505 74.7814 37.627 74.589C38.1966 73.9772 38.2413 73.1902 38.289 72.2782C38.3274 71.5917 38.4753 70.981 38.6169 70.3873C38.6741 70.1504 38.8306 69.4623 38.8602 69.354C38.8885 69.2442 38.9197 69.1345 38.9365 69.0243C38.9864 68.6663 39.1039 68.1451 39.5323 67.7457C39.681 67.607 39.8576 67.4951 40.0578 67.4086C40.2594 67.3207 40.4436 67.1962 40.6306 67.0746C41.0708 66.7893 41.5685 66.467 42.2451 66.4561C42.5647 66.4529 42.9884 66.5166 43.2015 66.8435C43.3653 67.0967 43.3712 67.4221 43.2227 67.8415L42.2075 70.6652C42.7939 70.3547 43.4057 70.1013 44.0915 69.9957C44.634 69.9125 45.3763 69.7959 46.1046 70.1595C46.8896 70.551 47.4199 71.23 47.6803 72.1773C47.9153 73.0316 48.1065 73.9017 48.2659 74.7764L48.312 75.0226C48.6553 76.8937 49 78.7663 49.2753 80.648C49.3905 81.4305 49.3248 82.2398 49.2545 82.9338C49.1567 83.9204 48.7655 84.7385 48.0932 85.3654Z" fill="white" stroke="#00ABCC"/>
<path d="M53.0431 75.4893C53.029 75.5019 53.0151 75.5147 53.0012 75.5276C52.7588 75.7537 52.556 76.0202 52.3948 76.3206L52.2675 76.3182L51.7419 76.3082L51.7583 76.8337L51.7869 77.747L51.7867 77.747L51.7873 77.7573L51.7877 77.7645C51.7982 77.9681 51.8061 78.1203 51.7952 78.2693L51.7951 78.2706C51.7614 78.7478 51.8977 79.2065 52.2941 79.507C52.3055 79.5161 52.317 79.5249 52.3287 79.5333C52.357 79.6854 52.3848 79.8566 52.4137 80.0919L52.4137 80.0919L52.4187 80.1332C52.5059 80.8436 52.5908 81.5349 52.6271 82.2247L52.6271 82.2247L52.6272 82.2273C52.6278 82.2377 52.6284 82.2488 52.629 82.2608C52.6419 82.507 52.6713 83.0687 53.1864 83.4077L53.1871 83.4081C53.7117 83.7523 54.2576 83.545 54.4997 83.453C54.5112 83.4486 54.5221 83.4445 54.5322 83.4407L54.5322 83.4409L54.544 83.4361L54.8067 83.3302L54.8273 83.3219L54.8471 83.3118L54.8495 83.3106C54.9405 83.2641 55.0466 83.2099 55.1588 83.1454L54.9897 83.4994L55.7703 83.5105L56.6685 83.5231C56.6686 83.5231 56.6686 83.5231 56.6687 83.5231C57.0624 83.5293 57.7806 83.4974 58.3397 82.976C58.6624 82.6751 58.8583 82.2805 58.9602 81.8178L58.9606 81.816C59.0176 81.5525 59.0454 81.2874 59.0616 81.038L59.0617 81.0369C59.1419 79.7659 58.9538 78.5413 58.7801 77.4103L58.7728 77.3626L58.7728 77.3626L58.6576 76.6113C58.6562 76.6003 58.6554 76.5888 58.6551 76.5773C58.7234 76.4799 58.7938 76.3835 58.8659 76.2873C58.8968 76.3876 58.9286 76.4905 58.9602 76.593L59.1937 77.3498L59.2695 77.5956L59.2906 77.6642L59.2961 77.6822L59.2976 77.6868L59.2979 77.688L59.298 77.6882L59.298 77.6883L59.7759 77.5411L59.298 77.6883L59.3038 77.7069L59.3109 77.725L59.5383 78.2999L59.721 78.7617L60.1841 78.5821L60.3917 78.5016C60.5849 78.8103 60.776 79.1198 60.9629 79.4305C60.9573 79.4616 60.9518 79.4924 60.9468 79.5205C60.937 79.5755 60.9279 79.6277 60.9212 79.666L60.9133 79.7121L60.9111 79.7249L60.9105 79.7283L60.9103 79.7292L60.9103 79.7294L60.9103 79.7295L60.9103 79.7295L61.4031 79.8139L60.9103 79.7295L60.8826 79.8912L60.9561 80.0379L61.0362 80.1977C61.0363 80.198 61.0364 80.1982 61.0365 80.1985C61.5082 81.1456 62.5913 81.4245 63.5991 81.0771L63.5997 81.0768C65.1857 80.5276 66.5843 79.7414 67.7515 78.7317L67.7515 78.7317L67.7589 78.7251L67.845 78.6476L67.8451 78.6476L67.8515 78.6416C67.993 78.5097 68.1234 78.3696 68.2412 78.2401L68.4157 78.0527L68.4607 78.0043L68.4916 77.9458L68.7181 77.5177L68.8432 77.2812L68.7159 77.0459L68.5158 76.6763L68.4839 76.6174L68.4377 76.569L68.0823 76.1968L67.8699 75.9744L67.5755 76.0637L67.1266 76.1999L67.1249 76.2004C67.0099 76.2343 66.8158 76.2916 66.6153 76.4121C66.0749 76.7354 65.5273 77.0653 64.9903 77.4187L64.9895 77.4193C64.8247 77.5282 64.7191 77.5455 64.6412 77.5387C64.5541 77.5311 64.4215 77.4861 64.2199 77.3265L64.2199 77.3265L64.2168 77.324C63.9572 77.1219 63.8475 76.9632 63.8251 76.9055L63.3589 77.0863M53.0431 75.4893L52.1574 75.8985L51.8153 76.0565L51.5691 75.7712L51.1224 75.2534L51.0368 75.1541L51.0109 75.0255L50.9373 74.6603L50.9278 74.6131L50.9275 74.5649C50.9274 74.5574 50.9273 74.5494 50.9273 74.5412C50.9254 74.3405 50.9217 73.9463 51.1937 73.5913L51.3872 73.3341C51.6568 72.9697 51.9589 72.5676 52.3266 72.2246L52.335 72.2168L52.3351 72.2169C53.0295 71.5986 53.7234 71.1559 54.2422 70.8384C54.6314 70.5983 55.0822 70.4519 55.63 70.3565L55.6307 70.3564C55.8595 70.3169 56.2165 70.3044 56.5744 70.4955C56.9447 70.6934 57.2319 71.0639 57.3955 71.6263L57.3967 71.6303L57.3967 71.6303L57.7371 72.8387C58.5096 72.1803 59.2904 71.7639 60.1615 71.5655L60.1626 71.5652C60.7178 71.44 61.2499 71.4633 61.7108 71.7055C62.1734 71.9487 62.4891 72.373 62.6876 72.9002L62.6877 72.9005C62.8283 73.2743 62.9129 73.6623 62.9888 74.0102L62.9922 74.0257L62.9922 74.0259L62.9982 74.0533C63.0402 74.2455 63.0789 74.4227 63.1269 74.5938L63.1277 74.5967L63.1277 74.5967L63.2515 75.0485L63.2518 75.0497C63.4273 75.6962 63.5973 76.3142 63.8255 76.9066L63.3589 77.0863M53.0431 75.4893L53.578 75.2423L53.7032 75.5747L54.0211 75.4549C53.7716 75.5589 53.5436 75.7056 53.3422 75.8933C53.08 76.1378 52.8695 76.4434 52.7177 76.8037M53.0431 75.4893L52.7177 76.8037M63.3589 77.0863C63.4302 77.2701 63.6252 77.4971 63.9095 77.7185L57.8873 73.3721C58.6713 72.6638 59.4322 72.2444 60.2726 72.053C61.2284 71.8374 61.8826 72.1811 62.2197 73.0764C62.3474 73.4161 62.4256 73.7742 62.5037 74.1323L62.5037 74.1325L62.5107 74.1646C62.5518 74.3528 62.5934 74.5432 62.6455 74.7288L62.7693 75.1807C62.944 75.8242 63.1201 76.4664 63.3589 77.0863ZM52.7177 76.8037L52.7086 76.804L52.7177 76.8037ZM52.601 79.1123C52.3724 78.9417 52.2683 78.6689 52.2939 78.3058C52.3071 78.1251 52.2977 77.9449 52.2878 77.7546C52.2874 77.7469 52.287 77.7391 52.2866 77.7314L52.2737 77.3185L52.2486 77.318L52.2581 76.8181L52.3154 79.4632C52.3052 79.4106 52.295 79.3596 52.2845 79.308L52.4726 79.27L52.601 79.1123ZM52.601 79.1123L52.4852 79.2675L52.7746 79.209C52.7051 79.1821 52.6472 79.1498 52.601 79.1123ZM63.4361 80.6044C64.9684 80.0737 66.31 79.3176 67.4243 78.3535L67.5105 78.276C67.6369 78.1581 67.7565 78.0299 67.8732 77.9015L63.4361 80.6044ZM63.4361 80.6044C62.5986 80.8931 61.8146 80.6398 61.4838 79.975L63.4361 80.6044ZM53.4013 74.7731L53.5376 75.1351L56.9154 71.7659C56.6443 70.8341 56.0487 70.7917 55.7157 70.8491C55.2061 70.9378 54.8216 71.0683 54.504 71.2644C53.9923 71.5775 53.3285 72.0018 52.6676 72.5903C52.3374 72.8982 52.0598 73.2656 51.788 73.6331L51.5918 73.8939C51.4245 74.1111 51.426 74.3543 51.4274 74.5616L51.501 74.9268L51.9477 75.4445L53.4013 74.7731ZM68.2761 77.2839L68.0497 77.712L67.7207 76.5422L68.0761 76.9143L68.2761 77.2839Z" fill="white" stroke="#00ABCC"/>
<path d="M72.1593 80.2221L72.1604 80.2217C72.4557 80.0968 72.7334 79.9376 72.9813 79.7955L72.9903 79.7903L72.9927 79.7889L73.256 79.6398L73.3075 79.6107L73.3507 79.5704L73.4012 79.5232L73.4468 79.4808L73.4805 79.4285L73.6828 79.1147L73.7784 78.9665L73.7598 78.7911L73.7295 78.5051L73.7295 78.505C73.695 78.1796 73.6488 77.8552 73.6041 77.5411L73.6036 77.5376L73.6035 77.5371C73.5063 76.859 73.4239 76.2703 73.4438 75.7016L73.4438 75.7012C73.4957 74.1735 73.5935 72.6432 73.6918 71.1072L73.6919 71.1055C73.707 70.8569 73.7224 70.6078 73.7378 70.3583C73.7883 69.5437 73.8389 68.725 73.8786 67.9061C73.9031 67.4181 74.0311 67.1592 74.216 66.9867C74.3197 66.8901 74.4626 66.7984 74.6701 66.7136L74.6721 66.7127C75.2173 66.487 75.7073 66.1772 76.1227 65.7899C76.5209 65.4186 76.8505 64.9767 77.1006 64.4801C77.2867 64.1128 77.4468 63.46 77.0597 62.9103L77.0593 62.9098C76.9237 62.7178 76.7359 62.5679 76.4921 62.4827C76.4353 62.4629 76.377 62.4471 76.3175 62.435L76.3748 62.3625L76.3284 62.1347L76.165 61.3332L76.0922 60.9762L75.73 60.9361L75.3137 60.8901C75.3134 60.8901 75.313 60.89 75.3127 60.89C75.2693 60.8849 75.2155 60.8744 75.1464 60.8586L75.1464 60.8585L75.1369 60.8565C75.1298 60.855 75.1225 60.8535 75.115 60.8519C74.8736 60.8013 74.45 60.7126 73.999 60.8602L73.9969 60.8609C73.2816 61.0987 72.5897 61.4039 71.8704 61.7212L71.8086 61.7484L71.8086 61.7484L71.8044 61.7503C71.4807 61.8967 71.1868 62.0817 70.9391 62.3126C70.5586 62.6675 70.3027 63.1106 70.1852 63.6207L70.0713 64.097C70.0713 64.0972 70.0712 64.0974 70.0712 64.0976C69.9403 64.6396 69.81 65.1832 69.6597 65.8589C69.0474 66.2097 68.4508 66.5888 67.7249 67.0736L67.6912 67.0961L67.6615 67.1237C67.4391 67.3312 67.312 67.5729 67.2458 67.7213L67.2458 67.7213L67.2443 67.7247C66.9569 68.3819 67.1547 68.8804 67.3361 69.1381L67.3361 69.1382L67.3385 69.1415C67.5155 69.3885 67.9125 69.7406 68.6059 69.6839C68.925 69.6594 69.2374 69.6107 69.5392 69.5394L69.5411 69.5579L69.6494 70.6581L69.7379 71.557L69.9009 71.431C69.8849 71.8382 69.8576 72.2309 69.8048 72.6163L69.761 72.62L69.3141 72.6578L69.3034 73.1063L69.2288 76.232L69.2279 76.2704L69.2328 76.3086L69.3044 76.8565L69.3567 77.2573L69.7596 77.2901L69.7619 77.2903C69.7974 77.5425 69.8355 77.7948 69.8776 78.0466L69.8776 78.0468C69.9456 78.453 70.0913 78.8406 70.2724 79.3126C70.4669 79.8321 70.799 80.1019 71.0857 80.2253L71.087 80.2259C71.4299 80.3724 71.8125 80.3677 72.1593 80.2221Z" fill="white" stroke="#00ABCC"/>
<path d="M93.2277 80.9261L93.2268 80.9264C92.776 81.037 92.3272 80.9678 91.9566 80.7327C91.5886 80.4992 91.3295 80.123 91.2097 79.6727C91.0616 79.1181 91.0065 78.554 91.0559 78.0406L91.056 78.0397C91.2011 76.5599 91.3505 75.0644 91.5858 73.5794L91.5859 73.5788C91.6952 72.8935 91.8407 72.2165 91.9845 71.5524C92.1396 70.8328 92.2903 70.133 92.3918 69.4301C92.5757 68.1467 92.7624 66.6575 92.765 65.177L93.2277 80.9261ZM93.2277 80.9261L93.788 80.7874L94.2734 80.6672L94.1532 80.1819L94.0147 79.6225C94.0147 79.6224 94.0146 79.6222 94.0146 79.6221C93.9733 79.4539 93.9247 79.2932 93.8787 79.1469C93.7912 78.8571 93.7503 78.7096 93.7493 78.6021L93.7493 78.6003C93.7391 77.8082 93.781 77.0562 93.8759 76.3607L93.8761 76.359C94.0399 75.1268 94.2231 73.8962 94.407 72.6612C94.4285 72.5172 94.4499 72.3731 94.4714 72.2289L94.4714 72.2288L94.7743 70.1889L94.7743 70.1889L94.7749 70.1849L95.0469 68.2461L95.0471 68.2447C95.2325 66.897 95.4164 65.5601 95.6497 64.2337L95.6497 64.2335C96.0124 62.1668 96.4608 60.0734 96.9202 57.9969L96.9204 57.9961C97.1099 57.1323 97.2694 56.4452 97.6776 55.8954L97.6784 55.8943C97.965 55.5059 98.0307 55.0023 97.8708 54.5496C97.7057 54.0797 97.3247 53.7127 96.8366 53.5857L96.8363 53.5856C96.1704 53.4128 95.3605 53.6579 94.8495 54.1343C94.6774 54.2948 94.5345 54.4829 94.4399 54.7041C94.253 55.1297 94.1233 55.5594 94.0539 55.984L94.0536 55.9856C93.9771 56.4633 93.9123 56.9429 93.8498 57.4153C93.8398 57.488 93.8298 57.5605 93.8199 57.6327C93.7436 58.1893 93.6692 58.7318 93.5707 59.2711C93.4997 59.6531 93.3966 60.0319 93.2863 60.437L93.2827 60.4503L93.2824 60.4513L93.2704 60.4957C93.1626 60.8947 93.0488 61.316 92.9666 61.748L92.9664 61.7491C92.7705 62.7902 92.7679 63.833 92.7655 64.7909L92.7654 64.8366L92.7654 64.8374L92.765 65.1766L93.2277 80.9261Z" fill="white" stroke="#00ABCC"/>
<path d="M82.7899 76.8014L82.7815 76.8079C82.3649 77.1288 81.9132 77.4573 81.4251 77.7275C81.4249 77.7276 81.4246 77.7278 81.4244 77.7279L81.1823 77.2904C80.6114 77.6086 80.0241 77.9032 79.4368 78.1979L82.7899 76.8014ZM82.7899 76.8014L82.798 76.7946L82.8885 76.7186L82.8983 76.7103L82.9078 76.7015C83.5074 76.1423 83.5365 75.2848 83.0026 74.6719C82.7575 74.3885 82.4372 74.2017 82.0701 74.1626C81.7063 74.1239 81.3513 74.236 81.0402 74.4478M82.7899 76.8014L81.0402 74.4478M77.8737 78.6393L77.7388 78.6523M77.8737 78.6393L80.3419 75.5185C80.3332 75.5243 80.3246 75.53 80.3159 75.5358C80.1489 75.647 79.9924 75.7512 79.844 75.8076C79.2038 76.0515 78.5252 75.9946 77.8296 75.6394C77.3744 75.4048 76.6661 75.2505 75.8723 75.8545C75.788 75.9192 75.7079 75.9884 75.6291 76.0619C75.4253 76.2519 75.2393 76.467 75.0577 76.6837L74.8596 76.9157C74.6483 77.1572 74.6422 77.4966 74.7009 77.7116C74.8357 78.2199 75.5754 78.8343 76.1726 78.7919C76.6962 78.7569 77.2175 78.7046 77.7388 78.6523M77.8737 78.6393L77.8739 78.6399L77.7398 78.6626L77.7388 78.6523M77.8737 78.6393L77.7398 78.6626L77.7388 78.6523M81.0402 74.4478L80.065 75.1022C80.0647 75.1024 80.0644 75.1025 80.0642 75.1027C79.8684 75.2329 79.7574 75.3056 79.6664 75.3402L79.6661 75.3403C79.1775 75.5264 78.6467 75.4951 78.0578 75.1945C77.7779 75.0504 77.4044 74.9226 76.9665 74.9326C76.5212 74.9428 76.0449 75.0949 75.5695 75.4566L75.5695 75.4566L75.5679 75.4579C75.4684 75.5342 75.3761 75.6141 75.2881 75.6962C75.0607 75.9083 74.8584 76.1432 74.676 76.3607L74.4811 76.589C74.1247 76.9986 74.1334 77.5295 74.218 77.8415C74.3244 78.2403 74.6332 78.6054 74.9592 78.8552C75.286 79.1056 75.7391 79.3235 76.2069 79.2907C76.6301 79.2624 77.051 79.2231 77.4666 79.182L81.0402 74.4478ZM77.8869 78.6928L77.892 78.7455L77.9295 79.1363L77.7876 79.1499L77.8869 78.6928ZM77.8869 78.6928L77.8996 78.7442L78.3926 78.6608L78.3864 78.6242L78.5847 78.5753L77.8869 78.6928Z" fill="white" stroke="#00ABCC"/>
<path d="M43.4959 80.8827C43.1003 81.2516 42.5766 81.5369 41.8882 81.759C41.7107 81.8161 41.5319 81.866 41.3518 81.9143C40.8709 82.0458 40.4118 82.1708 40.0651 82.4579C39.7421 82.7229 39.2759 82.5987 39.0602 82.43L38.9847 82.367L38.7774 82.6993L38.2427 82.0245L37.7283 81.2611C37.4058 80.7722 37.7452 80.0357 38.1155 79.6904L38.3078 79.5417C38.8611 79.1898 39.4324 78.86 40.0048 78.5404C40.2249 78.4186 40.5734 78.3272 40.8935 78.4319C41.602 78.6638 42.31 78.9102 43.0194 79.158L44.353 79.619L44.0183 80.2203C43.8818 80.4644 43.7071 80.6857 43.4959 80.8827Z" fill="white" stroke="#00ABCC"/>
<path d="M93.404 85.6336L93.404 85.6336L93.4062 85.6326C93.7591 85.4657 94.0797 85.2484 94.3539 85.0612L95.4582 84.3496L96.1386 83.9111L95.442 83.4989L94.2351 82.7849C93.9212 82.5936 93.6207 82.4132 93.3121 82.2504C92.9562 82.0586 92.3703 81.9433 91.8657 82.2162L91.8657 82.2162L91.8631 82.2176C91.1739 82.5956 90.491 82.9919 89.6733 83.5282L89.6377 83.5516L89.6065 83.5806C89.386 83.7862 89.2576 84.0304 89.1557 84.224C89.1528 84.2295 89.1499 84.235 89.147 84.2404C88.9153 84.6683 88.8671 85.1767 89.0622 85.6283C89.2476 86.0617 89.6281 86.3679 90.0813 86.4867L90.0822 86.4869C90.4982 86.5952 90.977 86.5751 91.3846 86.4327L91.3857 86.4323C92.0548 86.1968 92.7415 85.943 93.404 85.6336Z" fill="white" stroke="#00ABCC"/>
<path d="M78.7224 70.8411C78.6004 70.9548 78.4574 71.052 78.2831 71.1395C78.1162 71.2229 77.9437 71.3003 77.774 71.3778C77.5606 71.474 77.3486 71.5687 77.1462 71.6797C76.954 71.7866 76.7711 71.9126 76.5883 72.0386L76.2522 72.2686C75.6015 72.6891 74.7932 73.212 73.7553 73.2233L73.6834 73.2236L73.4189 73.1755L72.878 73.0458L72.8806 72.4761C72.9466 72.1532 73.1609 71.8254 73.5358 71.4759C74.6796 70.4093 77.3163 69.1991 78.6476 69.3564L79.2236 69.4254L79.1532 70C79.1114 70.3309 78.9663 70.6136 78.7224 70.8411Z" fill="white" stroke="#00ABCC"/>
<path d="M67.1836 119.086C66.8325 119.414 66.4154 119.781 65.8991 119.978C65.326 120.196 64.7345 120.364 64.143 120.531C63.5528 120.701 62.9628 120.867 62.3937 121.092C61.9649 121.258 61.561 121.574 61.1321 121.907L60.7846 122.176C60.5762 122.331 60.3802 122.505 60.1857 122.678C59.8723 122.957 59.5562 123.232 59.206 123.453C58.6924 123.779 58.1245 123.972 57.5741 124.157C57.0657 124.334 56.5698 124.115 56.3393 123.832C56.12 123.561 56.1519 123.184 56.4375 122.709C56.5888 122.456 56.7738 122.228 56.988 122.029C57.3063 121.732 57.6976 121.486 58.1882 121.282C58.4861 121.157 58.7362 121.002 58.9355 120.816C59.169 120.598 59.3349 120.341 59.4451 120.026C59.5732 119.654 59.8237 119.281 60.1479 118.979L60.3558 118.796C60.7098 118.466 60.927 118.013 61.1582 117.534C61.2993 117.243 61.401 117.01 61.4906 116.793L61.2949 116.833L61.0518 116.417L60.7987 115.836C60.5382 116.168 60.3998 116.422 60.4347 116.784C60.4661 117.119 60.2743 117.462 60.069 117.654C59.6839 117.927 59.4069 118.071 59.1256 118.217L58.4261 118.591L58.1209 118.266C57.7393 117.86 57.6669 117.422 57.8985 116.928C57.9933 116.728 58.0654 116.516 58.1404 116.304C58.3229 115.778 58.5322 115.183 59.0311 114.698C59.0893 114.641 59.1389 114.578 59.1886 114.515C59.2759 114.406 59.3659 114.299 59.4671 114.205C59.6723 114.014 59.7351 113.866 59.5973 113.525C59.5111 113.316 59.4453 113.099 59.3794 112.883C59.1009 113.317 58.7779 113.708 58.4165 114.045C58.0134 114.421 57.5548 114.737 57.0525 114.989C56.7655 115.131 56.4591 115.211 56.189 115.279L55.9683 115.338C55.704 115.406 55.3192 115.34 55.1299 115.074C55.1006 115.212 55.0699 115.35 55.0378 115.488C54.7677 116.71 54.5291 117.939 54.2905 119.169C54.236 119.45 54.1054 119.689 53.9046 119.876C53.7306 120.038 53.5359 120.134 53.3778 120.209C53.2827 120.256 53.1905 120.3 53.1415 120.343L52.8282 120.618L52.0585 120.163L52.0826 119.637C52.1778 119.301 52.2387 119.083 52.3838 118.883C52.9321 118.138 53.0152 117.243 53.0235 116.388C53.0329 115.375 53.3015 114.36 53.8413 113.283C54.2434 112.483 54.3781 111.593 54.2517 110.554C54.0907 109.23 54.1907 108.18 54.5627 107.252C54.9408 106.316 55.1549 105.334 55.2012 104.337C55.2035 104.274 55.1619 104.146 55.1241 104.034C55.0864 103.919 55.0486 103.804 55.0239 103.688L54.9721 103.483C54.9046 103.232 54.8297 102.946 54.8637 102.631C54.986 101.518 55.2152 100.064 55.9065 98.6882C56.0435 98.0599 56.2944 97.5923 56.7198 97.1957C57.0708 96.8683 57.4787 96.6437 57.8748 96.4273L58.2476 96.2187C58.8132 95.8859 59.5195 95.9753 60.047 96.4456C60.8762 97.1768 61.7037 97.9151 62.5164 98.6672C63.0237 99.1368 63.3343 99.7203 63.4429 100.403C63.8084 101.308 63.688 101.996 63.1763 102.473C63.0142 102.624 62.814 102.753 62.5818 102.85C62.329 102.96 62.1976 103.016 62.0624 103.056C61.8311 103.127 61.1214 103.341 60.4808 102.69C59.9388 102.139 59.376 101.61 58.8146 101.079L58.4357 100.721C57.9976 102.264 57.2639 105.473 56.7817 107.866C56.939 107.689 57.1076 107.518 57.2891 107.349C57.4795 107.171 57.6796 107.001 57.8883 106.837C57.9447 106.787 57.9938 106.742 58.0369 106.701C58.1842 106.564 58.2619 106.48 58.3411 106.395L58.7127 106.016C59.6527 105.139 60.8064 104.697 61.7057 104.409L61.8091 104.374L62.0801 104.36C62.2237 104.368 62.3269 104.422 62.3975 104.459L63.0647 104.805L62.6495 105.403C62.4246 105.663 62.3331 105.768 62.235 105.859C62.2064 105.894 62.26 106.008 62.3151 106.121C62.374 106.247 62.4343 106.374 62.5079 106.492C62.8541 107.045 62.8849 107.687 62.5903 108.253C62.3002 108.813 62.2451 109.401 62.4192 110.104C62.4759 110.334 62.521 110.568 62.5646 110.802C62.5891 110.924 62.6135 111.049 62.6381 111.17C63.0336 111.01 63.4057 110.863 63.7888 110.77C64.2706 110.655 64.7303 110.757 65.048 111.056C65.3852 111.373 65.5235 111.861 65.4272 112.393C65.2371 113.468 64.8615 114.458 64.3143 115.336C63.5752 116.517 62.8078 117.683 62.0419 118.848L61.7408 119.309C62.964 118.689 64.1179 118.241 65.3012 117.939C65.4624 117.897 65.6495 117.772 65.8484 117.64C66.0045 117.536 66.1607 117.432 66.3248 117.348C66.5138 117.25 66.706 117.226 66.8448 117.208L67.4851 117.129L67.6489 117.752C67.6976 118.171 67.7474 118.558 67.4544 118.831L67.1836 119.086ZM55.7934 112.022C55.6814 112.633 55.5443 113.264 55.3967 113.905C55.4817 113.82 55.5694 113.738 55.6558 113.655C55.8658 113.451 56.0786 113.249 56.2635 113.024C56.5941 112.621 56.8926 112.193 57.1896 111.763C57.1896 111.763 57.4455 111.399 57.4788 111.351C57.1896 111.474 56.8979 111.587 56.6032 111.701C56.3334 111.805 56.0607 111.909 55.7934 112.022Z" fill="white" stroke="#00ABCC"/>
<path d="M95.7684 111.961C95.3132 112.385 94.7685 112.779 94.1045 113.168C92.8881 113.882 91.8361 113.392 90.9922 112.997C90.6965 112.853 90.5849 112.793 90.4667 112.758L90.1249 112.821L89.7978 112.629C89.2699 111.964 88.9506 111.136 88.8728 110.232C88.7709 109.07 88.6661 107.908 88.5398 106.747C88.5182 106.542 88.478 106.332 88.4189 106.128C88.2935 106.217 88.1824 106.31 88.0782 106.407C87.5755 106.876 87.1937 107.465 86.7878 108.089C86.726 108.21 86.7469 108.394 86.7589 108.502L86.7855 108.772L87.1585 114.737C87.1774 115.061 87.0088 115.357 86.8475 115.524L86.8267 115.544C86.1842 116.143 85.5349 116.44 84.6646 116.598L84.0332 116.711L83.958 115.691C83.9144 115.087 83.8716 114.498 83.8028 113.914C83.6887 114.132 83.5648 114.342 83.4239 114.546C83.3208 114.695 83.2009 114.834 83.0685 114.958C82.5717 115.421 81.9061 115.691 80.911 115.838L80.3657 115.918L80.2001 115.055C80.146 114.791 80.0934 114.526 80.0525 114.255L79.8896 113.15C79.8089 112.578 79.7253 112.005 79.6286 111.436C79.4742 110.543 79.7521 109.714 80.4095 109.101C80.5761 108.945 80.7697 108.798 80.9843 108.67C81.2988 108.483 81.6228 108.311 81.9468 108.14L82.5685 107.807C82.4821 107.438 82.4 107.069 82.3179 106.701C82.1809 106.092 82.0425 105.481 81.8939 104.874C81.7943 104.469 81.5889 104.377 81.3817 104.337C81.0285 104.271 80.7369 104.009 80.6394 103.669C80.5522 103.367 80.6337 103.052 80.8553 102.845L81.3522 102.501C81.9196 102.12 82.5075 101.724 83.1764 101.484C83.6791 101.305 84.2176 101.337 84.6957 101.572C85.2178 101.828 85.6254 102.309 85.8166 102.893C86.0208 103.515 86.1551 104.16 86.2894 104.805L86.3982 105.318C86.4306 105.296 86.8822 105.014 86.8822 105.014C87.6382 104.545 88.3928 104.075 89.1678 103.639C89.5464 103.428 89.9755 103.336 90.3851 103.269C90.9625 103.175 91.3391 103.352 91.5535 103.517C91.7623 103.678 92.0222 103.983 92.0749 104.535C92.1212 105.02 92.1388 105.507 92.1592 105.994C92.175 106.446 92.1923 106.9 92.2326 107.352C92.3261 108.383 92.4557 109.41 92.6245 110.429C92.6745 110.727 92.8198 111.14 93.2346 111.418C93.5889 111.657 93.9334 111.639 94.2569 111.36L95.3243 110.378C95.5602 110.175 95.8466 110.091 96.0712 110.046L97.5152 109.737L96.663 110.943C96.4012 111.309 96.109 111.643 95.7684 111.961Z" fill="white" stroke="#00ABCC"/>
<path d="M74.7084 116.275C74.4437 116.522 74.1211 116.736 73.7509 116.912C73.4758 117.043 73.1912 117.156 72.8907 117.275L71.8646 117.689L71.3741 115.624L72.0673 115.592L71.8748 114.059C71.8193 113.34 71.7638 112.622 71.6925 111.904L71.6336 111.283C71.4579 109.473 71.2838 107.661 71.0532 105.857C70.9434 105.006 70.6325 104.267 70.1268 103.665C69.7469 103.213 69.5886 103.171 69.0018 103.368C68.7295 103.461 68.5034 103.591 68.3174 103.764C67.9932 104.067 67.7737 104.502 67.6062 105.175C67.4423 105.832 67.2413 106.478 67.0318 107.121C66.9444 107.397 66.7965 107.635 66.5913 107.827C66.3831 108.021 66.122 108.161 65.8126 108.244C65.6833 108.281 65.291 108.388 64.9945 108.103C64.7967 107.915 64.7355 107.649 64.8105 107.313C64.8426 107.177 64.8662 107.038 64.884 106.899C64.7955 106.918 63.6527 107.133 63.6527 107.133L63.7285 106.364C63.7369 106.206 63.7425 106.087 63.8017 105.956L63.9309 105.677C64.258 104.964 64.596 104.226 65.2296 103.635C65.3933 103.482 65.5736 103.345 65.778 103.218L65.7795 103.217C66.0859 102.931 66.2346 102.136 66.1023 101.887C65.8432 101.394 65.8709 100.929 65.8939 100.518C65.9471 99.5732 66.0164 98.6993 66.3288 97.8295L66.4923 97.3935C66.5811 97.1577 66.6713 96.9234 66.7487 96.6844C66.838 96.3925 66.9936 96.1418 67.2063 95.9435C67.3788 95.7826 67.5876 95.6546 67.8429 95.5556L68.6398 95.2323C68.9829 95.0932 69.3245 94.9526 69.6729 94.8223C69.9924 94.6997 70.4756 94.7885 70.6845 95.1109C70.8923 95.4261 70.7661 95.7829 70.7069 95.9549L68.928 100.867C68.869 101.031 68.8158 101.194 68.7654 101.361C68.8238 101.337 68.8836 101.315 68.9435 101.289C69.3683 101.116 69.8076 100.94 70.2936 100.867C71.0631 100.753 71.8888 100.759 72.6789 100.882C73.3716 100.989 74.2836 101.451 74.6959 103.036C75.0562 104.421 75.2823 105.651 75.3834 106.794C75.5189 108.272 75.5764 109.756 75.6353 111.242L75.6964 112.706C75.7143 113.101 75.6991 113.496 75.6824 113.89C75.6403 114.972 75.3153 115.709 74.7084 116.275Z" fill="white" stroke="#00ABCC"/>
<path d="M118.721 111.137C118.552 111.295 118.328 111.395 118.062 111.435L116.73 111.689L116.77 110.462C116.785 110.092 116.798 109.74 116.796 109.386C116.795 109.185 116.777 108.984 116.759 108.782C116.743 108.607 116.728 108.433 116.722 108.257C116.711 107.998 116.712 107.739 116.712 107.48L116.713 107.167C116.709 106.206 116.756 105.102 117.379 104.169C117.697 103.693 117.802 103.185 117.859 102.57C117.884 102.304 117.826 101.997 117.764 101.671L117.708 101.367C117.677 101.182 117.635 100.999 117.594 100.815C117.533 100.544 117.473 100.277 117.438 100.004C117.411 99.7896 117.436 99.5991 117.456 99.4301C117.469 99.3269 117.482 99.2281 117.476 99.1588C117.354 97.7343 117.487 96.4424 117.883 95.2144C118.015 94.8046 118.068 94.3518 118.121 93.8715L118.26 92.813C118.403 91.8093 118.545 90.807 118.656 89.7993C118.693 89.4451 118.685 89.0405 118.626 88.5233C118.573 88.0307 118.764 87.7381 118.935 87.5786C119.073 87.4496 119.249 87.3579 119.458 87.3134C119.9 87.2152 120.347 87.1516 120.796 87.0867C121.616 86.97 122.091 87.3161 122.251 87.9879C122.639 89.6505 122.644 91.3386 122.265 93.0047C122.099 93.7356 121.957 94.4717 121.811 95.2077C121.682 95.868 121.552 96.5283 121.407 97.1837C121.233 97.969 121.047 98.7511 120.859 99.533C120.68 100.281 120.5 101.03 120.334 101.78L120.169 102.515C119.902 103.699 119.626 104.921 119.446 106.126C119.291 107.171 119.226 108.228 119.157 109.284L119.093 110.245C119.067 110.637 118.944 110.929 118.721 111.137Z" fill="white" stroke="#00ABCC"/>
<path d="M97.769 99.5086C97.9184 98.5684 98.1008 97.6308 98.323 96.7061C98.397 96.4008 98.5531 96.1357 98.7866 95.9179C99.0722 95.6516 99.4199 95.4997 99.7268 95.3665L99.9972 95.2451M97.769 99.5086L101.099 109.487C101.103 108.285 101.138 107.079 101.21 105.877C101.277 104.733 101.363 103.592 101.449 102.448L101.45 102.427L101.605 100.261M97.769 99.5086C97.7431 99.6746 97.7135 99.7383 97.6615 99.7869C97.6503 99.7972 97.6381 99.8065 97.6251 99.8163C97.6173 99.8222 97.6091 99.8284 97.6008 99.8351M97.769 99.5086L95.9759 100.708C96.5146 100.406 97.053 100.11 97.6008 99.8351M99.9972 95.2451L100.009 95.2398C100.483 95.0246 101.019 94.7809 101.704 94.7463L102.282 94.7164L102.532 94.3831L102.932 94.6827L102.958 95.1821L102.542 95.2036L102.194 95.6686C101.888 96.0767 101.827 96.5063 101.823 97.0117C101.974 96.9079 102.145 96.8031 102.336 96.7132M99.9972 95.2451L99.7905 94.7898L99.5248 94.9091L99.5104 94.9154C99.2135 95.0442 98.7963 95.2252 98.4456 95.5523C98.1419 95.8354 97.9345 96.1862 97.8371 96.5884L97.8369 96.5893C97.6113 97.5281 97.4264 98.4786 97.2752 99.4301L97.275 99.4314C97.2746 99.4344 97.2741 99.4373 97.2736 99.4401C96.7509 99.705 96.2383 99.9876 95.7314 100.272L95.7312 100.272C95.5564 100.37 95.3996 100.484 95.2644 100.61L95.2463 100.627L95.2299 100.645L95.0396 100.862L95.0244 100.879L95.0108 100.898C94.9553 100.974 94.8502 101.135 94.7713 101.349C94.6926 101.561 94.6287 101.857 94.6978 102.184L94.7122 102.252L94.7448 102.314L94.9661 102.733L95.0581 102.907L95.2443 102.972L95.5486 103.078L95.5773 103.088L95.6071 103.094L95.997 103.178L96.1013 103.201L96.2056 103.179L96.3637 103.145L96.3637 103.145L96.3664 103.145C96.743 103.063 97.1435 102.971 97.5376 102.84C97.538 102.855 97.5383 102.869 97.5386 102.884L97.557 104.169L97.5577 104.22L97.5684 104.269L97.8313 105.475L98.0403 106.434L98.3394 106.098M99.9972 95.2451L99.7923 94.789L99.7914 94.7894C99.8008 94.7851 99.8102 94.7808 99.8197 94.7765C100.288 94.5637 100.898 94.2865 101.678 94.247L101.678 94.247L101.704 94.7463L101.679 94.247L102.906 94.1834L103.972 94.1282L103.332 94.9824L102.594 95.9682L102.594 95.9685C102.43 96.1872 102.361 96.411 102.336 96.7132M102.336 96.7132C102.322 96.8768 102.321 97.0633 102.325 97.2844C102.707 97.06 103.164 96.8974 103.745 96.9833L103.922 97.0105L103.95 96.9292L104.424 97.0875L104.348 97.5817L104.263 97.5687L104.207 97.7376M102.336 96.7132C102.736 96.5246 103.226 96.4011 103.819 96.4886L103.821 96.4891L103.821 96.4891L104.5 96.5933L105.086 96.6834L104.898 97.2458L104.691 97.8667M104.207 97.7376L104.204 97.7494C104.167 97.9334 104.119 98.1673 103.927 98.3465L103.644 98.5741M104.207 97.7376L104.697 97.8381C104.695 97.8468 104.693 97.8561 104.691 97.866C104.691 97.8662 104.691 97.8665 104.691 97.8667M104.207 97.7376L104.681 97.8959L104.691 97.8667M103.644 98.5741C103.078 99.0321 102.507 99.4898 101.893 99.8756M103.644 98.5741L103.958 98.9627L104.24 98.7361L104.254 98.7246L104.268 98.7122C104.579 98.4215 104.655 98.0467 104.691 97.8667M103.644 98.5741L103.957 98.9636L103.958 98.9632C103.395 99.4187 102.803 99.8939 102.162 100.297M101.893 99.8756C101.826 99.9193 101.767 99.9604 101.717 100.006C101.65 100.069 101.615 100.124 101.605 100.261M101.893 99.8756L102.164 100.296C102.163 100.296 102.163 100.297 102.162 100.297M101.893 99.8756L102.159 100.299C102.16 100.298 102.161 100.298 102.162 100.297M101.605 100.261L101.98 100.288L102.101 100.297M101.605 100.261L101.982 100.29L102.1 100.299C102.098 100.305 102.095 100.312 102.092 100.32C102.083 100.339 102.072 100.354 102.064 100.365C102.061 100.368 102.06 100.37 102.058 100.372C102.055 100.376 102.054 100.376 102.058 100.372C102.067 100.364 102.08 100.353 102.101 100.339M102.101 100.297L100.952 112.049M102.101 100.297C102.104 100.287 102.105 100.281 102.105 100.281C102.105 100.281 102.104 100.287 102.104 100.298C102.104 100.299 102.103 100.299 102.103 100.3L102.101 100.339M102.101 100.297L98.3394 106.098M102.101 100.339L101.949 102.463L101.949 102.465L101.947 102.483C101.862 103.629 101.776 104.767 101.709 105.906L101.709 105.907C101.638 107.098 101.603 108.295 101.599 109.489L101.599 109.49C101.596 110.113 101.661 110.442 101.9 110.756L101.9 110.756L102.396 111.411L102.827 111.979L102.147 112.191L101.371 112.433M102.101 100.339C102.116 100.328 102.136 100.314 102.162 100.297M101.371 112.433L101.379 112.43L101.214 111.958L101.363 112.435L101.371 112.433ZM101.371 112.433L101.12 112.52M101.12 112.52C101.121 112.52 101.123 112.519 101.124 112.519L100.952 112.049M101.12 112.52C101.11 112.524 101.1 112.527 101.09 112.531C100.87 112.613 100.568 112.724 100.215 112.737C99.3219 112.775 98.573 112.168 98.5157 111.262L98.4625 110.535L98.4623 110.533L98.4619 110.528C98.4088 109.849 98.3526 109.13 98.3866 108.415C98.4258 107.59 98.4096 106.823 98.3394 106.098M101.12 112.52L101.116 112.522L100.952 112.049M100.952 112.049L98.3394 106.098M97.6008 99.8351L97.292 99.4527L97.6008 99.8351Z" fill="white" stroke="#00ABCC"/>
<path d="M69.6044 110.417C69.4051 110.602 69.1647 110.768 68.8451 110.938C67.323 111.751 65.8738 111.387 64.3955 110.905C63.7994 110.71 63.6367 110.342 63.592 110.139C63.5237 109.827 63.6357 109.506 63.899 109.26C64.6667 108.703 65.3204 108.319 65.9756 107.936L66.359 107.712C66.644 107.543 67.0174 107.565 67.2615 107.663C67.9497 107.941 68.6359 108.233 69.3207 108.526L69.7503 108.709L70.2838 109.049L70.1991 109.539C70.0663 109.88 69.8721 110.167 69.6044 110.417Z" fill="white" stroke="#00ABCC"/>
<path d="M112.997 106.357L112.997 106.357L112.934 106.41C111.966 107.217 110.945 108.069 109.856 108.812L109.856 108.812C108.778 109.545 107.584 110.08 106.474 110.577L106.469 110.579L106.469 110.579C105.827 110.866 105.308 110.884 104.915 110.898C104.907 110.898 104.899 110.898 104.891 110.898L104.527 110.915C104.196 110.941 103.936 110.824 103.815 110.77C103.81 110.768 103.805 110.765 103.8 110.763L103.798 110.762L103.798 110.762L102.966 110.386L102.367 110.115L102.789 109.61L103.335 108.956L103.362 108.924L103.393 108.898L103.662 108.666C103.672 108.657 103.683 108.648 103.693 108.639C104.392 108.033 105.341 107.21 106.823 107.325C106.824 107.325 106.829 107.325 106.841 107.324C106.854 107.323 106.872 107.321 106.895 107.316C106.941 107.306 106.999 107.288 107.066 107.261C107.202 107.207 107.353 107.123 107.492 107.019L112.997 106.357ZM112.997 106.357L114.081 105.452L114.091 105.444L114.101 105.434C114.562 105.004 114.781 104.472 114.731 103.85L114.731 103.85L114.652 102.876L114.582 102.029L113.875 102.501L112.76 103.246L112.76 103.246L112.756 103.249C112.746 103.255 112.737 103.262 112.727 103.268C112.565 103.379 112.445 103.461 112.239 103.549C112.072 103.582 111.781 103.648 111.51 103.86C111.069 104.204 110.633 104.552 110.199 104.898C110.117 104.964 110.036 105.029 109.954 105.094L109.954 105.094M112.997 106.357L109.954 105.094M109.954 105.094L109.945 105.101M109.954 105.094L109.945 105.101M109.945 105.101C109.13 105.753 108.321 106.4 107.492 107.019L109.945 105.101Z" fill="white" stroke="#00ABCC"/>
<path d="M107.58 104.969L107.58 104.969C106.967 105.541 106.227 105.907 105.436 106.013L107.58 104.969ZM107.58 104.969L107.589 104.96M107.58 104.969L107.589 104.96M107.589 104.96L107.756 104.796L107.816 104.738L107.853 104.663L108.023 104.324L108.089 104.192L108.073 104.045L107.988 103.274L107.939 102.835L107.498 102.829L106.991 102.821L106.989 102.821C106.896 102.82 106.802 102.811 106.685 102.801C106.67 102.799 106.655 102.798 106.639 102.796L106.639 102.796L106.636 102.796C106.623 102.795 106.61 102.794 106.597 102.793C106.259 102.764 105.782 102.724 105.302 102.869C104.426 103.129 103.5 103.485 102.393 103.972L102.393 103.972L102.39 103.973C102.166 104.074 101.961 104.215 101.764 104.398C101.628 104.524 101.501 104.669 101.281 104.917C101.276 104.923 101.271 104.929 101.265 104.935C101.083 105.135 100.949 105.423 100.907 105.72C100.862 106.026 100.908 106.407 101.177 106.72L101.177 106.72L101.18 106.723C101.428 107.006 102.016 107.437 102.858 107.199C102.868 107.196 102.878 107.194 102.888 107.191C103.273 107.083 103.808 106.933 104.261 106.584L104.262 106.584M107.589 104.96L104.262 106.584M104.262 106.584C104.687 106.256 105.014 106.07 105.436 106.014L104.262 106.584Z" fill="white" stroke="#00ABCC"/>
<path d="M117.99 116.168C117.558 116.571 117.018 116.775 116.538 116.958C116.103 117.121 115.702 117.195 115.291 117.258C115.051 117.296 114.849 117.22 114.714 117.171L114.098 116.939L114.278 116.312C114.355 116.129 114.426 115.96 114.576 115.82L114.973 115.486C115.386 115.132 115.814 114.769 116.31 114.489C116.692 114.275 117.111 114.185 117.514 114.098C117.678 114.062 117.842 114.026 118.009 113.982L118.828 113.757L118.734 114.601C118.659 115.258 118.417 115.77 117.99 116.168Z" fill="white" stroke="#00ABCC"/>
<path d="M132.286 108.471L132.293 108.475L132.301 108.479L132.683 108.668L132.993 108.821L133.246 108.585L133.548 108.304C133.8 108.068 133.915 107.779 134.158 106.946L134.159 106.944C136.223 99.7343 139.087 91.843 142.915 82.8208C146.251 75.1819 149.921 67.2198 155.132 60.5568L155.14 60.5464L155.148 60.5356C155.155 60.526 155.162 60.5162 155.169 60.5064C155.305 60.312 155.479 60.0633 155.572 59.8046C155.685 59.4908 155.693 59.1251 155.448 58.7726L155.42 58.732L155.385 58.6976L155.056 58.3811L154.857 58.1898L154.65 58.2409L154.583 58.1892L154.186 57.8836L153.881 58.2799L151.787 60.9969L151.78 61.0062L151.774 61.0158L151.601 61.2627C151.567 61.3122 151.532 61.3613 151.498 61.4101C151.262 61.748 151.036 62.0704 150.817 62.3742L150.623 62.3652L150.47 62.5088L150.169 62.789L150.135 62.8207L150.107 62.8583C150.026 62.9691 149.93 63.1086 149.831 63.2594C149.496 63.1326 149.18 63.1653 148.922 63.265C148.635 63.3762 148.431 63.5669 148.354 63.6391L148.348 63.6448C148.179 63.8019 147.99 64.0167 147.768 64.2982L147.443 64.1047L147.187 64.5318L146.892 65.0229C146.892 65.023 146.892 65.0231 146.892 65.0233C144.041 69.7573 141.248 75.4923 138.812 81.6091C138.811 81.6095 138.811 81.6099 138.811 81.6104L137.595 84.6106L137.595 84.6114L137.59 84.6239C136.056 88.391 134.307 92.6832 133.139 96.4001L133.139 96.401C133.002 96.8396 132.811 97.3687 132.608 97.9295L132.608 97.9304L132.592 97.9753C132.375 98.5781 132.15 99.2021 131.973 99.7714C131.793 100.346 131.649 100.907 131.619 101.354L131.61 101.483C131.595 101.529 131.58 101.575 131.564 101.622L131.564 101.623L131.564 101.625C131.522 101.751 131.48 101.878 131.438 102.006L131.436 102.012C131.221 102.656 130.999 103.321 130.826 104.005L130.826 104.005L130.824 104.014L130.697 104.555L130.59 105.013L131.013 105.139L131.027 105.311L131.009 105.382L130.974 105.516L130.962 105.559L130.959 105.571L130.958 105.574L130.958 105.575L130.958 105.575L130.958 105.575L131.05 105.599L130.958 105.575L130.832 106.055L131.311 106.185L131.579 106.257C131.581 106.33 131.585 106.401 131.592 106.47C131.609 106.636 131.644 106.82 131.724 106.987C131.691 107.313 131.686 107.594 131.749 107.826C131.79 107.98 131.862 108.116 131.969 108.233C132.071 108.344 132.187 108.417 132.286 108.471Z" fill="white" stroke="#00ABCC"/>
<path d="M155.738 78.8305C155.738 78.8306 155.738 78.8307 155.739 78.8308L155.546 79.0372L155.47 79.1193L155.398 79.1967L155.47 79.1192L155.546 79.037L155.738 78.8305ZM155.738 78.8305C155.703 78.7975 155.667 78.7666 155.63 78.7377L155.463 78.795L155.348 78.8346L155.264 78.9226L155.167 79.0243L155.176 79.0333M146.774 95.5495L146.794 95.5595L148.592 86.0272C147.802 87.3422 146.986 88.7008 146.5 90.0221L146.031 89.8475C146.031 89.8478 146.031 89.8481 146.031 89.8484C145.991 89.9554 145.924 90.0844 145.832 90.26C145.827 90.2698 145.822 90.2796 145.817 90.2896L145.817 90.2896L145.816 90.2916L145.81 90.3033C145.689 90.538 145.55 90.8085 145.45 91.0823C145.363 91.3196 145.293 91.5893 145.296 91.8733C145.184 92.1082 145.056 92.381 144.971 92.6823L144.967 92.6949L144.965 92.7076L144.852 93.2073L144.76 93.6172L145.148 93.7787L145.249 93.8209L145.27 94.0299L145.553 94.1423L145.677 94.1918L145.944 95.7368L146.254 94.9972C146.347 95.2136 146.508 95.4145 146.774 95.5495Z" fill="white" stroke="#00ABCC"/>
<path d="M51.578 135.136L51.5806 135.137L51.8529 135.166L52.0806 135.191L52.2481 135.035L52.4429 134.853L52.4444 134.852C52.585 134.72 52.7048 134.555 52.7613 134.344C52.8168 134.137 52.7972 133.937 52.7511 133.757C52.6711 133.445 52.4723 133.068 52.2436 132.634L52.2116 132.574L52.2117 132.574L52.2049 132.561C49.8605 128.397 47.0058 124.796 43.8101 120.883L43.8075 120.88C40.8759 117.347 37.6722 113.777 34.288 110.274C30.897 106.751 27.3903 103.457 23.8557 100.472L23.8557 100.472L23.8491 100.467L23.8415 100.461C20.2073 97.497 16.3781 94.3744 11.4655 92.5796L11.4581 92.5769L11.4507 92.5745C11.44 92.5709 11.4292 92.5674 11.4184 92.5638C11.1692 92.4814 10.8861 92.3877 10.6235 92.3621C10.3163 92.3321 9.9839 92.3886 9.69913 92.6542L9.6568 92.6936L9.62461 92.7417L9.30276 93.2226L9.10347 93.5204L9.25692 93.7207L9.25335 93.7276L8.98579 94.2482L9.54179 94.4311L10.1877 94.6436L10.1881 94.6438C11.7592 95.1592 13.3428 95.9026 14.6704 96.7432L14.7109 96.9313L14.7533 97.1285L14.9206 97.241L15.6319 97.7197C15.5711 97.8605 15.5338 98.0119 15.5312 98.1744C15.5269 98.4402 15.6162 98.6778 15.7439 98.8878C15.929 99.192 16.2402 99.5064 16.6222 99.8518L16.417 100.134L16.8106 100.43L17.2659 100.772C17.266 100.772 17.266 100.772 17.2661 100.772C22.1049 104.417 27.0141 109.089 31.6141 113.613C35.0322 117.003 38.6853 121.365 41.9239 125.235L41.924 125.236L42.706 126.169C42.7064 126.17 42.7069 126.17 42.7073 126.171C43.0955 126.642 43.556 127.267 44.028 127.908L44.0281 127.908L44.0877 127.989C44.7959 128.951 45.506 129.915 46.0333 130.411L46.1976 130.566C46.5194 131.026 46.829 131.495 47.1398 131.967C47.1671 132.008 47.1944 132.05 47.2218 132.091C47.2218 132.091 47.2218 132.091 47.2219 132.091C47.2219 132.091 47.222 132.092 47.222 132.092L47.6823 132.791L47.6822 132.791L47.6896 132.802L48.0088 133.26L48.2804 133.65L48.4786 133.527L48.499 133.549L48.6786 133.424L48.7913 133.507C48.8333 133.58 48.8772 133.66 48.9204 133.742L49.1485 134.177L49.5874 133.957L49.8464 133.827C49.9482 133.933 50.0448 134.023 50.1381 134.098C50.2469 134.185 50.3639 134.262 50.4918 134.314C50.6998 134.594 50.8621 134.786 51.0129 134.909C51.1114 134.99 51.2139 135.05 51.3294 135.087C51.4273 135.119 51.5195 135.13 51.5686 135.135L51.578 135.136Z" fill="white" stroke="#00ABCC"/>
<path d="M41.7068 134.457C41.4509 134.695 41.1747 134.653 40.9066 134.502C40.7169 134.534 40.5069 134.491 40.288 134.373L40.2016 134.375L40.1382 134.418L40.219 134.534L40.0616 134.47L39.6595 134.734L39.4918 134.634L39.1356 134.861L38.7915 134.456C38.6621 134.287 38.5504 134.108 38.4401 133.927C38.4047 133.871 38.3707 133.814 38.3365 133.762C37.9601 133.579 37.6939 133.168 37.4329 132.772C37.3127 132.587 37.1968 132.403 37.0776 132.275C36.7008 131.856 36.3237 131.404 35.9371 130.939C35.1085 129.943 34.2509 128.913 33.3556 128.176C31.7186 126.844 29.9674 125.44 28.2568 124.238L27.7905 123.911L28.0209 123.577C27.7822 123.24 27.6667 122.839 27.9803 122.388L27.9982 122.371C28.0488 122.324 28.099 122.286 28.149 122.256L28.0128 122.16L27.7299 121.648L27.7705 121.599C27.5528 121.446 27.322 121.297 27.0855 121.145L26.1781 120.554L26.4391 120.166L26.4517 120.054L26.6309 119.826C26.854 119.618 27.1509 119.602 27.5131 119.782C30.2019 121.487 32.98 123.357 35.4414 125.683C37.7837 127.876 39.8847 130.469 41.6821 133.393C41.8095 133.616 42.0875 134.102 41.7068 134.457Z" fill="white" stroke="#00ABCC"/>
</svg>
