<svg width="123" height="92" viewBox="0 0 123 92" fill="none" xmlns="http://www.w3.org/2000/svg">
<path d="M88.9647 65.9885C88.9864 65.7661 89.03 65.546 89.0275 65.3236C89.0009 63.0119 88.9864 60.6978 88.9211 58.3838C88.9091 57.8881 88.7519 57.3827 88.5826 56.9088C88.3529 56.2607 88.498 56.0068 89.1678 55.8811C89.9101 55.7384 90.3309 56.0794 90.7419 56.6428C91.3102 57.4286 91.4528 58.2943 91.5254 59.2228C91.61 60.2723 91.8083 61.312 91.9099 62.3615C91.9921 63.1691 91.9824 63.9864 92.0525 64.794C92.0936 65.2752 92.2097 65.7516 92.3161 66.3561C93.027 65.7443 93.6654 65.2051 94.2892 64.6538C95.3387 63.7277 96.422 62.8427 97.7543 62.3687C98.2572 62.1922 98.8376 62.1076 99.3671 62.1559C100.363 62.2478 101.367 62.3977 102.327 62.671C102.728 62.7846 103.057 63.2416 103.362 63.5923C103.809 64.1073 104.152 64.7215 104.636 65.193C105.473 66.0079 105.988 66.9292 106.055 68.1092C106.089 68.6895 106.312 69.265 106.297 69.8357C106.261 71.1704 106.193 72.51 106.034 73.8327C105.862 75.2279 105.623 76.6207 105.316 77.9917C105.083 79.0218 104.409 79.8367 103.775 80.6734C103.195 81.4375 102.624 82.2717 102.327 83.1688C101.911 84.4286 101.115 85.2314 100.013 85.8335C99.43 86.1551 98.8521 86.4888 98.2597 86.7935C98.0952 86.8781 97.8873 86.8732 97.6503 86.7886C98.3588 85.9931 99.1157 85.2362 99.7613 84.3947C101.367 82.2983 102.723 80.0519 103.524 77.5154C103.899 76.3233 104.252 75.1191 104.527 73.9004C105.093 71.3905 104.74 69.0014 103.49 66.7333C102.919 65.696 102.213 64.7795 101.287 64.0614C99.9741 63.0434 98.2089 62.8378 96.7435 63.8171C96.2164 64.1678 95.7352 64.5861 95.2516 64.9947C94.5093 65.6162 93.779 66.2497 93.0512 66.8881C92.5071 67.3668 92.1541 67.952 92.0864 68.6943C91.9776 69.8719 91.8325 71.0471 91.7285 72.2247C91.61 73.5885 91.523 74.9547 91.4069 76.3185C91.3029 77.5226 91.1651 78.7244 91.0708 79.9286C91.0515 80.1946 91.1167 80.4823 91.211 80.7362C91.3561 81.1376 91.0394 81.273 90.8241 81.3746C90.0915 81.7131 89.3346 82.0009 88.5826 82.2983C88.3045 82.4095 88.0216 82.5208 87.7315 82.5764C87.3591 82.6513 87.1124 82.5619 87.185 82.0783C87.3881 80.7338 87.5622 79.387 87.7411 78.0377C87.7605 77.8974 87.7484 77.7499 87.6372 77.5783C87.272 78.2674 86.9166 78.9638 86.5345 79.6433C86.2613 80.1366 86.005 80.6516 85.6495 81.082C84.9048 81.9864 83.8457 82.337 82.7309 82.4942C82.257 82.5619 82.0587 82.2596 82.1313 81.7591C82.5327 78.9009 83.6691 76.3378 85.3594 74.0286C85.9324 73.2475 86.2202 72.406 86.2879 71.4896C86.3943 70.0823 86.4306 68.6678 86.4596 67.2556C86.4668 66.876 86.3508 66.4915 86.2831 66.1119C86.2153 65.7298 86.0001 65.5243 85.6205 65.3792C85.3739 65.2849 85.0934 64.9681 85.0692 64.7263C85.0523 64.5522 85.4029 64.2258 85.6399 64.1629C86.3798 63.9671 87.139 63.8389 87.8983 63.7398C88.3384 63.6817 88.5875 63.9985 88.6552 64.3926C88.7446 64.9198 88.7712 65.459 88.8244 65.991L88.9647 65.9885Z" fill="white" stroke="#00ABCC"/>
<path d="M45.5098 42.0359C45.563 41.8787 45.5823 41.7603 45.6379 41.6587C46.7115 39.7291 47.4055 37.6278 47.8238 35.5023C48.2011 33.5727 48.941 31.8559 49.8018 30.1391C50.1573 29.4306 50.7521 29.1816 51.4558 29.1042C52.6454 28.9784 52.6696 28.9954 52.8171 27.8033C52.9235 26.9473 52.9743 26.084 53.0299 25.2232C53.0807 24.4518 52.938 23.7313 52.5124 23.0542C52.2199 22.5875 52.3553 22.2659 52.8727 22.2176C53.5836 22.1474 54.3236 22.0918 55.0175 22.2224C56.2894 22.4642 56.9931 23.5064 56.8915 24.8097C56.8093 25.8809 56.7005 26.9497 56.6014 28.0209C56.5071 29.0461 56.4103 30.0738 56.2967 31.2949C56.6449 31.0821 56.8722 30.8887 57.1358 30.7871C59.4547 29.8997 61.8316 29.5007 64.3246 29.7982C65.4708 29.9336 66.4936 30.2189 67.485 30.8573C68.8681 31.7423 69.4049 32.9416 69.2937 34.5085C69.1873 35.9739 68.9576 37.4102 68.3652 38.7715C68.2467 39.0424 68.2225 39.3519 68.15 39.642C67.7631 41.1461 66.6822 42.1665 65.5868 43.1265C64.8276 43.7938 63.9498 44.35 63.0527 44.8191C62.5159 45.102 61.8485 45.1552 61.2295 45.2398C61.053 45.2664 60.8402 45.0512 60.5355 44.8844C61.6865 44.2774 62.5353 43.4988 63.2438 42.5727C63.4275 42.3333 63.5122 42.019 63.6331 41.7337C63.7008 41.5741 63.7177 41.3903 63.8023 41.2404C64.7816 39.5066 65.5336 37.6834 65.8335 35.7079C66.056 34.2256 65.9181 32.799 64.6559 31.7471C63.7443 30.9854 62.6658 30.7412 61.4931 30.7823C60.3687 30.8234 59.3531 31.1547 58.3956 31.7374C57.6919 32.1654 56.9399 32.5209 56.2362 32.9513C56.0259 33.0795 55.8203 33.3309 55.7502 33.5655C55.182 35.5168 54.7274 37.5021 54.0745 39.4244C53.5329 41.0228 52.7639 42.5437 52.1086 44.1058C51.8281 44.7756 51.3228 45.1165 50.6239 45.2108C50.2661 45.2592 49.9106 45.3196 49.4947 45.3196C50.5248 44.1662 50.6651 42.7226 50.8899 41.2936C50.7714 41.5378 50.6554 41.7844 50.5393 42.0311L50.445 42.0021C50.7932 40.5367 51.1414 39.0738 51.4896 37.6085L51.3107 37.5142C50.9407 37.9615 50.5151 38.3726 50.2105 38.8586C49.7534 39.5888 49.3859 40.3747 48.9724 41.134C48.8926 41.2815 48.8007 41.4846 48.6677 41.5378C47.6836 41.9223 46.6946 42.2995 45.5098 42.0359Z" fill="white" stroke="#00ABCC"/>
<path d="M23.4762 52.5949C23.7857 52.5393 23.9864 52.503 24.3419 52.4401C24.0977 52.1621 23.9284 51.971 23.8051 51.8308C23.8123 51.589 23.8196 51.3786 23.8244 51.1682C23.7809 51.1199 23.7349 51.0739 23.689 51.0256C24.1001 50.97 24.5087 50.9119 24.9899 50.8466C25.0068 50.7959 25.0552 50.6556 25.1132 50.4767C25.5025 50.5589 25.8918 50.6411 26.3319 50.733C26.4407 49.6715 26.1651 48.726 25.563 47.974C24.8207 47.0455 23.897 46.2668 23.0821 45.3964C22.5428 44.8209 22.006 44.2333 21.5539 43.5925C20.6302 42.2771 20.7728 40.9205 21.4789 39.5447C21.8029 38.9111 22.1028 38.2413 22.2454 37.5522C22.4896 36.3698 22.6251 35.1632 22.7653 33.9614C22.966 32.2663 21.844 31.9738 20.6157 32.1793C18.9158 32.4598 17.6221 33.4343 16.4542 34.6433C16.0818 35.0278 15.6151 35.3397 15.1436 35.6008C14.9743 35.6951 14.6455 35.5791 14.4375 35.4703C14.3819 35.4388 14.4254 35.0229 14.5439 34.8899C15.0686 34.3023 15.5909 33.6978 16.1955 33.1973C17.9485 31.7489 19.8612 30.5447 22.0641 29.9112C22.7581 29.7129 23.527 29.7637 24.2645 29.7105C24.4749 29.6959 24.6877 29.7322 24.898 29.7322C25.7129 29.7346 26.1119 30.0345 26.0248 30.8397C25.8967 32.0245 25.6815 33.2094 25.3865 34.3628C24.8908 36.2924 24.2355 38.1809 23.7761 40.1153C23.5439 41.0946 24.1895 41.8563 24.8908 42.4971C25.5533 43.104 26.2642 43.6602 26.8881 44.3058C27.9835 45.4423 28.3292 46.9367 28.7282 48.402C29.0788 49.6908 28.4235 50.5613 27.5434 51.3423C27.0815 51.751 26.581 52.1185 26.1288 52.5369C25.5195 53.1003 24.8714 53.2647 24.1146 52.8633C23.9477 52.7738 23.7615 52.7134 23.4762 52.5949Z" fill="white" stroke="#00ABCC"/>
<path d="M64.5542 80.6326C65.0523 80.5335 65.5625 80.4778 66.0292 80.3158C66.2033 80.2554 66.3968 79.9386 66.3968 79.7379C66.4016 78.9859 66.4645 78.1952 66.2614 77.4891C65.5988 75.2065 64.9459 72.9021 63.5483 70.9193C63.3331 70.617 63.055 70.3631 62.818 70.0778C62.3731 69.5482 62.4021 69.2146 62.9704 68.8422C64.5977 67.7782 65.7149 66.2815 66.6289 64.6058C66.7595 64.3615 66.8344 64.0835 66.9166 63.815C67.1439 63.0655 66.8248 62.6399 66.0341 62.6641C65.6496 62.6761 65.2627 62.7463 64.8782 62.8067C64.5663 62.8575 64.3583 62.7003 64.3801 62.4247C64.397 62.2264 64.5639 61.9193 64.7259 61.8734C65.7971 61.5566 66.89 61.3631 68.0144 61.5348C68.7326 61.6436 69.1582 62.2022 68.8898 62.9204C68.5948 63.7183 68.1764 64.4824 67.7388 65.2175C67.1996 66.1195 66.6071 66.9948 66.0002 67.8508C65.3546 68.76 65.623 69.6595 66.0461 70.4937C66.5709 71.5238 67.2431 72.4765 67.8258 73.48C68.0773 73.9177 68.3119 74.3795 68.4666 74.8583C68.7979 75.9029 68.9454 76.9741 68.9406 78.084C68.9381 79.368 68.411 80.2409 67.2431 80.739C66.8223 80.9203 66.404 81.1114 65.9663 81.2589C65.4054 81.4499 64.8178 81.1863 64.5542 80.6326Z" fill="white" stroke="#00ABCC"/>
<path d="M34.8921 40.0018C35.4144 39.7503 35.8594 40.142 36.268 40.4878C37.7745 41.7621 39.2204 43.0993 40.2626 44.8137C40.7342 45.5923 41.2419 46.354 41.7691 47.1012C41.9794 47.3986 41.8682 47.5969 41.6772 47.7928C41.138 48.3465 40.5939 48.8978 40.0378 49.4322C39.7766 49.6837 39.5058 49.9424 39.1939 50.1189C38.8674 50.3027 38.5627 50.1721 38.4394 49.7997C37.98 48.3949 37.1288 47.2269 36.1689 46.1436C35.1992 45.0507 34.203 43.9674 32.8078 43.3822C32.6022 43.2952 32.433 43.1235 32.2492 42.9881C31.8672 42.7052 31.8938 42.3739 32.1307 42.016C32.7788 41.0367 33.7097 40.4395 34.8921 40.0018Z" fill="white" stroke="#00ABCC"/>
<path d="M74.8503 69.4561C75.8006 69.6156 76.3616 69.9784 76.6566 70.7038C76.9613 71.4534 77.2611 72.203 77.5972 72.9356C77.7326 73.2355 77.9212 73.528 78.1437 73.7723C79.0311 74.754 79.5824 75.9364 80.1749 77.0947C80.5762 77.8757 80.3054 78.4464 79.4615 78.7244C78.8957 78.913 78.342 79.1379 77.781 79.341C77.2974 79.5151 76.9661 79.3967 76.9081 78.9058C76.7678 77.7016 76.0569 76.7852 75.421 75.847C74.5215 74.5219 73.547 73.2476 72.5918 71.9612C72.4371 71.7532 72.2001 71.6105 72.0333 71.4074C71.6077 70.8972 71.731 70.4305 72.3597 70.2226C73.2423 69.9324 74.1346 69.6737 74.8503 69.4561Z" fill="white" stroke="#00ABCC"/>
<path d="M57.624 78.0047C57.6385 77.1051 57.6313 76.2056 57.6772 75.311C57.6893 75.1006 57.8199 74.8249 57.9867 74.7113C58.3011 74.4961 58.6855 74.3873 59.0337 74.2132C59.7422 73.8625 60.2452 74.2156 60.7167 74.6871C60.7626 74.733 60.8182 74.8008 60.8207 74.8588C60.84 75.4681 60.8134 76.0799 60.869 76.6868C60.9682 77.7677 61.1302 78.8461 61.2317 79.927C61.2511 80.1495 61.181 80.4372 61.0431 80.6065C60.4918 81.2835 59.6721 81.506 58.8886 81.7744C57.7038 82.1806 57.6313 82.1589 57.566 80.9136C57.5152 79.9464 57.5829 78.9743 57.5974 78.0047H57.624Z" fill="white" stroke="#00ABCC"/>
<path d="M18.3334 55.0424C18.2899 54.9698 18.2222 54.9021 18.2028 54.8247C17.8861 53.5117 17.5766 52.1987 17.2622 50.8857C17.1268 50.3199 16.9672 49.7613 16.8632 49.1907C16.8197 48.9561 16.8028 48.6273 16.9285 48.4628C17.4726 47.7544 18.0771 47.0918 18.6598 46.4148C18.7058 46.3616 18.7662 46.318 18.8243 46.2818C19.8278 45.6627 20.0478 45.7522 20.1276 46.9153C20.2364 48.4991 20.2872 50.0829 20.3839 51.6668C20.4008 51.9763 20.5556 52.2809 20.5677 52.5905C20.5798 52.9072 20.5991 53.3014 20.4323 53.5287C19.91 54.242 19.2644 54.8392 18.3334 55.0424Z" fill="white" stroke="#00ABCC"/>
<path d="M69.6299 48.2886C70.3601 48.054 71.088 47.8122 71.8206 47.5898C72.5847 47.3552 73.2159 46.9224 73.7382 46.33C74.2387 45.7666 74.1492 45.1499 73.4697 44.8114C73.107 44.6301 72.679 44.5527 72.2728 44.4971C71.7022 44.4221 71.4652 44.2529 71.5014 43.7813C71.5377 43.2905 71.8956 43.2324 72.2994 43.2228C73.1965 43.201 74.0984 43.0874 74.9883 43.1551C75.5178 43.1962 76.1151 43.3993 76.531 43.7209C77.4233 44.4149 77.3749 45.4232 76.6688 46.3275C75.3969 47.9597 73.6124 48.2934 71.7288 48.4361C71.221 48.4748 70.7083 48.4941 70.1981 48.5062C70.0119 48.5086 69.8233 48.4627 69.6371 48.4409L69.6299 48.2886Z" fill="white" stroke="#00ABCC"/>
<path d="M82.9799 8.21685C83.0259 8.19751 82.8856 7.9146 83.1855 8.29907C83.686 8.88182 83.9205 9.55887 84.218 10.1803C84.5444 10.7945 84.7161 11.4788 84.9942 12.2042L85.1054 12.2864C85.3158 12.8523 85.456 13.4519 85.5455 14.083L85.8308 15.5484L86.0267 16.5301L86.1258 17.0258C86.2346 17.0669 86.4329 16.9702 86.5828 16.9484L89.3853 16.2085L91.1602 15.8168C92.345 15.5871 93.5299 15.413 94.7123 15.3066C94.6494 15.2848 94.618 15.2606 94.8526 15.2292C95.8343 15.1736 97.2077 15.1422 98.5764 15.3549L99.1833 15.4202C99.3381 15.4347 99.384 15.4154 99.4106 15.4033C100.025 15.5242 100.564 15.6572 101.043 15.8313C102.656 16.3004 104.177 17.079 105.502 18.1913C106.815 19.3278 108.103 20.59 108.824 22.1424C110.321 25.3246 110.662 29.266 109.948 33.072C109.818 33.8869 109.622 34.6897 109.366 35.4659C109.233 35.8503 109.117 36.2445 108.938 36.6048C108.805 36.924 108.507 37.5527 108.253 37.954L107.954 38.4643L107.801 38.7254L107.721 38.8584C107.729 38.885 107.813 38.8753 107.854 38.885C108.268 38.9309 108.691 38.9769 109.119 39.0228C110.079 39.1075 110.58 39.3444 111.242 39.5137C112.473 40.0021 113.665 40.6042 114.567 41.3176C114.516 41.083 115.645 41.777 116.617 42.5701C117.553 43.3922 118.351 44.2507 118.102 43.709C119.152 44.9374 120.153 47.1451 120.232 47.249C120.404 47.3844 120.728 47.694 121.047 48.5717C121.415 49.4156 121.819 50.8858 121.536 53.195C121.434 53.6375 121.333 54.1477 121.171 54.6459C120.958 55.115 120.733 55.6058 120.52 56.0701C120.01 56.9212 119.483 57.5838 119.333 57.8667C118.823 58.7275 120.791 56.0435 120.288 56.8995C122.273 54.0655 122.375 50.1628 121.171 47.1378C119.991 44.0379 117.817 41.4989 115.14 39.6854C113.786 38.8076 112.318 38.0435 110.681 37.6808C110.094 37.5285 110.369 37.6034 110.299 37.5865H110.287L110.289 37.5768L110.577 36.9747C111.837 33.9812 112.311 30.7555 112.132 27.5274C111.982 26.4514 111.919 23.69 110.139 20.4232C109.151 18.7499 107.837 17.4006 106.14 16.0634C104.459 14.7528 102.332 13.7929 100.114 13.3649C97.8993 12.9127 95.6312 12.9248 93.5009 13.1569C92.4345 13.2682 91.3947 13.4374 90.3985 13.6405C89.9004 13.7469 89.4095 13.8509 88.9259 13.9525C88.6043 14.0347 88.29 14.1169 87.9805 14.1991C87.9079 14.2281 87.8547 14.2354 87.8595 14.1459C87.8088 13.9114 87.7628 13.6841 87.7145 13.4616C87.5718 12.5935 87.2647 11.8101 87.0157 11.0798C86.7884 10.3399 86.52 9.68219 86.2032 9.11878C85.9058 8.55054 85.6809 8.02824 85.4246 7.62201L85.0183 7.04893C82.8131 3.36624 77.8319 0.720893 74.2774 0.653188C72.6597 0.469416 71.0178 0.667696 69.4364 0.950608C70.1884 0.924009 70.8752 0.834541 71.4773 0.890157C70.6624 0.899829 69.8572 1.04975 69.1704 1.11745C68.5006 1.26495 67.9542 1.40762 67.6567 1.49951C64.3996 2.65292 66.3292 2.16931 67.6084 1.97103C68.5345 1.84529 67.3472 2.24668 68.7715 2.0073C67.7559 2.22008 67.2505 2.34099 66.2712 2.69886C66.2301 2.76656 66.9724 2.46189 67.6712 2.2757C68.3773 2.11127 69.0084 1.96861 68.6699 2.11127C67.6809 2.26119 66.6412 2.67468 65.6667 3.01321C65.8577 3.00595 66.7016 2.72546 67.4875 2.47156C68.2975 2.29746 69.0399 2.13787 68.9722 2.20558C68.6699 2.27086 68.0074 2.40869 67.3351 2.54894C66.6895 2.74722 66.085 2.94308 66.0149 3.03497C65.9859 3.07366 66.9579 2.74722 67.4415 2.58037C65.9375 3.06398 64.8542 3.62739 64.4625 3.8837C64.0635 4.12793 64.3585 4.06748 65.6667 3.53792C65.2411 3.72895 64.6874 3.97801 64.1312 4.22707C63.5968 4.54625 63.1084 4.83642 62.6514 5.10724L62.6586 5.10482C63.089 4.85818 63.9039 4.39391 64.2956 4.16903L62.7795 5.06371L63.0721 4.95007C63.4928 4.71068 63.8676 4.49305 64.2279 4.28752L63.2293 4.8872C63.5388 4.74937 63.8435 4.61154 64.1361 4.48096C64.7623 4.19321 65.4055 3.98526 65.952 3.76522C66.5251 3.61288 67.0184 3.47989 67.3666 3.35899C70.2126 2.49091 73.298 2.46189 76.103 3.23567C78.9345 3.98768 81.3356 5.84233 82.9799 8.21685Z" fill="white" stroke="#00ABCC"/>
<path d="M36.6982 87.3548C36.6619 87.3887 36.7998 87.5555 36.5265 87.3766C35.6923 86.7672 35.2256 86.0467 34.5848 85.2221L34.476 85.2076C34.2125 84.8545 34.0553 84.5813 33.799 84.0614L33.1606 82.8838L32.8245 82.2697L32.6552 81.9577C32.5779 81.9505 32.4787 82.0472 32.3917 82.0883L30.3871 83.365L29.2675 84.0203C28.5445 84.4193 27.8095 84.7796 27.0647 85.0988C27.1155 85.1084 27.1421 85.1254 26.997 85.1979C26.3755 85.4421 25.4881 85.7371 24.5644 85.8774L24.163 85.9644C24.0591 85.991 24.0373 86.0225 24.0228 86.0394C23.602 86.0878 23.2321 86.1095 22.8887 86.0926C21.7643 86.1337 20.6351 85.962 19.5494 85.5292C18.4588 85.0746 17.3611 84.5378 16.5824 83.7084C14.9503 81.9916 13.867 79.4865 13.5164 76.8508C13.3423 75.7046 13.2673 74.7302 13.5913 73.1439L13.6808 72.7401L13.7291 72.5322C13.763 72.4475 13.7606 72.3943 13.659 72.4379C13.3713 72.4959 13.0811 72.5515 12.7861 72.6119C12.1937 72.7474 11.5166 72.7595 11.137 72.7595C10.2302 72.6918 9.32829 72.5418 8.58836 72.2613C8.65849 72.4475 7.76139 72.2565 6.93442 71.9639C6.12679 71.6471 5.39412 71.2699 5.65285 71.6133C4.69047 71.0136 3.55156 69.749 3.45726 69.7103C3.28558 69.6789 2.97365 69.5628 2.5384 69.0526C2.07897 68.5762 1.45028 67.6695 1.119 66.0107C1.08999 65.6842 1.04646 65.307 1.0513 64.925C1.09724 64.5623 1.1456 64.1705 1.19396 63.7982C1.36081 63.0993 1.58327 62.5311 1.61954 62.3014C1.76221 61.5881 0.966667 63.8634 1.10691 63.1598C0.345228 65.5682 1.14319 68.3344 2.64238 70.1504C4.13915 72.0316 6.17757 73.289 8.40701 73.9491C8.96316 74.1184 9.5435 74.2224 10.1262 74.3046L11.0161 74.3747C11.1612 74.3916 11.3135 74.3796 11.4658 74.3723L11.6931 74.3602C11.7294 74.3578 11.7173 74.3554 11.7173 74.3554C11.727 74.3771 11.7488 74.2732 11.727 74.4376C11.536 76.6332 11.9035 79.0125 12.7257 81.138C13.069 81.8344 13.705 83.6842 15.6563 85.5485C16.7299 86.5012 17.8858 87.1082 19.3463 87.6595C20.7826 88.189 22.4559 88.3801 24.0591 88.189C25.6695 88.0149 27.2025 87.5144 28.5856 86.9002C29.2796 86.598 29.9422 86.2618 30.566 85.9112C30.878 85.7371 31.1826 85.563 31.4825 85.3914L31.7146 85.2463C31.9177 85.0698 31.8597 85.2898 31.9419 85.3478C32.2224 85.8991 32.5996 86.3683 32.9261 86.8083C33.5402 87.7199 34.285 88.3269 34.7541 88.8177L35.1555 89.1224C37.4575 91.1632 41.4666 91.8838 43.8871 91.1294C45.0236 90.8852 46.0851 90.375 47.0813 89.8236C46.5735 89.9905 46.1238 90.1864 45.703 90.2637C46.7936 89.8841 47.7971 89.311 48.138 89.0257C50.0604 87.5265 48.8368 88.235 47.9978 88.588C47.3957 88.8467 48.0776 88.2979 47.1732 88.7331C47.7995 88.3801 48.109 88.1939 48.6821 87.7538C48.7353 87.6909 46.8613 89.016 47.2046 88.6219C47.8309 88.3245 48.4233 87.8215 48.994 87.3935C48.8586 87.4249 48.3605 87.7852 47.8938 88.1141C47.3981 88.3946 46.9411 88.6533 46.9628 88.5783C47.299 88.4067 48.7208 87.6329 48.7328 87.4201C48.7377 87.3838 48.1694 87.7997 47.8865 88.0077C49.6372 86.7019 50.2707 85.6888 48.7885 86.9365C49.3059 86.5109 49.9999 85.8653 50.4352 85.3019L50.4303 85.3043C50.2079 85.5413 49.7533 86.0297 49.5502 86.2449L50.3529 85.3502L50.174 85.4736C49.9322 85.7299 49.7315 85.9451 49.5526 86.1337L50.0773 85.5413C49.8935 85.6864 49.7146 85.829 49.5453 85.9644C48.832 86.581 48.0606 87.0235 47.6471 87.2992C44.3247 89.5867 39.7329 89.8696 36.6982 87.3548Z" fill="white" stroke="#00ABCC"/>
</svg>
