<svg width="123" height="109" viewBox="0 0 123 109" fill="none" xmlns="http://www.w3.org/2000/svg">
<path d="M76.0837 67.1948C76.4445 68.3701 76.775 69.4006 77.0667 70.4398C77.1099 70.591 77.0127 70.8935 76.8917 70.9583C75.9217 71.4811 74.8738 71.641 73.7807 71.5244C73.0418 71.4466 72.8257 70.8179 72.6616 70.2994C72.2835 69.1068 72.0113 67.8775 71.7607 66.6483C71.7218 66.4581 71.9875 66.0606 72.1906 65.9893C73.1023 65.6696 74.0226 65.3282 75.0315 65.5594C75.2498 65.6091 75.5047 65.5075 75.7423 65.4687C76.7318 65.3045 77.7191 65.0884 78.7151 64.9869C79.8191 64.8724 80.949 64.7125 82.0378 64.84C84.2566 65.0971 86.538 64.9502 88.6747 65.7798C88.9944 65.9029 89.3271 66.0044 89.6253 66.1686C90.3101 66.5424 90.4916 66.9399 90.228 67.6615C89.3423 70.0833 88.2361 72.3648 86.4516 74.2984C84.2264 76.7115 82.0465 79.1745 79.3719 81.0929C78.1361 81.9809 76.7189 82.6182 75.3578 83.3182C75.0186 83.4932 74.58 83.4759 74.1155 83.4413C74.2884 83.2987 74.472 83.1669 74.6297 83.0114C74.8047 82.8407 75.3081 82.8256 74.9624 82.3676C74.9451 82.346 75.1093 82.1558 75.213 82.0781C75.7834 81.6589 76.3602 81.2506 76.9349 80.838C77.004 80.9201 77.0775 81.0821 77.1423 81.0778C77.7083 81.0432 78.8663 80.0862 79.0478 79.438C78.7821 79.5266 78.5833 79.5957 78.3068 79.6886C78.9376 78.9843 79.5209 78.334 80.0999 77.6794C80.2079 77.5606 80.3527 77.4461 80.3981 77.3035C80.8215 75.9554 81.7851 74.9486 82.5628 73.8231C83.5242 72.4253 84.4834 71.0275 85.4319 69.621C85.5874 69.3877 85.6976 69.1176 85.7862 68.8497C86.1189 67.8343 85.8596 67.1646 84.8226 66.8816C83.7597 66.5921 82.6492 66.4236 81.5496 66.3501C80.4456 66.2745 79.3179 66.2896 78.2225 66.4365C77.4858 66.5359 76.788 66.9334 76.0837 67.1948Z" fill="white" stroke="#00ABCC"/>
<path d="M76.2738 40.2392C75.267 40.4704 74.3855 40.6583 73.5149 40.8852C73.3896 40.9176 73.2492 41.1336 73.2319 41.2784C73.1822 41.7386 73.1498 42.2074 73.1779 42.6676C73.2146 43.2509 73.018 43.6527 72.4584 43.8515C71.9831 44.02 71.5143 44.2166 71.0304 44.3462C70.5832 44.4672 70.2116 44.3613 70.1835 43.7996C70.1597 43.3178 70.1144 42.8296 70.1511 42.3521C70.1965 41.7753 69.9653 41.7126 69.5138 41.9136C68.7792 42.2419 68.049 42.5833 67.308 42.8987C67.0703 43.0003 66.8046 43.0348 66.5561 43.1104C66.083 43.2509 65.8518 43.0327 65.6855 42.6049C65.5126 42.1663 65.666 41.8747 66.042 41.7213C66.8413 41.3886 67.6601 41.1034 68.4746 40.8009C68.5869 40.7599 68.7101 40.7404 68.8268 40.7124C69.7903 40.4769 70.4795 40.0189 70.5119 38.889C70.5335 38.1242 70.7085 37.3615 70.7236 36.5946C70.7301 36.1236 70.8835 35.8233 71.3177 35.7585C71.7865 35.6893 72.3634 35.4344 72.6334 36.1085C72.9834 36.9856 73.4069 37.839 73.2924 38.8436C73.2124 39.5587 73.2578 39.5565 73.9729 39.3837C74.621 39.2281 75.2692 39.0575 75.9281 38.9624C76.2889 38.9084 76.4466 38.7442 76.4531 38.4245C76.4855 36.8171 77.0062 35.2227 76.5482 33.5959C76.4941 33.4015 76.7404 32.937 76.9154 32.8959C77.4188 32.7836 78.0151 32.6712 78.4666 32.8441C79.0067 33.0493 78.9678 33.6823 78.9376 34.2289C78.8706 35.3588 78.8361 36.4887 78.8101 37.6186C78.7993 38.1177 78.9916 38.4029 79.5576 38.1695C80.3008 37.8606 81.0851 37.6316 81.785 37.247C82.7961 36.6939 83.751 36.9489 84.9285 37.2297C84.6066 37.5149 84.4337 37.7353 84.2069 37.8584C82.9063 38.5584 81.5863 39.2001 80.0869 39.3837C79.145 39.5004 79.1666 39.5544 79.0586 40.5093C78.8771 42.1145 78.7691 43.7434 78.3824 45.299C78.1253 46.3316 77.4728 47.2758 76.9305 48.2199C75.9065 50.0022 74.3618 51.0716 72.3245 51.4216C71.6915 51.5318 71.0628 51.6701 70.4428 51.8364C69.6045 52.0633 68.8052 51.9769 68.0058 51.6679C67.4398 51.4497 66.8456 51.2985 66.2904 51.0565C66.0636 50.9571 65.7827 50.7152 65.7525 50.5034C65.7309 50.3414 66.0312 50.0865 66.2386 49.9482C67.1157 49.3584 68.157 49.6047 69.1184 49.4297C69.274 49.4016 69.4749 49.5766 69.6434 49.6782C69.8875 49.8208 70.1014 50.0217 70.3585 50.1254C71.5943 50.6352 72.3353 50.4278 73.2686 49.1661C74.7053 47.2239 75.5133 45.003 75.9519 42.6438C76.0901 41.8963 76.1571 41.1336 76.2738 40.2392Z" fill="white" stroke="#00ABCC"/>
<path d="M66.6104 71.2325C66.1264 73.3109 65.0808 74.9506 63.8839 76.558C64.478 76.787 65.0916 76.936 65.6101 77.2472C66.2626 77.6382 66.8523 78.1416 67.4357 78.6363C67.8008 78.9431 67.7446 79.3795 67.3104 79.6366C67.0036 79.8202 66.6493 79.9628 66.2993 80.0298C65.5496 80.1724 64.7891 80.2912 64.0287 80.3495C63.3352 80.4014 62.7108 80.2286 62.3327 79.5351C61.9374 78.807 61.2417 78.6968 60.4791 78.6104C58.5844 78.3922 56.7998 79.049 54.957 79.2088C54.5508 79.2456 54.1058 79.3147 53.9416 78.8135C53.7817 78.3252 54.1058 78.0357 54.5033 77.8737C55.4755 77.4805 56.439 77.0311 57.4501 76.774C58.1501 76.599 58.9257 76.7438 59.6603 76.6703C59.8893 76.6466 60.1831 76.4262 60.2954 76.2145C60.6973 75.467 61.0494 74.6914 61.3908 73.9136C61.6781 73.259 61.5182 73.0321 60.801 73.1488C59.6084 73.3433 58.4267 73.596 57.2427 73.8315C56.8647 73.9071 56.5082 73.9741 56.3483 73.4902C56.1841 72.9933 56.4196 72.6886 56.8582 72.5547C57.9341 72.222 59.0165 71.9022 60.1075 71.6214C61.6306 71.2325 63.1515 70.7918 64.7546 70.9841C65.3336 71.0554 65.9104 71.1375 66.6104 71.2325Z" fill="white" stroke="#00ABCC"/>
<path d="M42.113 44.5516C42.1065 44.2751 42.1043 44.126 42.1 43.8754C41.7781 43.951 41.5037 44.0158 41.2056 44.0871C41.9747 42.4279 42.7805 40.7968 43.4913 39.1268C44.5672 36.5947 45.6301 34.0584 46.5872 31.481C47.0063 30.3554 47.1921 29.1348 47.3931 27.94C47.4687 27.4863 47.3218 26.9808 47.2202 26.512C47.1208 26.0605 47.2764 25.7969 47.6977 25.691C48.0693 25.5981 48.4581 25.4728 48.8276 25.5052C49.102 25.5268 49.5124 25.7191 49.5945 25.9373C49.8819 26.6978 50.1951 27.4928 50.2427 28.29C50.3939 30.8739 49.3936 33.2374 48.7541 35.6809C48.16 37.9428 47.136 39.9369 45.7641 41.7733C45.1635 42.577 44.4246 43.2986 43.6555 43.9445C43.2688 44.2686 42.6725 44.3421 42.113 44.5516Z" fill="white" stroke="#00ABCC"/>
<path d="M81.3853 56.2569C81.5775 56.0474 81.746 55.8032 81.9664 55.6304C84.6994 53.4894 86.8771 50.8213 89.0008 48.1164C89.744 47.168 90.3165 46.0791 90.8976 45.0183C91.5328 43.8603 90.6514 43.0394 89.6921 42.6008C89.2816 42.4129 88.7761 42.3135 88.3311 42.3567C87.9271 42.3977 87.4431 42.59 87.1774 42.8817C86.5249 43.5946 85.933 44.3724 85.4015 45.1804C84.708 46.2368 83.6451 46.6214 82.526 46.9303C82.3639 46.9757 82.1587 46.8634 81.9751 46.8223C82.0226 46.6387 82.0247 46.4226 82.1263 46.2757C82.9797 45.0464 83.9 43.8625 84.6972 42.6008C85.1444 41.8879 85.4231 41.0604 85.7256 40.2632C85.8682 39.8873 86.0453 39.6799 86.458 39.6886C86.741 39.6972 87.024 39.6605 87.307 39.654C87.8536 39.641 88.2792 39.816 88.3311 40.4339C88.3591 40.7861 88.5557 40.8185 88.8496 40.8703C90.0788 41.0907 91.3254 41.2678 92.5223 41.6157C93.7494 41.97 94.1232 43.4996 93.3713 44.5711C93.1661 44.8628 93.0494 45.2236 92.9263 45.5671C92.0837 47.9371 90.6794 49.9484 88.9165 51.707C87.7024 52.919 86.4342 54.0814 85.1293 55.1961C84.1052 56.0711 82.7852 56.2051 81.5214 56.4406C81.476 56.3779 81.4306 56.3174 81.3853 56.2569Z" fill="white" stroke="#00ABCC"/>
<path d="M32.5252 25.1899C32.5727 25.2828 32.6548 25.4276 32.7196 25.5766C33.7134 27.8926 33.4239 30.3209 33.3656 32.7342C33.331 34.227 33.3634 35.7242 33.3764 37.2192C33.3764 37.3748 33.4585 37.5282 33.4931 37.6859C33.5816 38.0747 33.5492 38.4031 33.102 38.5673C32.2724 38.8741 31.4666 39.2522 30.6175 39.4942C29.87 39.708 29.6129 39.4877 29.5222 38.7272C29.3407 37.23 29.1311 35.735 29.0145 34.2313C28.8848 32.5224 28.8805 30.8049 28.7487 29.096C28.6947 28.4241 28.4808 27.7565 28.2778 27.1062C28.066 26.4257 28.1568 26.1664 28.8092 25.8813C29.8484 25.4254 30.9027 25.0387 32.065 25.1165C32.186 25.1251 32.3048 25.1532 32.5252 25.1899Z" fill="white" stroke="#00ABCC"/>
<path d="M28.0856 22.4482C28.8288 22.647 28.8893 22.8609 28.576 23.4334C27.9927 24.4985 27.3662 25.542 26.8304 26.6308C25.6465 29.0376 25.0826 31.6322 24.6224 34.2529C24.5943 34.4192 24.6008 34.6633 24.7002 34.7692C25.0934 35.1926 24.7974 35.4735 24.495 35.6571C23.5984 36.1972 22.7126 36.7676 21.5849 36.7395C21.2111 36.7309 21.1096 36.625 21.1312 36.3009C21.1571 35.938 21.1873 35.575 21.2133 35.2121C21.2824 34.2118 21.3515 33.2094 21.4185 32.2069C21.546 30.2798 22.1293 28.4888 23.0194 26.7864C23.3564 26.1426 23.7583 25.5225 24.011 24.8463C24.4604 23.6322 25.3505 23.0402 26.5539 22.7917C27.1393 22.6729 27.7183 22.5303 28.0856 22.4482Z" fill="white" stroke="#00ABCC"/>
<path d="M59.4335 62.885C58.632 63.5136 57.8952 64.0646 57.1866 64.65C54.8339 66.5901 52.5179 68.5734 50.1393 70.481C48.4952 71.7968 46.7798 73.0304 44.682 73.5532C43.5003 73.847 42.3077 74.0328 41.0957 73.7066C40.5297 73.5553 40.318 73.0066 40.6831 72.5443C40.9164 72.2483 41.2016 71.9523 41.53 71.7859C42.2278 71.4295 42.9753 71.1681 43.6947 70.8483C44.304 70.5761 44.7922 70.682 45.1681 71.2437C45.4468 71.6563 45.691 71.6002 46.1058 71.3366C48.0502 70.0986 49.5711 68.366 51.3491 66.9423C52.9068 65.6935 54.5444 64.5355 56.2015 63.4229C56.707 63.0837 57.4286 63.0837 57.9989 62.818C58.4807 62.5933 58.8718 62.6711 59.4335 62.885Z" fill="white" stroke="#00ABCC"/>
<path d="M32.8794 23.6714C33.3352 22.4529 34.3441 21.9625 35.3898 21.565C36.5521 21.1221 37.7771 21.1998 38.9847 21.336C40.0131 21.4526 40.6742 22.3794 40.685 23.6541C40.6936 24.6349 40.6332 25.5682 39.7215 26.2401C38.7709 26.9444 37.7533 27.4241 36.5651 27.4889C36.4592 27.4932 36.2453 27.3441 36.254 27.3052C36.3814 26.7392 35.8867 26.7565 35.5993 26.6117C35.0981 26.3546 34.5645 26.1602 34.0676 25.8966C33.1602 25.4149 32.5294 24.2741 32.8794 23.6714ZM36.6601 22.7402C36.4938 22.7489 36.1438 22.7208 35.8154 22.7899C35.3466 22.8893 34.9836 23.6368 35.1565 24.0559C35.487 24.8639 36.6947 25.5013 37.5135 25.2809C37.6323 25.2485 37.7598 25.134 37.8203 25.0217C38.2761 24.1596 37.7857 23.0665 36.6601 22.7402Z" fill="white" stroke="#00ABCC"/>
<path d="M91.7534 85.7035C92.0278 85.5804 92.3281 85.494 92.5744 85.3276C93.4731 84.7184 94.3481 84.0724 95.2468 83.4589C97.5542 81.8817 99.8248 80.2636 101.545 78.0146C101.923 77.5241 102.178 76.9408 102.508 76.4115C102.605 76.2581 102.774 76.0248 102.897 76.0334C103.474 76.068 104.053 76.1436 104.612 76.2819C104.725 76.31 104.874 76.7442 104.798 76.8782C103.921 78.4596 103.348 80.3349 101.879 81.4216C99.9393 82.8561 97.8005 84.04 95.666 85.1807C94.7629 85.6625 93.6848 85.9066 92.5873 85.7122C92.3281 85.6647 92.0408 85.764 91.7664 85.7943L91.7534 85.7035Z" fill="white" stroke="#00ABCC"/>
<path d="M92.8511 59.3789C93.227 58.9857 93.5835 58.573 93.9788 58.2036C96.1177 56.2074 98.2738 54.2263 100.408 52.2257C100.927 51.7374 101.374 51.2103 101.221 50.3785C101.136 49.9335 101.45 49.6483 101.927 49.698C102.502 49.7542 103.152 49.5576 103.541 50.2489C103.986 51.0396 103.556 51.6921 103.111 52.1738C102.087 53.2821 100.97 54.3083 99.8358 55.3043C98.6842 56.3176 97.4614 57.2509 96.2754 58.2231C95.3248 59.003 94.156 59.2233 93.0325 59.5668L92.8511 59.3789Z" fill="white" stroke="#00ABCC"/>
<path d="M63.0025 57.1361C62.5941 58.4302 61.1207 59.3765 59.7294 59.221C59.5847 59.2058 59.455 59.0892 59.3146 59.0244C59.1245 58.9358 58.9236 58.7629 58.7442 58.7824C58.2171 58.8429 57.96 58.5793 57.7677 58.1537C57.6338 57.8599 57.4804 57.5747 57.327 57.2895C56.6141 55.9652 56.9338 55.155 58.5563 54.6322C58.8263 54.5458 59.1482 54.6279 59.4485 54.6322C59.684 54.6344 59.9325 54.6797 60.1572 54.6279C60.7491 54.4939 61.1726 54.7294 61.4037 55.2328C61.5722 55.6065 61.7343 55.7427 62.1685 55.6865C62.9182 55.5936 63.279 56.2612 63.0025 57.1361Z" fill="white" stroke="#00ABCC"/>
<path d="M47.877 48.6309C47.9893 48.4927 48.0779 48.3198 48.2161 48.2183C49.5945 47.2245 50.9858 46.2458 52.362 45.252C52.8027 44.9323 53.2413 44.6017 53.641 44.2345C55.0971 42.8907 56.5533 41.5447 57.9791 40.1685C58.4976 39.6673 59.0053 39.1185 58.6834 38.2652C58.5322 37.8633 58.8044 37.6559 59.1609 37.5825C59.3769 37.5371 59.6038 37.5371 59.8263 37.5371C60.805 37.5371 61.1874 38.1312 60.7488 39.0148C60.1482 40.2204 59.1479 41.0781 58.1541 41.9401C56.9486 42.9836 55.7625 44.0487 54.5484 45.0835C54.153 45.4205 53.7296 45.7446 53.2737 45.9909C51.5864 46.9047 49.8775 47.7819 48.1773 48.6698C48.1124 48.7044 48.0347 48.7087 47.9655 48.7282L47.877 48.6309Z" fill="white" stroke="#00ABCC"/>
<path d="M51.0962 58.8474C50.2191 60.3532 48.8126 60.5347 47.4083 60.431C46.421 60.3597 45.6454 59.651 45.0729 58.843C44.7661 58.4066 44.9779 57.8492 45.4942 57.7153C46.6457 57.4215 47.8123 57.1838 48.979 56.957C49.5104 56.8554 49.9101 57.1061 50.2018 57.5641C50.4826 58.0048 50.7981 58.4218 51.0962 58.8474Z" fill="white" stroke="#00ABCC"/>
<path d="M45.2025 30.9023C44.9907 31.5331 44.8136 32.1791 44.5479 32.7862C44.429 33.0563 44.1633 33.2896 43.9105 33.4646C43.5 33.7541 43.0658 34.0284 42.6056 34.2164C42.3204 34.3331 41.8214 34.4152 41.6766 34.2661C41.4822 34.0652 41.439 33.6007 41.5103 33.2896C41.7955 32.0538 42.139 30.831 42.4868 29.6104C42.5387 29.4246 42.7007 29.161 42.8519 29.1286C43.5541 28.9795 44.267 28.8585 44.9821 28.8132C45.3559 28.7872 45.5589 29.0724 45.4833 29.4743C45.3926 29.9517 45.2954 30.427 45.2025 30.9023Z" fill="white" stroke="#00ABCC"/>
<path d="M92.4597 75.0098C92.6823 75.2366 92.907 75.3857 93.0193 75.5952C93.2505 76.0187 93.406 76.4832 93.6242 76.9131C93.7819 77.222 93.7106 77.4618 93.4082 77.5331C92.5894 77.7254 91.7641 77.9091 90.928 78.0041C90.6882 78.0322 90.3598 77.7989 90.1654 77.5958C89.8327 77.248 89.5453 76.8483 89.2882 76.4378C88.9274 75.8588 89.2018 75.2085 89.8672 75.1372C90.7206 75.0465 91.5848 75.0487 92.4597 75.0098Z" fill="white" stroke="#00ABCC"/>
<path d="M44.7983 64.5525C44.6579 64.3559 44.3814 64.0945 44.2734 63.7791C44.1481 63.4096 44.4462 63.1763 44.7789 63.0791C45.9736 62.7248 47.1662 62.3553 48.3739 62.055C49.0933 61.8779 49.1948 62.5627 49.4346 62.9927C49.6788 63.4269 49.359 63.6343 49.0501 63.8655C47.8122 64.7901 46.4187 64.7296 44.7983 64.5525Z" fill="white" stroke="#00ABCC"/>
<path d="M96.7612 74.4822C97.2451 74.5924 97.4439 74.856 97.4093 75.355C97.3877 75.6705 97.4417 75.9945 97.5044 76.3078C97.6319 76.943 97.513 77.1482 96.8735 77.2627C96.3767 77.3491 95.8754 77.4031 95.3807 77.4874C94.7434 77.5976 94.294 77.3513 94.1212 76.7399C93.9829 76.243 93.903 75.718 93.8684 75.2017C93.8381 74.7328 94.1255 74.4088 94.5943 74.4001C95.3159 74.3872 96.0396 74.452 96.7612 74.4822Z" fill="white" stroke="#00ABCC"/>
<path d="M95.4584 50.9354C95.277 51.6224 94.5057 52.2144 93.9591 52.0891C93.4147 51.9638 92.7622 50.7906 92.8746 50.2138C92.9718 49.7061 94.0282 49.5657 94.8298 49.7536C95.4844 49.907 95.6442 50.2354 95.4584 50.9354Z" fill="white" stroke="#00ABCC"/>
<path d="M97.8825 49.1445C98.6343 49.4988 98.7078 49.6976 98.3167 50.3933C98.2865 50.4473 98.2713 50.5056 98.2411 50.5596C97.8998 51.1537 97.1544 51.5318 96.6942 51.346C96.2881 51.1818 95.9057 50.3284 96.0288 49.7689C96.0655 49.6025 96.2211 49.3671 96.3594 49.339C96.8584 49.2331 97.3726 49.2029 97.8825 49.1445Z" fill="white" stroke="#00ABCC"/>
<path d="M53.4253 38.001C53.8077 38.1846 54.3737 38.9105 54.216 39.2497C54.0086 39.6926 53.6154 40.0491 53.2914 40.4315C53.2633 40.4639 53.138 40.4228 53.0602 40.4034C52.5763 40.2802 51.7791 39.1568 51.8676 38.6621C51.8979 38.4979 52.0578 38.2775 52.2068 38.2321C52.6 38.1112 53.017 38.0723 53.4253 38.001Z" fill="white" stroke="#00ABCC"/>
<path d="M55.8318 37.6534C56.1732 37.7484 56.4022 38.3815 56.2596 38.8373C56.13 39.2543 55.3176 39.7577 54.959 39.641C54.5982 39.5265 54.1877 38.6105 54.3066 38.1784C54.4189 37.7657 55.2204 37.487 55.8318 37.6534Z" fill="white" stroke="#00ABCC"/>
<path d="M9.41944 63.4509C10.9015 62.9367 12.8048 62.7077 14.3042 62.2065C16.1017 61.5843 18.0936 61.1176 19.9343 60.6855C19.958 60.7806 19.837 60.9599 20.0012 60.9729C20.6494 60.9707 20.6926 61.163 20.738 61.3531C20.7596 61.4482 20.2778 61.4611 20.4528 61.5216C19.9926 61.6297 19.2386 61.8565 19.7204 61.8435C19.8954 61.904 20.4873 61.6642 20.6731 61.7722C20.8611 61.8781 20.5889 62.0942 20.7747 62.2022C20.9281 62.1654 21.2349 62.0942 21.3882 62.0574C21.5632 62.1179 21.3018 62.3793 21.4552 62.3448C21.9392 62.3318 22.5398 62.1395 23.1533 61.9969C23.1749 62.092 23.3521 62.1525 23.0561 62.2713C17.7112 63.6237 12.2345 65.108 6.8334 66.2227C6.20903 66.3178 6.62383 66.0197 7.0516 65.769C6.90901 65.8533 6.87444 65.7086 6.73186 65.7928C6.69945 65.6502 6.95006 65.3391 7.55282 65.1468C7.39943 65.1836 7.24604 65.2203 7.09265 65.2549C6.92845 65.2441 7.05808 65.1123 7.03648 65.0172C7.18987 64.9805 7.34326 64.9459 7.33246 64.8962C7.31949 64.8487 7.29789 64.7536 7.28709 64.7061C7.1337 64.7428 6.82691 64.8141 6.67352 64.8509C6.82691 64.8141 6.9803 64.7774 6.9695 64.7299C6.95654 64.6824 6.93494 64.5873 6.92413 64.5398C7.22011 64.4188 7.70189 64.408 7.99787 64.287L7.96546 64.1444C7.64572 64.1682 7.19851 64.3237 6.89173 64.395C7.03216 64.3129 7.02135 64.2654 6.99975 64.1682C7.44912 64.0126 7.9417 64.0493 8.3673 63.7987C8.21607 63.8333 8.06268 63.87 7.90929 63.9046C8.1599 63.5957 8.97007 63.6065 9.41944 63.4509Z" fill="white" stroke="#00ABCC"/>
<path d="M52.254 87.8055C51.85 89.4647 50.9685 91.3595 50.5451 93.0295C50.0547 95.0408 49.3223 97.1494 48.6461 99.096C48.5532 99.0635 48.4711 98.854 48.3674 98.9987C48.0044 99.5993 47.8186 99.5367 47.6328 99.4719C47.5399 99.4395 47.8013 98.9858 47.6523 99.1154C47.8208 98.6293 48.0563 97.7997 47.7949 98.2555C47.6458 98.3852 47.514 99.0657 47.3174 99.1802C47.123 99.2947 47.097 98.921 46.9026 99.0355C46.8443 99.1975 46.7319 99.5237 46.6758 99.6858C46.5267 99.8154 46.4532 99.4265 46.3971 99.5885C46.1356 100.042 45.9585 100.708 45.7316 101.356C45.6409 101.326 45.4897 101.455 45.5566 101.114C47.4362 95.4038 49.2769 89.4993 51.3877 83.8692C51.6599 83.2362 51.675 83.7871 51.6469 84.3229C51.6556 84.1436 51.796 84.1933 51.8046 84.014C51.9429 84.0615 52.0639 84.4677 51.8846 85.1331C51.9407 84.971 51.9969 84.8068 52.0531 84.6448C52.1568 84.5001 52.1913 84.6945 52.2842 84.7269C52.2281 84.8889 52.1719 85.051 52.2173 85.0661C52.2648 85.0834 52.3577 85.1158 52.4031 85.1309C52.4592 84.9689 52.5737 84.6448 52.6299 84.4828C52.5737 84.6448 52.5154 84.8068 52.5629 84.822C52.6083 84.8393 52.7012 84.8695 52.7487 84.8868C52.6818 85.2281 52.4204 85.6818 52.3534 86.0232L52.4916 86.0707C52.6515 85.7618 52.7747 85.2584 52.887 84.9343C52.8762 85.1136 52.9237 85.1288 53.0166 85.1612C52.8935 85.6645 52.5845 86.1031 52.5565 86.6367L52.725 86.1506C52.8438 86.5568 52.3771 87.3021 52.254 87.8055Z" fill="white" stroke="#00ABCC"/>
<path d="M15.3347 19.4996C14.207 18.3697 13.1483 16.7321 12.0228 15.5806C10.6595 14.2109 9.34381 12.5927 8.13181 11.0998C8.20743 11.0393 8.42347 11.0696 8.36082 10.9162C8.06916 10.3242 8.22255 10.2011 8.37378 10.078C8.44939 10.0153 8.6784 10.4495 8.65248 10.2637C8.95494 10.6375 9.49937 11.2295 9.27252 10.7931C9.24659 10.6073 8.76698 10.1709 8.77994 9.95481C8.7929 9.7366 9.10833 9.89431 9.12345 9.67611C9.02191 9.55081 8.81883 9.30236 8.71729 9.17921C8.69352 8.99125 9.04783 9.11656 8.94629 8.99341C8.71945 8.55701 8.27656 8.09035 7.87256 7.59345C7.94817 7.5308 7.92441 7.345 8.16422 7.56321C11.7786 11.856 15.5702 16.2114 18.9923 20.6576C19.3596 21.1869 18.9037 20.9363 18.4868 20.6576C18.625 20.7505 18.5105 20.8434 18.651 20.9363C18.5365 21.0292 18.1433 20.9341 17.7004 20.4675C17.8019 20.5928 17.9035 20.7159 18.005 20.8412C18.0676 20.9968 17.8905 20.9341 17.8149 20.9968C17.7133 20.8715 17.6118 20.7462 17.5729 20.7786L17.4217 20.9017C17.5232 21.027 17.7241 21.2755 17.8257 21.3986C17.7241 21.2755 17.6248 21.1502 17.5859 21.1826C17.547 21.2128 17.4714 21.2733 17.4325 21.3057C17.1927 21.0875 16.9658 20.6533 16.726 20.4351L16.6115 20.528C16.7757 20.8067 17.1171 21.1502 17.3201 21.3986C17.1797 21.3036 17.1408 21.336 17.0652 21.3965C16.7239 21.0551 16.5359 20.5885 16.1189 20.3076C16.2183 20.4329 16.3199 20.5582 16.4214 20.6814C16.0282 20.5885 15.676 19.841 15.3347 19.4996Z" fill="white" stroke="#00ABCC"/>
<path d="M91.5848 106.079C90.4851 104.767 89.4784 102.933 88.383 101.598C87.05 100.008 85.784 98.1652 84.6131 96.4649C84.693 96.4087 84.9112 96.467 84.855 96.2985C84.585 95.6482 84.747 95.5359 84.909 95.4257C84.989 95.3696 85.2029 95.8513 85.1856 95.6526C85.4772 96.0782 86.0065 96.7587 85.7948 96.2791C85.7775 96.0803 85.3066 95.5705 85.3303 95.3436C85.3541 95.1189 85.6695 95.3199 85.6933 95.0952C85.5961 94.9526 85.4016 94.6696 85.3044 94.527C85.2871 94.3304 85.6436 94.5011 85.5464 94.3606C85.3346 93.8789 84.9026 93.3409 84.5137 92.7727C84.5936 92.7187 84.5785 92.5199 84.8118 92.777C88.3074 97.6812 91.9801 102.674 95.2726 107.719C95.6226 108.313 95.1689 107.999 94.7541 107.658C94.8924 107.77 94.7714 107.855 94.9097 107.969C94.7887 108.051 94.3912 107.907 93.9591 107.369C94.0585 107.511 94.1557 107.652 94.2529 107.794C94.3112 107.963 94.1319 107.876 94.052 107.932C93.9526 107.79 93.8554 107.649 93.8144 107.678C93.7755 107.706 93.6934 107.76 93.6545 107.788C93.7517 107.93 93.9461 108.213 94.0434 108.356C93.9461 108.213 93.8489 108.071 93.8079 108.099C93.769 108.127 93.6869 108.183 93.648 108.211C93.4103 107.954 93.1986 107.474 92.9653 107.217L92.8422 107.302C92.9977 107.613 93.3304 108.01 93.5249 108.293C93.3887 108.181 93.3477 108.207 93.2656 108.263C92.9329 107.866 92.7622 107.358 92.3474 107.016L92.6412 107.44C92.2437 107.297 91.9175 106.476 91.5848 106.079Z" fill="white" stroke="#00ABCC"/>
<path d="M42.9772 12.6438C42.3874 11.6565 42.0417 10.2954 41.4605 9.29296C40.7454 8.09824 40.1664 6.71988 39.6328 5.44955C39.7214 5.41066 39.9029 5.46035 39.9029 5.33504C39.8597 4.85543 40.0411 4.77765 40.2226 4.70204C40.3112 4.66531 40.3566 5.01962 40.4019 4.87703C40.5359 5.19462 40.8038 5.70448 40.7606 5.34801C40.8059 5.20542 40.538 4.8187 40.6288 4.65667C40.7195 4.49248 40.9442 4.64803 41.0349 4.48599C40.9896 4.38013 40.901 4.16625 40.8578 4.06039C40.9031 3.9178 41.1732 4.05391 41.1278 3.94805C41.0846 3.59157 40.8621 3.18757 40.6828 2.76413C40.7735 2.72524 40.8189 2.58049 40.9528 2.77493C42.6034 6.44335 44.3879 10.1809 45.8117 13.9444C45.9456 14.3873 45.6302 14.1453 45.3623 13.8839C45.4509 13.9725 45.3148 14.0286 45.4055 14.1151C45.2694 14.1734 44.954 14.0567 44.7314 13.6506C44.7768 13.7564 44.82 13.8623 44.8654 13.9681C44.8654 14.0934 44.7293 14.0265 44.6385 14.0632C44.5932 13.9573 44.55 13.8515 44.5046 13.8709C44.4592 13.8904 44.3685 13.9293 44.3231 13.9465C44.3685 14.0524 44.4571 14.2663 44.5024 14.37C44.4571 14.2663 44.4117 14.1583 44.3685 14.1777C44.3231 14.1971 44.2324 14.236 44.187 14.2533C44.0531 14.061 44.0099 13.7067 43.8737 13.5123L43.7398 13.5706C43.783 13.8018 43.9623 14.0999 44.0509 14.3117C43.9623 14.2252 43.917 14.2425 43.8262 14.2814C43.6469 13.9833 43.6491 13.6073 43.379 13.3481C43.4244 13.454 43.4676 13.5598 43.513 13.6657C43.1975 13.549 43.1565 12.9419 42.9772 12.6438Z" fill="white" stroke="#00ABCC"/>
<path d="M119.053 71.5612C117.903 71.6044 116.542 71.2523 115.384 71.2803C113.993 71.3344 112.506 71.1788 111.135 71.0384C111.145 70.9412 111.275 70.8051 111.165 70.7446C110.724 70.5523 110.743 70.3557 110.765 70.1612C110.774 70.064 111.106 70.1958 111.003 70.0878C111.346 70.1224 111.923 70.1332 111.59 69.9992C111.485 69.8912 111.018 69.9409 110.918 69.7832C110.819 69.6255 111.063 69.5023 110.964 69.3446C110.849 69.3316 110.62 69.3079 110.506 69.2971C110.402 69.1869 110.651 69.0162 110.536 69.0033C110.203 68.8715 109.741 68.8715 109.285 68.8239C109.294 68.7267 109.19 68.6187 109.423 68.5928C113.435 68.9082 117.57 69.1394 121.556 69.7011C122.008 69.7961 121.645 69.956 121.286 70.0662C121.405 70.0295 121.39 70.1764 121.511 70.1396C121.496 70.2865 121.241 70.5048 120.779 70.5069C120.893 70.5199 121.008 70.5307 121.122 70.5436C121.23 70.6041 121.107 70.6884 121.096 70.7856C120.982 70.7748 120.867 70.7619 120.863 70.8115C120.859 70.8612 120.848 70.9585 120.844 71.006C120.958 71.0189 121.185 71.0427 121.299 71.0535C121.185 71.0427 121.07 71.0297 121.066 71.0794L121.047 71.2739C120.813 71.2998 120.481 71.1658 120.245 71.1918L120.23 71.3387C120.455 71.41 120.802 71.397 121.031 71.4208C120.91 71.4575 120.906 71.5072 120.895 71.6044C120.548 71.6174 120.221 71.4359 119.863 71.5461C119.977 71.5591 120.092 71.5699 120.206 71.5828C119.951 71.8032 119.4 71.5482 119.053 71.5612Z" fill="white" stroke="#00ABCC"/>
<path d="M84.3126 22.0226C85.0169 21.2297 86.1382 20.5773 86.8597 19.7909C87.7131 18.8316 88.7717 17.9566 89.7504 17.1465C89.8131 17.2221 89.826 17.4036 89.9384 17.3733C90.3575 17.2178 90.4828 17.369 90.6081 17.5202C90.6708 17.5959 90.364 17.7233 90.5066 17.732C90.2624 17.9329 89.8865 18.3088 90.1933 18.1813C90.338 18.19 90.6016 17.8443 90.7766 17.8897C90.9516 17.9372 90.8825 18.1857 91.0575 18.231C91.1396 18.164 91.3016 18.0279 91.3837 17.961C91.5263 17.9696 91.4896 18.2548 91.5717 18.1878C91.8784 18.0625 92.1723 17.7536 92.4985 17.4857C92.5611 17.5613 92.7059 17.5678 92.5741 17.7406C89.7828 20.1754 86.9721 22.7506 84.0253 24.9953C83.6666 25.2265 83.7876 24.8744 83.9388 24.5589C83.887 24.6626 83.7941 24.5503 83.7444 24.6562C83.6493 24.5417 83.658 24.2176 83.9518 23.9108C83.8697 23.9778 83.7898 24.0448 83.7077 24.1139C83.5953 24.142 83.6148 23.9994 83.5521 23.9238C83.6321 23.8568 83.7142 23.7898 83.6839 23.7509C83.6515 23.7142 83.5889 23.6386 83.5586 23.5997C83.4765 23.6667 83.3145 23.8028 83.2324 23.8698C83.3145 23.8028 83.3944 23.7358 83.3642 23.6969C83.3318 23.6602 83.2691 23.5846 83.2389 23.5457C83.3706 23.3729 83.6774 23.2476 83.8092 23.0747L83.7163 22.9602C83.5219 23.0574 83.308 23.2972 83.146 23.4333C83.1957 23.3275 83.1632 23.2886 83.1006 23.213C83.3145 22.9732 83.6537 22.8846 83.8049 22.5692C83.7228 22.6361 83.6407 22.7053 83.5586 22.7723C83.5672 22.4482 84.0987 22.2624 84.3126 22.0226Z" fill="white" stroke="#00ABCC"/>
<path d="M11.6335 43.6372C10.4345 43.8252 8.96105 43.6459 7.74905 43.8187C6.29723 44.0477 4.71796 44.0801 3.26182 44.1125C3.25966 44.0153 3.37849 43.8641 3.25534 43.8187C2.76709 43.6826 2.76276 43.486 2.75844 43.2894C2.75628 43.1922 3.1214 43.2807 2.99825 43.1857C3.36336 43.1792 3.97045 43.1166 3.60317 43.0258C3.48003 42.9308 2.99609 43.0388 2.87079 42.894C2.74764 42.7493 2.98529 42.5981 2.86214 42.4533C2.74116 42.4555 2.49703 42.4619 2.37605 42.4641C2.2529 42.369 2.49055 42.166 2.36957 42.1703C2.00229 42.0795 1.51835 42.1379 1.03226 42.1487C1.0301 42.0515 0.906951 41.9564 1.14892 41.9024C5.39633 41.7123 9.76257 41.4206 14.0165 41.4768C14.5026 41.5157 14.1439 41.7188 13.7831 41.8743C13.902 41.8225 13.9063 41.9694 14.0251 41.9175C14.0294 42.0644 13.7918 42.315 13.3078 42.3755C13.4288 42.3712 13.5498 42.369 13.6708 42.3669C13.7939 42.4123 13.6751 42.5138 13.6773 42.611C13.5541 42.6153 13.4332 42.6175 13.4353 42.6672C13.4353 42.7147 13.4375 42.8141 13.4396 42.8616L13.9236 42.853C13.8026 42.8551 13.6816 42.8573 13.6838 42.907C13.6838 42.9545 13.6859 43.0539 13.6859 43.1014C13.4461 43.1576 13.0788 43.0669 12.8369 43.1209L12.8412 43.2678C13.0853 43.311 13.4483 43.2548 13.6902 43.2483C13.5693 43.3002 13.5714 43.3499 13.5736 43.4493C13.2106 43.5054 12.8434 43.365 12.4804 43.5206L12.8455 43.5141C12.6079 43.7625 11.9965 43.5811 11.6335 43.6372Z" fill="white" stroke="#00ABCC"/>
<path d="M68.2477 4.78013C67.7054 6.13256 66.6814 7.58869 66.1197 8.94544C65.4607 10.5831 64.562 12.2552 63.7324 13.7999C63.646 13.7546 63.5855 13.5558 63.4731 13.6617C63.067 14.1067 62.8941 14.0138 62.7213 13.9209C62.6327 13.8734 62.9287 13.5342 62.7732 13.6163C62.9806 13.2296 63.283 12.562 62.9892 12.9034C62.8337 12.9855 62.6435 13.5472 62.4448 13.6055C62.246 13.6638 62.2547 13.3376 62.0559 13.3959C61.9868 13.5256 61.8485 13.7827 61.7794 13.9123C61.6238 13.9944 61.5892 13.6444 61.5201 13.7719C61.2241 14.111 60.9908 14.649 60.7143 15.1653C60.6278 15.1178 60.4723 15.1999 60.5674 14.919C62.9028 10.3692 65.2231 5.64214 67.7746 1.20677C68.0943 0.71635 68.0597 1.19381 67.982 1.64966C68.0079 1.49843 68.1375 1.56756 68.1634 1.41633C68.2931 1.48546 68.3708 1.85922 68.1375 2.39717C68.2067 2.2697 68.2758 2.14008 68.3449 2.01045C68.4573 1.90675 68.4745 2.08174 68.561 2.12711C68.4897 2.25674 68.4227 2.3842 68.4659 2.40797C68.5091 2.43173 68.5955 2.4771 68.6366 2.50087C68.7079 2.3734 68.8461 2.11415 68.9153 1.98669C68.8461 2.11415 68.777 2.24378 68.8202 2.26754C68.8634 2.28915 68.9498 2.33668 68.993 2.36044C68.898 2.6413 68.602 2.98048 68.5069 3.26134L68.6366 3.33048C68.8202 3.09715 68.9822 2.68667 69.1227 2.42957C69.0968 2.5808 69.1378 2.60457 69.2264 2.6521C69.06 3.06042 68.723 3.378 68.6452 3.8317C68.7144 3.70423 68.7835 3.5746 68.8526 3.44714C68.9304 3.82089 68.4119 4.36964 68.2477 4.78013Z" fill="white" stroke="#00ABCC"/>
<path d="M103.843 38.373C105.033 38.064 106.537 38.0921 107.74 37.7983C109.181 37.4245 110.769 37.2301 112.236 37.0508C112.247 37.148 112.143 37.3079 112.271 37.3424C112.779 37.4289 112.802 37.6233 112.826 37.8177C112.837 37.915 112.459 37.8631 112.593 37.9452C112.228 37.9906 111.621 38.1137 112.001 38.1656C112.135 38.2477 112.612 38.0921 112.75 38.2217C112.891 38.3535 112.664 38.5285 112.804 38.6603L113.293 38.5998C113.427 38.6841 113.206 38.9088 113.329 38.8936C113.708 38.9455 114.189 38.8375 114.68 38.777C114.691 38.8742 114.824 38.9563 114.587 39.0362C110.322 39.6563 105.949 40.3887 101.654 40.7646C101.162 40.7754 101.503 40.5356 101.853 40.3454C101.737 40.4103 101.719 40.2633 101.603 40.326C101.583 40.1812 101.799 39.9069 102.281 39.7989L101.916 39.8442C101.786 39.8097 101.896 39.6973 101.886 39.6001C102.009 39.585 102.13 39.5698 102.123 39.5223C102.119 39.4726 102.106 39.3754 102.1 39.3279C101.979 39.343 101.732 39.3711 101.611 39.3862C101.732 39.3711 101.855 39.3581 101.849 39.3084C101.845 39.2587 101.832 39.1615 101.825 39.114C102.065 39.0341 102.443 39.0881 102.681 39.0081L102.663 38.8634C102.413 38.8439 102.052 38.9368 101.808 38.9671C101.925 38.9044 101.918 38.8547 101.907 38.7575C102.266 38.6646 102.65 38.7662 103 38.5739L102.633 38.6193C102.847 38.347 103.482 38.4659 103.843 38.373Z" fill="white" stroke="#00ABCC"/>
<path d="M33.5536 74.4279C33.1971 75.2575 32.4237 76.0418 32.05 76.8714C31.62 77.8738 30.9762 78.8439 30.3821 79.7404C30.3 79.6864 30.2266 79.5309 30.1358 79.5784C29.8161 79.7945 29.6519 79.6864 29.4877 79.5784C29.4077 79.5244 29.6368 79.3537 29.505 79.3732C29.654 79.1506 29.8614 78.7488 29.6303 78.9195C29.5006 78.9411 29.384 79.2932 29.2111 79.2867C29.0383 79.2803 29.0145 79.0491 28.8439 79.0426C28.7942 79.1161 28.6948 79.2651 28.6451 79.3408C28.5133 79.3602 28.4485 79.1031 28.401 79.1787C28.1698 79.3472 28.0121 79.6735 27.8155 79.9716C27.7334 79.9176 27.6016 79.937 27.66 79.762C29.3105 77.0961 30.9309 74.3005 32.7867 71.7684C33.0265 71.4984 33.0416 71.8311 33.0157 72.1357C33.0243 72.0342 33.1453 72.1141 33.1539 72.0126C33.2771 72.0947 33.3829 72.3798 33.2252 72.7061C33.2749 72.6304 33.3246 72.557 33.3743 72.4814C33.465 72.4338 33.4974 72.5635 33.5774 72.6175C33.5277 72.6909 33.4802 72.7666 33.5191 72.7925L33.6832 72.9027C33.7329 72.8271 33.8323 72.678 33.882 72.6024C33.8323 72.678 33.7826 72.7514 33.8237 72.7795C33.8647 72.8076 33.9447 72.8616 33.9879 72.8875C33.9295 73.0647 33.6984 73.2332 33.64 73.4104L33.7632 73.4925C33.9036 73.3693 34.0095 73.1187 34.1089 72.9696C34.1002 73.0712 34.1413 73.0993 34.2234 73.1533C34.1153 73.4039 33.8453 73.5465 33.8194 73.8511C33.869 73.7776 33.9187 73.702 33.9663 73.6286C34.0721 73.9116 33.6616 74.1773 33.5536 74.4279Z" fill="white" stroke="#00ABCC"/>
</svg>
