<svg width="1056" height="162" viewBox="0 0 1056 162" fill="none" xmlns="http://www.w3.org/2000/svg">
<mask id="mask0_211_7" style="mask-type:alpha" maskUnits="userSpaceOnUse" x="-35" y="0" width="1091" height="162">
<rect x="-34.4268" y="0.5" width="1089.91" height="161" fill="white" stroke="#707070"/>
</mask>
<g mask="url(#mask0_211_7)">
<path d="M744.535 -29.0054C767.764 -72.3469 816.738 -107.482 853.919 -107.482C891.1 -107.482 902.411 -72.3469 879.18 -29.0054C855.951 14.3362 806.979 49.4717 769.796 49.4717C732.615 49.4717 721.306 14.3362 744.535 -29.0054Z" fill="#00E2FF" stroke="black" stroke-width="2"/>
<path d="M660.977 -29.0054C684.206 -72.3469 733.18 -107.482 770.361 -107.482C807.542 -107.482 818.853 -72.3469 795.622 -29.0054C772.393 14.3362 723.42 49.4717 686.238 49.4717C649.057 49.4717 637.747 14.3362 660.977 -29.0054Z" fill="#00E2FF" stroke="black" stroke-width="2"/>
<path d="M578.475 -29.0054C601.705 -72.3469 650.679 -107.482 687.86 -107.482C725.041 -107.482 736.352 -72.3469 713.121 -29.0054C689.892 14.3362 640.919 49.4717 603.737 49.4717C566.556 49.4717 555.246 14.3362 578.475 -29.0054Z" fill="#00E2FF" stroke="black" stroke-width="2"/>
<path d="M494.916 -29.0054C518.146 -72.3469 567.121 -107.482 604.302 -107.482C641.481 -107.482 652.794 -72.3469 629.562 -29.0054C606.332 14.3362 557.362 49.4717 520.179 49.4717C482.998 49.4717 471.688 14.3362 494.916 -29.0054Z" fill="#00E2FF" stroke="black" stroke-width="2"/>
<path d="M391.262 28.3179C414.492 -15.0236 463.465 -50.1591 500.646 -50.1591C537.827 -50.1591 549.139 -15.0236 525.908 28.3179C502.678 71.6595 453.706 106.795 416.524 106.795C379.343 106.795 368.033 71.6595 391.262 28.3179Z" fill="#00E2FF" stroke="black" stroke-width="2"/>
<path d="M308.761 28.3179C331.991 -15.0236 380.964 -50.1591 418.145 -50.1591C455.326 -50.1591 466.637 -15.0236 443.407 28.3179C420.177 71.6595 371.205 106.795 334.022 106.795C296.841 106.795 285.532 71.6595 308.761 28.3179Z" fill="#00E2FF" stroke="black" stroke-width="2"/>
<path d="M225.202 28.3179C248.432 -15.0236 297.406 -50.1591 334.587 -50.1591C371.768 -50.1591 383.079 -15.0236 359.848 28.3179C336.619 71.6595 287.646 106.795 250.464 106.795C213.283 106.795 201.973 71.6595 225.202 28.3179Z" fill="#00E2FF" stroke="black" stroke-width="2"/>
<path d="M142.702 28.3179C165.931 -15.0236 214.905 -50.1591 252.086 -50.1591C289.267 -50.1591 300.578 -15.0236 277.347 28.3179C254.118 71.6595 205.146 106.795 167.963 106.795C130.782 106.795 119.472 71.6595 142.702 28.3179Z" fill="#00E2FF" stroke="black" stroke-width="2"/>
<path d="M59.1432 28.3179C82.3726 -15.0236 131.346 -50.1591 168.527 -50.1591C205.708 -50.1591 217.02 -15.0236 193.789 28.3179C170.559 71.6595 121.587 106.795 84.4045 106.795C47.2235 106.795 35.9138 71.6595 59.1432 28.3179Z" fill="#00E2FF" stroke="black" stroke-width="2"/>
<path d="M-23.3578 28.3179C-0.1284 -15.0236 48.8455 -50.1591 86.0264 -50.1591C123.207 -50.1591 134.519 -15.0236 111.288 28.3179C88.0583 71.6595 39.086 106.795 1.90351 106.795C-35.2774 106.795 -46.5872 71.6595 -23.3578 28.3179Z" fill="#00E2FF" stroke="black" stroke-width="2"/>
</g>
</svg>
