<svg width="985" height="194" viewBox="0 0 985 194" fill="none" xmlns="http://www.w3.org/2000/svg">
<mask id="mask0_148_4736" style="mask-type:alpha" maskUnits="userSpaceOnUse" x="0" y="0" width="985" height="194">
<rect x="0.5" y="0.5" width="984" height="193" fill="white" stroke="#707070"/>
</mask>
<g mask="url(#mask0_148_4736)">
<path d="M169.462 169C147.5 209.977 101.198 243.196 66.045 243.196C30.8925 243.196 20.1983 209.977 42.1618 169C64.124 128.023 110.425 94.8043 145.578 94.8043C180.731 94.8043 191.424 128.023 169.462 169Z" fill="#00E2FF" stroke="black" stroke-width="2"/>
<path d="M247.462 169C225.5 209.977 179.198 243.196 144.045 243.196C108.892 243.196 98.1983 209.977 120.162 169C142.124 128.023 188.425 94.8043 223.578 94.8043C258.731 94.8043 269.424 128.023 247.462 169Z" fill="#00E2FF" stroke="black" stroke-width="2"/>
<path d="M325.462 169C303.5 209.977 257.198 243.196 222.045 243.196C186.892 243.196 176.198 209.977 198.162 169C220.124 128.023 266.425 94.8043 301.578 94.8043C336.731 94.8043 347.424 128.023 325.462 169Z" fill="#00E2FF" stroke="black" stroke-width="2"/>
<path d="M404.462 169C382.5 209.977 336.198 243.196 301.045 243.196C265.892 243.196 255.198 209.977 277.162 169C299.124 128.023 345.425 94.8043 380.578 94.8043C415.731 94.8043 426.424 128.023 404.462 169Z" fill="#00E2FF" stroke="black" stroke-width="2"/>
<path d="M482.462 169C460.5 209.977 414.198 243.196 379.045 243.196C343.892 243.196 333.198 209.977 355.162 169C377.124 128.023 423.424 94.8043 458.578 94.8043C493.731 94.8043 504.424 128.023 482.462 169Z" fill="#00E2FF" stroke="black" stroke-width="2"/>
<path d="M561.462 169C539.5 209.977 493.197 243.196 458.044 243.196C422.893 243.196 412.198 209.977 434.163 169C456.125 128.023 502.424 94.8043 537.578 94.8043C572.73 94.8043 583.423 128.023 561.462 169Z" fill="#00E2FF" stroke="black" stroke-width="2"/>
<path d="M659.462 114.804C637.5 155.781 591.198 189 556.045 189C520.892 189 510.198 155.781 532.162 114.804C554.124 73.8273 600.425 40.6087 635.579 40.6087C670.731 40.6087 681.424 73.8273 659.462 114.804Z" fill="#00E2FF" stroke="black" stroke-width="2"/>
<path d="M737.462 114.804C715.5 155.781 669.198 189 634.045 189C598.892 189 588.198 155.781 610.162 114.804C632.124 73.8273 678.425 40.6087 713.578 40.6087C748.731 40.6087 759.424 73.8273 737.462 114.804Z" fill="#00E2FF" stroke="black" stroke-width="2"/>
<path d="M816.462 114.804C794.5 155.781 748.198 189 713.045 189C677.892 189 667.198 155.781 689.162 114.804C711.124 73.8273 757.425 40.6087 792.578 40.6087C827.731 40.6087 838.424 73.8273 816.462 114.804Z" fill="#00E2FF" stroke="black" stroke-width="2"/>
<path d="M894.462 114.804C872.5 155.781 826.198 189 791.045 189C755.892 189 745.198 155.781 767.162 114.804C789.124 73.8273 835.425 40.6087 870.578 40.6087C905.731 40.6087 916.424 73.8273 894.462 114.804Z" fill="#00E2FF" stroke="black" stroke-width="2"/>
<path d="M973.462 114.804C951.5 155.781 905.198 189 870.045 189C834.892 189 824.198 155.781 846.162 114.804C868.124 73.8273 914.425 40.6087 949.578 40.6087C984.731 40.6087 995.424 73.8273 973.462 114.804Z" fill="#00E2FF" stroke="black" stroke-width="2"/>
<path d="M1051.46 114.804C1029.5 155.781 983.198 189 948.045 189C912.892 189 902.198 155.781 924.162 114.804C946.124 73.8273 992.424 40.6087 1027.58 40.6087C1062.73 40.6087 1073.42 73.8273 1051.46 114.804Z" fill="#00E2FF" stroke="black" stroke-width="2"/>
</g>
</svg>
