<svg width="91" height="91" viewBox="0 0 91 91" fill="none" xmlns="http://www.w3.org/2000/svg">
<path d="M42.7751 12.6194L42.6336 3.89325L47.8659 3.80843L47.8811 4.7458L43.7055 4.81349L43.7533 7.76196L47.5369 7.70063L47.5521 8.638L43.7685 8.69934L43.8318 12.6022L42.7751 12.6194Z" fill="black"/>
<path d="M50.0363 13.0579C49.4512 12.9753 48.9575 12.7636 48.5552 12.4228C48.1556 12.0824 47.8674 11.6443 47.6906 11.1087C47.5165 10.5734 47.4767 9.97106 47.5712 9.30156C47.6665 8.62643 47.872 8.05438 48.1878 7.58538C48.5064 7.11679 48.9048 6.77422 49.3829 6.55766C49.8639 6.34151 50.3969 6.27472 50.982 6.3573C51.5671 6.43988 52.0595 6.65138 52.459 6.9918C52.8613 7.33262 53.1493 7.77207 53.323 8.31014C53.4995 8.84861 53.5401 9.4554 53.4448 10.1305C53.3503 10.8 53.1439 11.3677 52.8257 11.8334C52.5103 12.2996 52.1121 12.6408 51.6312 12.8569C51.1531 13.0735 50.6214 13.1405 50.0363 13.0579ZM50.1626 12.1634C50.607 12.2261 50.9888 12.1638 51.3079 11.9764C51.627 11.7891 51.8817 11.5195 52.0719 11.1676C52.2621 10.8157 52.3878 10.4232 52.449 9.98999C52.5101 9.55678 52.4982 9.14338 52.4131 8.7498C52.3281 8.35621 52.1584 8.02384 51.904 7.75267C51.6496 7.48151 51.3002 7.31457 50.8558 7.25184C50.4113 7.18911 50.0293 7.25283 49.7099 7.443C49.3904 7.63317 49.1353 7.9056 48.9447 8.26028C48.754 8.61495 48.6281 9.0089 48.567 9.4421C48.5059 9.87531 48.518 10.2873 48.6034 10.6781C48.6889 11.0688 48.859 11.3984 49.1137 11.6668C49.3685 11.9351 49.7181 12.1006 50.1626 12.1634Z" fill="black"/>
<path d="M55.8683 5.20826L53.7333 13.6704L52.7582 13.4243L54.8931 4.96224L55.8683 5.20826Z" fill="black"/>
<path d="M58.5323 6.00224L55.8341 14.302L54.8777 13.991L57.5759 5.69131L58.5323 6.00224Z" fill="black"/>
<path d="M58.8175 15.6262C58.2785 15.3842 57.863 15.0436 57.5713 14.6043C57.2822 14.1663 57.1271 13.6654 57.1061 13.1017C57.0877 12.5391 57.217 11.9494 57.4939 11.3326C57.7731 10.7105 58.1295 10.2182 58.5633 9.85547C58.9996 9.49392 59.4775 9.2756 59.997 9.20051C60.5191 9.12658 61.0497 9.21061 61.5888 9.4526C62.1278 9.69458 62.542 10.0346 62.8311 10.4727C63.1228 10.9119 63.2773 11.4141 63.2945 11.9793C63.3144 12.5456 63.1847 13.1397 62.9055 13.7617C62.6286 14.3786 62.2725 14.8665 61.8374 15.2254C61.4048 15.5856 60.9275 15.8026 60.4054 15.8765C59.8859 15.9516 59.3566 15.8682 58.8175 15.6262ZM59.1875 14.802C59.597 14.9858 59.981 15.0321 60.3396 14.9408C60.6982 14.8496 61.0178 14.6614 61.2984 14.3763C61.5789 14.0912 61.8088 13.749 61.988 13.3499C62.1671 12.9508 62.2706 12.5504 62.2983 12.1486C62.3261 11.7469 62.2554 11.3805 62.0865 11.0493C61.9175 10.7181 61.6283 10.4606 61.2188 10.2768C60.8093 10.093 60.4247 10.048 60.0649 10.1418C59.7052 10.2357 59.3844 10.4265 59.1027 10.7142C58.821 11.0019 58.5905 11.3453 58.4113 11.7444C58.2322 12.1435 58.1293 12.5427 58.1027 12.9418C58.0762 13.3409 58.1479 13.7048 58.3181 14.0334C58.4882 14.362 58.778 14.6182 59.1875 14.802Z" fill="black"/>
<path d="M61.8408 16.9389L63.8671 10.4032L64.7415 10.9968L63.0973 15.9377L63.1537 15.976L67.1249 12.6148L68.0134 13.218L66.3506 18.1256L66.407 18.1639L70.3826 14.8264L71.257 15.4199L65.9306 19.7153L65.1127 19.16L66.7523 14.1955L66.6677 14.138L62.6588 17.4942L61.8408 16.9389Z" fill="black"/>
<path d="M78.1795 19.8011L78.8804 20.592L74.5555 24.4242C74.1089 24.8198 73.617 25.0678 73.0796 25.1682C72.5463 25.2688 72.01 25.2183 71.4707 25.0167C70.9336 24.8132 70.438 24.4552 69.984 23.9428C69.5299 23.4303 69.2342 22.8952 69.0968 22.3375C68.9616 21.7779 68.9751 21.2384 69.1373 20.7189C69.3035 20.1997 69.6098 19.7422 70.0564 19.3466L74.3813 15.5144L75.0821 16.3054L70.821 20.081C70.5021 20.3636 70.2804 20.6853 70.1559 21.0461C70.0336 21.405 70.0162 21.7773 70.1036 22.1629C70.195 22.5488 70.4018 22.9235 70.7239 23.2871C71.0461 23.6507 71.3932 23.9011 71.7653 24.0383C72.1395 24.1736 72.5112 24.2011 72.8803 24.1207C73.2534 24.0406 73.5994 23.8593 73.9184 23.5767L78.1795 19.8011Z" fill="black"/>
<path d="M78.7197 27.1925L78.0173 26.5694C78.1135 26.4404 78.1916 26.291 78.2515 26.1211C78.3153 25.952 78.3362 25.7633 78.314 25.5548C78.2919 25.3464 78.202 25.1189 78.0442 24.8725C77.8283 24.5351 77.5706 24.3037 77.2711 24.1783C76.9755 24.0538 76.7093 24.0674 76.4724 24.219C76.2619 24.3538 76.1446 24.5368 76.1206 24.768C76.0965 24.9993 76.148 25.3037 76.2749 25.6811L76.5977 26.6281C76.7936 27.1976 76.8456 27.682 76.7539 28.0814C76.6645 28.4793 76.4272 28.8016 76.042 29.0481C75.7261 29.2503 75.3856 29.3401 75.0204 29.3175C74.6566 29.2973 74.2996 29.1717 73.9493 28.9406C73.599 28.7094 73.2868 28.3797 73.0126 27.9514C72.6527 27.3891 72.4768 26.8456 72.485 26.3209C72.4932 25.7962 72.7004 25.3348 73.1066 24.9365L73.8222 25.6118C73.5745 25.8783 73.4447 26.1655 73.4326 26.4734C73.4221 26.7837 73.5279 27.1123 73.75 27.4592C74.0027 27.854 74.287 28.1139 74.6031 28.2388C74.9231 28.3645 75.2015 28.3516 75.4384 28.2C75.6298 28.0774 75.7472 27.9078 75.7907 27.6911C75.8365 27.4729 75.8029 27.2043 75.6898 26.8854L75.3171 25.8288C75.1135 25.2473 75.0616 24.7578 75.1612 24.3601C75.2647 23.9632 75.5067 23.6431 75.8872 23.3996C76.1982 23.2005 76.5293 23.1117 76.8804 23.1332C77.233 23.1571 77.5747 23.2773 77.9056 23.4939C78.238 23.7129 78.5283 24.0162 78.7764 24.4038C79.1256 24.9494 79.2801 25.4542 79.2399 25.9184C79.2013 26.385 79.0279 26.8097 78.7197 27.1925Z" fill="black"/>
<path d="M75.9397 33.1246L84.2446 30.4425L85.8528 35.4223L84.9607 35.7104L83.6773 31.7363L80.8711 32.6425L82.034 36.2435L81.1419 36.5316L79.979 32.9307L76.2644 34.1302L75.9397 33.1246Z" fill="black"/>
<path d="M77.7134 40.2943C77.6173 39.7113 77.6717 39.1768 77.8767 38.691C78.0821 38.208 78.414 37.802 78.8722 37.4731C79.331 37.147 79.8939 36.9289 80.5611 36.819C81.2338 36.7081 81.8412 36.7332 82.3831 36.8943C82.9255 37.0583 83.3715 37.336 83.7211 37.7276C84.0712 38.1219 84.2942 38.6106 84.3903 39.1937C84.4865 39.7767 84.4318 40.3097 84.2264 40.7927C84.0214 41.2786 83.6882 41.6848 83.2266 42.0114C82.7655 42.3407 82.1986 42.5609 81.5259 42.6718C80.8587 42.7818 80.2554 42.7545 79.7158 42.5901C79.1766 42.4285 78.732 42.1505 78.382 41.7562C78.0324 41.3646 77.8095 40.8774 77.7134 40.2943ZM78.6048 40.1474C78.6778 40.5903 78.8514 40.9359 79.1256 41.1844C79.3998 41.4329 79.7332 41.5953 80.1258 41.6717C80.5185 41.7481 80.9306 41.7506 81.3623 41.6795C81.794 41.6083 82.1849 41.4733 82.5351 41.2745C82.8852 41.0757 83.1517 40.8144 83.3344 40.4906C83.5171 40.1668 83.572 39.7835 83.499 39.3406C83.426 38.8977 83.251 38.5522 82.974 38.3042C82.697 38.0562 82.3608 37.8942 81.9653 37.8183C81.5699 37.7425 81.1563 37.7401 80.7246 37.8112C80.293 37.8824 79.9034 38.0172 79.5561 38.2155C79.2087 38.4138 78.9451 38.6747 78.7652 38.998C78.5852 39.3214 78.5318 39.7045 78.6048 40.1474Z" fill="black"/>
<path d="M86.9497 43.5298L78.2366 44.0267L78.1793 43.0227L86.8924 42.5257L86.9497 43.5298Z" fill="black"/>
<path d="M86.9904 46.2571L78.2643 46.1156L78.2806 45.11L87.0067 45.2515L86.9904 46.2571Z" fill="black"/>
<path d="M77.9052 49.4849C77.9723 48.8979 78.171 48.3987 78.501 47.9875C78.8308 47.5792 79.2611 47.2795 79.7919 47.0886C80.3224 46.9004 80.9235 46.8448 81.5953 46.9216C82.2727 46.999 82.8499 47.1894 83.3271 47.4927C83.8039 47.7989 84.1569 48.1881 84.386 48.6603C84.6148 49.1354 84.6956 49.6665 84.6285 50.2536C84.5613 50.8406 84.3629 51.3384 84.0331 51.7467C83.703 52.1579 83.2713 52.4574 82.738 52.6452C82.2044 52.8358 81.5989 52.8924 80.9215 52.815C80.2497 52.7382 79.6769 52.5469 79.2028 52.2411C78.7285 51.9381 78.377 51.549 78.1482 51.074C77.9191 50.6017 77.8381 50.072 77.9052 49.4849ZM78.8028 49.5876C78.7518 50.0335 78.8242 50.4135 79.0199 50.7275C79.2156 51.0416 79.4918 51.289 79.8486 51.4699C80.2053 51.6508 80.6011 51.7661 81.0357 51.8158C81.4704 51.8655 81.8833 51.8427 82.2745 51.7473C82.6657 51.6519 82.9935 51.4735 83.2579 51.212C83.5222 50.9506 83.6799 50.5969 83.7309 50.151C83.7819 49.705 83.7081 49.3248 83.5096 49.0105C83.311 48.6961 83.032 48.4483 82.6724 48.2671C82.3128 48.0859 81.9157 47.9704 81.481 47.9208C81.0464 47.8711 80.6348 47.8941 80.2465 47.9898C79.8581 48.0855 79.5331 48.2642 79.2716 48.526C79.01 48.7877 78.8538 49.1416 78.8028 49.5876Z" fill="black"/>
<path d="M77.5726 52.7709L84.415 52.7258L84.1137 53.7387L78.9069 53.6658L78.8875 53.7311L83.2923 56.4998L82.9861 57.5291L77.8054 57.4283L77.786 57.4937L82.1695 60.2738L81.8682 61.2868L76.1631 57.5089L76.445 56.5613L81.6729 56.6227L81.7021 56.5247L77.2907 53.7185L77.5726 52.7709Z" fill="black"/>
<path d="M79.77 69.1932L79.2257 70.099L74.2726 67.1229C73.7612 66.8157 73.3771 66.4208 73.1201 65.9383C72.8642 65.4597 72.7515 64.9329 72.782 64.358C72.8151 63.7846 73.0079 63.2044 73.3605 62.6176C73.7131 62.0307 74.1349 61.5881 74.6257 61.2897C75.1189 60.9929 75.6376 60.8439 76.1819 60.8427C76.7271 60.8455 77.2553 61.0006 77.7667 61.3078L82.7198 64.2839L82.1755 65.1898L77.2955 62.2576C76.9302 62.0381 76.5568 61.9231 76.1753 61.9127C75.7963 61.9037 75.4359 61.9987 75.0943 62.1977C74.7536 62.4007 74.4581 62.7104 74.2079 63.1268C73.9577 63.5432 73.823 63.9494 73.8037 64.3455C73.7869 64.7431 73.8722 65.1059 74.0596 65.4339C74.2479 65.7658 74.5247 66.0415 74.89 66.2609L79.77 69.1932Z" fill="black"/>
<path d="M72.8858 71.9184L73.2694 71.0614C73.4213 71.1145 73.5873 71.1441 73.7674 71.1502C73.9477 71.1604 74.1341 71.1237 74.3263 71.04C74.5185 70.9564 74.7085 70.8023 74.8963 70.5779C75.1533 70.2707 75.2967 69.9554 75.3264 69.6321C75.3565 69.3128 75.2637 69.0629 75.048 68.8824C74.8562 68.722 74.6465 68.6651 74.4187 68.7115C74.1909 68.758 73.916 68.8984 73.594 69.1328L72.7875 69.7248C72.303 70.0825 71.8565 70.2775 71.448 70.3098C71.0416 70.3439 70.663 70.2143 70.3122 69.9208C70.0246 69.6801 69.8368 69.3822 69.7487 69.027C69.6588 68.674 69.6716 68.2958 69.7869 67.8922C69.9023 67.4887 70.1231 67.0919 70.4495 66.7019C70.8779 66.1899 71.3435 65.8591 71.8465 65.7095C72.3495 65.5599 72.8519 65.619 73.3537 65.887L72.9242 66.7722C72.5957 66.6159 72.2828 66.5782 71.9854 66.6591C71.6863 66.7422 71.4045 66.9417 71.1402 67.2576C70.8394 67.6171 70.6769 67.9664 70.6526 68.3053C70.6286 68.6483 70.7245 68.91 70.9402 69.0905C71.1145 69.2363 71.3115 69.2974 71.5313 69.2739C71.7532 69.2521 71.9993 69.1395 72.2696 68.9359L73.1657 68.2633C73.6593 67.8947 74.1107 67.6983 74.52 67.674C74.9296 67.6537 75.3076 67.7885 75.6541 68.0783C75.9373 68.3153 76.1214 68.6045 76.2062 68.9458C76.2892 69.2894 76.277 69.6514 76.1697 70.0321C76.0605 70.4149 75.8583 70.7828 75.563 71.1357C75.1474 71.6325 74.7121 71.9314 74.2572 72.0324C73.8005 72.1355 73.3434 72.0975 72.8858 71.9184Z" fill="black"/>
<path d="M66.3551 71.0811L71.4183 78.1896L67.156 81.2255L66.6121 80.4619L70.0136 78.0391L68.3028 75.6372L65.2206 77.8325L64.6767 77.0689L67.7589 74.8736L65.4944 71.6942L66.3551 71.0811Z" fill="black"/>
<path d="M60.0749 74.9324C60.6012 74.6638 61.127 74.5534 61.6521 74.6012C62.1747 74.6503 62.6623 74.8432 63.1148 75.18C63.5648 75.5181 63.9435 75.9882 64.2508 76.5905C64.5607 77.1978 64.7212 77.7841 64.7322 78.3494C64.7406 78.916 64.6114 79.4253 64.3445 79.8772C64.075 80.3305 63.6772 80.6914 63.1508 80.96C62.6245 81.2286 62.1 81.3384 61.5774 81.2893C61.0523 81.2415 60.5641 81.0473 60.1128 80.7067C59.659 80.3674 59.2771 79.8941 58.9672 79.2868C58.6598 78.6845 58.5026 78.1013 58.4954 77.5373C58.4857 76.9745 58.6156 76.4665 58.885 76.0133C59.1519 75.5613 59.5486 75.201 60.0749 74.9324ZM60.4855 75.7371C60.0857 75.9411 59.8091 76.2115 59.6556 76.5482C59.502 76.8849 59.4485 77.2518 59.495 77.6491C59.5414 78.0464 59.6641 78.4399 59.863 78.8296C60.0618 79.2193 60.3091 79.5508 60.6049 79.8241C60.9006 80.0974 61.2305 80.2719 61.5945 80.3477C61.9585 80.4235 62.3404 80.3593 62.7402 80.1553C63.14 79.9513 63.416 79.6797 63.5682 79.3405C63.7204 79.0012 63.7727 78.6317 63.7249 78.2319C63.6772 77.8321 63.5539 77.4373 63.355 77.0476C63.1561 76.6579 62.9095 76.3277 62.615 76.057C62.3206 75.7862 61.992 75.6142 61.6293 75.541C61.2666 75.4677 60.8854 75.5331 60.4855 75.7371Z" fill="black"/>
<path d="M59.7818 84.7166L56.6743 76.5613L57.614 76.2033L60.7216 84.3585L59.7818 84.7166Z" fill="black"/>
<path d="M57.1758 85.5864L54.6161 77.2429L55.5776 76.948L58.1372 85.2914L57.1758 85.5864Z" fill="black"/>
<path d="M51.4161 77.8729C51.9963 77.7613 52.532 77.8014 53.0232 77.9934C53.5115 78.1858 53.9262 78.5067 54.2672 78.9561C54.6055 79.4059 54.8385 79.9629 54.9662 80.6268C55.095 81.2964 55.0861 81.9042 54.9395 82.4502C54.7901 82.9968 54.5243 83.4501 54.1423 83.81C53.7574 84.1704 53.2749 84.4065 52.6946 84.5181C52.1143 84.6298 51.58 84.5894 51.0917 84.3969C50.6006 84.205 50.1856 83.8827 49.8468 83.43C49.5052 82.9779 49.27 82.4171 49.1412 81.7475C49.0135 81.0836 49.0246 80.4797 49.1745 79.9359C49.3217 79.3926 49.5877 78.9407 49.9726 78.5803C50.3546 78.2204 50.8358 77.9846 51.4161 77.8729ZM51.5868 78.7601C51.146 78.8449 50.8051 79.0277 50.564 79.3084C50.3229 79.5891 50.1694 79.9267 50.1036 80.3213C50.0377 80.7158 50.0461 81.1279 50.1288 81.5575C50.2115 81.9871 50.3568 82.3743 50.5649 82.7191C50.773 83.0638 51.0413 83.3232 51.3699 83.4972C51.6985 83.6712 52.0831 83.7158 52.5239 83.631C52.9647 83.5462 53.3054 83.362 53.5459 83.0785C53.7864 82.795 53.9394 82.4546 54.0047 82.0573C54.07 81.6599 54.0613 81.2464 53.9787 80.8168C53.896 80.3872 53.7509 80.0014 53.5433 79.6595C53.3358 79.3175 53.068 79.0609 52.74 78.8897C52.4119 78.7185 52.0275 78.6753 51.5868 78.7601Z" fill="black"/>
<path d="M48.1387 78.5378L50.2389 85.0501L49.1822 85.0672L47.6864 80.0795L47.6182 80.0806L46.3019 85.1139L45.2282 85.1313L43.7667 80.1601L43.6986 80.1612L42.3649 85.1777L41.3083 85.1949L43.1962 78.618L44.1847 78.6019L45.6979 83.6065L45.8001 83.6048L47.1502 78.5539L48.1387 78.5378Z" fill="black"/>
<path d="M33.148 85.6014L32.1198 85.3572L33.4546 79.7351C33.5924 79.1546 33.8523 78.6688 34.2342 78.2777C34.6127 77.8887 35.0805 77.6217 35.6376 77.4766C36.1941 77.3342 36.8054 77.3421 37.4715 77.5003C38.1377 77.6584 38.6873 77.9261 39.1204 78.3034C39.5528 78.6835 39.852 79.1327 40.0181 79.6509C40.1807 80.1713 40.193 80.7218 40.0552 81.3022L38.7204 86.9244L37.6922 86.6802L39.0073 81.141C39.1057 80.7264 39.1021 80.3357 38.9965 79.969C38.8902 79.6051 38.6904 79.2905 38.3972 79.0252C38.1005 78.7621 37.7158 78.5744 37.2432 78.4622C36.7705 78.3499 36.3425 78.3447 35.9592 78.4464C35.5753 78.5509 35.2554 78.7421 34.9996 79.0201C34.7404 79.3002 34.5616 79.6475 34.4632 80.0621L33.148 85.6014Z" fill="black"/>
<path d="M28.4825 79.862L29.4152 79.9692C29.4105 80.1301 29.4324 80.2973 29.4808 80.4708C29.5255 80.6458 29.6168 80.8124 29.7545 80.9704C29.8923 81.1284 30.0965 81.2631 30.3671 81.3744C30.7375 81.5268 31.0814 81.5683 31.3986 81.4991C31.7121 81.4315 31.9223 81.2676 32.0293 81.0075C32.1244 80.7763 32.1154 80.5591 32.0024 80.3559C31.8893 80.1528 31.6725 79.9331 31.352 79.6968L30.5442 79.1065C30.057 78.7525 29.7363 78.3857 29.5823 78.0059C29.4271 77.6288 29.4365 77.2287 29.6105 76.8057C29.7532 76.4589 29.9805 76.1899 30.2926 75.9988C30.602 75.8066 30.9665 75.7046 31.386 75.6929C31.8056 75.6811 32.2505 75.7719 32.7208 75.9654C33.3382 76.2193 33.7941 76.5635 34.0885 76.9979C34.3829 77.4323 34.4781 77.9291 34.374 78.4884L33.4004 78.346C33.4503 77.9856 33.3919 77.6759 33.225 77.4168C33.0556 77.1567 32.7804 76.9483 32.3994 76.7916C31.9659 76.6133 31.5839 76.5637 31.2534 76.6428C30.9192 76.7234 30.6986 76.8938 30.5916 77.1539C30.5051 77.3641 30.5063 77.5704 30.5951 77.7728C30.6828 77.9778 30.8644 78.1785 31.14 78.3747L32.0517 79.0262C32.552 79.3855 32.8755 79.7567 33.0222 80.1395C33.1651 80.5239 33.1507 80.925 32.9788 81.3427C32.8384 81.6843 32.6182 81.947 32.3183 82.1309C32.0159 82.3136 31.667 82.4113 31.2717 82.4238C30.8738 82.4352 30.462 82.3534 30.0364 82.1784C29.4374 81.932 29.0211 81.6072 28.7876 81.204C28.5515 80.7997 28.4498 80.3524 28.4825 79.862Z" fill="black"/>
<path d="M27.3436 73.3989L22.0854 80.3643L17.9089 77.2115L18.4737 76.4632L21.8068 78.9794L23.5835 76.6258L20.5633 74.3459L21.1282 73.5977L24.1483 75.8776L26.5001 72.7622L27.3436 73.3989Z" fill="black"/>
<path d="M21.7584 68.5429C22.1728 68.9642 22.4361 69.4324 22.5484 69.9476C22.6587 70.4608 22.6212 70.9838 22.436 71.5166C22.2489 72.0474 21.9143 72.5499 21.4323 73.0241C20.9462 73.5022 20.4353 73.8315 19.8994 74.0119C19.3616 74.1903 18.837 74.2201 18.3257 74.1014C17.8124 73.9807 17.3486 73.7097 16.9342 73.2885C16.5198 72.8672 16.2575 72.4 16.1472 71.8868C16.0349 71.3716 16.0733 70.8476 16.2625 70.3148C16.4497 69.78 16.7864 69.2735 17.2724 68.7953C17.7544 68.3212 18.2634 67.9959 18.7992 67.8195C19.333 67.6411 19.8566 67.6122 20.3698 67.733C20.8811 67.8517 21.344 68.1216 21.7584 68.5429ZM21.1143 69.1764C20.7996 68.8564 20.4585 68.6738 20.0913 68.6286C19.724 68.5834 19.3579 68.6427 18.993 68.8065C18.628 68.9702 18.2896 69.2055 17.9777 69.5123C17.6658 69.8191 17.424 70.1546 17.2522 70.5188C17.0805 70.883 17.0132 71.2501 17.0503 71.62C17.0875 71.99 17.2634 72.3349 17.5782 72.6549C17.893 72.9749 18.235 73.1565 18.6043 73.1997C18.9736 73.2429 19.3417 73.1817 19.7087 73.0159C20.0757 72.8502 20.4151 72.6139 20.727 72.3071C21.0389 72.0003 21.2797 71.6658 21.4494 71.3036C21.6191 70.9414 21.6844 70.5763 21.6452 70.2083C21.6061 69.8404 21.4291 69.4964 21.1143 69.1764Z" fill="black"/>
<path d="M12.3306 71.1999L19.1682 65.7766L19.7931 66.5646L12.9555 71.9878L12.3306 71.1999Z" fill="black"/>
<path d="M10.7074 68.9685L17.8873 64.0073L18.459 64.8347L11.2791 69.7959L10.7074 68.9685Z" fill="black"/>
<path d="M16.3096 61.1325C16.5917 61.6517 16.7156 62.1744 16.6814 62.7006C16.6458 63.2243 16.4655 63.7166 16.1405 64.1777C15.8141 64.6363 15.3539 65.0269 14.7598 65.3497C14.1606 65.6752 13.5787 65.8507 13.0138 65.8763C12.4477 65.8993 11.9352 65.7833 11.4765 65.5281C11.0165 65.2704 10.6454 64.882 10.3633 64.3628C10.0813 63.8435 9.95802 63.3221 9.9936 62.7984C10.0278 62.2722 10.2094 61.7791 10.5382 61.3192C10.8657 60.8568 11.329 60.4628 11.9282 60.1374C12.5223 59.8146 13.1012 59.6424 13.6649 59.6207C14.2272 59.5964 14.7384 59.7132 15.1985 59.9708C15.6571 60.226 16.0275 60.6132 16.3096 61.1325ZM15.5158 61.5637C15.3015 61.1693 15.0241 60.8997 14.6836 60.7549C14.343 60.6101 13.9748 60.5661 13.5788 60.6228C13.1829 60.6795 12.7927 60.8122 12.4082 61.0211C12.0238 61.2299 11.6988 61.4857 11.4332 61.7884C11.1677 62.0911 11.0017 62.4253 10.9353 62.7911C10.869 63.157 10.9429 63.5371 11.1572 63.9315C11.3714 64.3259 11.6501 64.5949 11.9931 64.7383C12.3361 64.8817 12.7069 64.9244 13.1053 64.8663C13.5038 64.8083 13.8953 64.6749 14.2797 64.466C14.6641 64.2572 14.9879 64.0021 15.2509 63.7007C15.514 63.3994 15.6775 63.0665 15.7414 62.702C15.8052 62.3376 15.73 61.9581 15.5158 61.5637Z" fill="black"/>
<path d="M14.7017 58.2627L9.1254 62.2282L8.79053 61.2259L13.0954 58.2961L13.0738 58.2314L7.87777 58.4936L7.5375 57.4751L11.837 54.583L11.8154 54.5184L6.63014 54.759L6.29527 53.7566L13.1354 53.5742L13.4486 54.5119L9.13301 57.4632L9.16542 57.5602L14.3884 57.325L14.7017 58.2627Z" fill="black"/>
<path d="M3.4707 46.0894L3.39551 45.0352L9.15928 44.6241C9.75436 44.5816 10.2957 44.684 10.7833 44.9312C11.2678 45.1757 11.6628 45.542 11.9681 46.0301C12.2707 46.5183 12.4463 47.1039 12.495 47.7868C12.5437 48.4697 12.453 49.0743 12.2228 49.6005C11.9898 50.127 11.6509 50.547 11.2062 50.8607C10.7585 51.1718 10.237 51.3485 9.64197 51.391L3.8782 51.8021L3.803 50.748L9.48176 50.3429C9.90682 50.3126 10.2784 50.1921 10.5967 49.9814C10.912 49.7709 11.1523 49.4861 11.3175 49.1268C11.4797 48.7649 11.5435 48.3417 11.5089 47.8571C11.4743 47.3726 11.3511 46.9627 11.1392 46.6275C10.9245 46.2925 10.6462 46.0446 10.3044 45.8839C9.95949 45.7205 9.57452 45.654 9.14946 45.6843L3.4707 46.0894Z" fill="black"/>
<path d="M7.53094 39.878L7.71079 40.7995C7.55603 40.8436 7.40328 40.915 7.25253 41.0136C7.09919 41.1092 6.96803 41.2465 6.85904 41.4256C6.75006 41.6046 6.68344 41.84 6.65916 42.1316C6.62593 42.5308 6.69025 42.8711 6.85212 43.1525C7.01139 43.4309 7.23117 43.5818 7.51145 43.6051C7.76058 43.6258 7.96489 43.5516 8.12436 43.3824C8.28383 43.2133 8.42772 42.9402 8.55603 42.5632L8.87444 41.6147C9.06455 41.0433 9.3173 40.6267 9.63271 40.3651C9.94529 40.1032 10.3295 39.9912 10.7853 40.0291C11.159 40.0602 11.4841 40.1956 11.7606 40.4353C12.0374 40.6722 12.2448 40.9887 12.3828 41.3851C12.5209 41.7814 12.5688 42.233 12.5266 42.7398C12.4713 43.4051 12.281 43.9437 11.956 44.3556C11.6309 44.7676 11.1861 45.0085 10.6215 45.0784L10.4629 44.1073C10.8215 44.046 11.099 43.8966 11.2956 43.6593C11.4923 43.4191 11.6077 43.0937 11.6419 42.6832C11.6808 42.2161 11.6126 41.8369 11.4373 41.5458C11.2594 41.2517 11.0303 41.0929 10.75 41.0696C10.5235 41.0507 10.3272 41.1142 10.1611 41.26C9.99223 41.4056 9.85589 41.6394 9.75211 41.9614L9.40681 43.0274C9.21553 43.613 8.95959 44.0335 8.63899 44.289C8.31579 44.5415 7.92912 44.649 7.47898 44.6115C7.11093 44.5809 6.79396 44.4505 6.52805 44.2202C6.26238 43.9872 6.06382 43.6841 5.93238 43.3111C5.80118 42.9353 5.75466 42.5181 5.79284 42.0595C5.84658 41.414 6.03032 40.919 6.34407 40.5745C6.65805 40.2272 7.05368 39.995 7.53094 39.878Z" fill="black"/>
<path d="M13.3431 36.8444L5.11603 33.9322L6.86218 28.9992L7.74595 29.3121L6.35244 33.2488L9.13228 34.2328L10.395 30.6656L11.2787 30.9784L10.016 34.5456L13.6957 35.8481L13.3431 36.8444Z" fill="black"/>
<path d="M16.2799 30.0823C16.0026 30.604 15.635 30.9959 15.1774 31.2577C14.721 31.517 14.2109 31.6384 13.647 31.6218C13.0845 31.6027 12.5047 31.4345 11.9077 31.1171C11.3057 30.7971 10.8381 30.4087 10.5051 29.9517C10.1734 29.4923 9.98738 29.0009 9.94704 28.4776C9.90804 27.9517 10.0272 27.4279 10.3045 26.9062C10.5819 26.3844 10.9487 25.9938 11.4051 25.7345C11.8628 25.4727 12.3741 25.352 12.9392 25.3724C13.5055 25.3903 14.0898 25.5593 14.6918 25.8793C15.2888 26.1966 15.7519 26.5844 16.0811 27.0424C16.4116 27.498 16.5964 27.9887 16.6354 28.5146C16.6758 29.0379 16.5573 29.5605 16.2799 30.0823ZM15.4822 29.6583C15.6929 29.2619 15.7646 28.8818 15.6974 28.5179C15.6302 28.154 15.4637 27.8226 15.1979 27.5237C14.9322 27.2248 14.6061 26.9727 14.2198 26.7673C13.8335 26.562 13.4408 26.4321 13.0419 26.3777C12.6429 26.3233 12.2725 26.3693 11.9308 26.5158C11.5891 26.6624 11.3129 26.9338 11.1023 27.3302C10.8916 27.7265 10.8211 28.1073 10.8908 28.4725C10.9605 28.8377 11.1295 29.1705 11.3978 29.4707C11.6661 29.771 11.9934 30.0238 12.3797 30.2291C12.766 30.4344 13.1574 30.5637 13.5539 30.6168C13.9504 30.6698 14.3182 30.6224 14.6574 30.4746C14.9966 30.3267 15.2715 30.0546 15.4822 29.6583Z" fill="black"/>
<path d="M10.9084 21.8984L18.1325 26.7952L17.5682 27.6277L10.3441 22.7309L10.9084 21.8984Z" fill="black"/>
<path d="M12.5503 19.6792L19.4364 25.0408L18.8186 25.8343L11.9324 20.4727L12.5503 19.6792Z" fill="black"/>
<path d="M21.6993 22.6798C21.289 23.105 20.8278 23.3805 20.3157 23.5062C19.8056 23.6298 19.2818 23.6061 18.7443 23.4349C18.2088 23.2616 17.6977 22.9403 17.2111 22.4708C16.7205 21.9974 16.378 21.4952 16.1836 20.9642C15.9912 20.4312 15.9477 19.9076 16.053 19.3934C16.1603 18.8771 16.4191 18.4064 16.8294 17.9811C17.2397 17.5559 17.6999 17.2814 18.21 17.1578C18.7221 17.0321 19.247 17.0568 19.7845 17.2321C20.3241 17.4052 20.8392 17.7285 21.3299 18.202C21.8164 18.6714 22.1549 19.1717 22.3452 19.7027C22.5375 20.2317 22.58 20.7543 22.4727 21.2706C22.3674 21.7848 22.1096 22.2545 21.6993 22.6798ZM21.0492 22.0525C21.3608 21.7295 21.5345 21.3838 21.5701 21.0155C21.6057 20.6472 21.5369 20.2827 21.3637 19.9222C21.1904 19.5616 20.9464 19.2295 20.6316 18.9257C20.3167 18.6219 19.975 18.3889 19.6064 18.2268C19.2379 18.0646 18.8692 18.0069 18.5003 18.0537C18.1315 18.1005 17.7912 18.2854 17.4795 18.6084C17.1679 18.9314 16.9953 19.2781 16.9617 19.6484C16.9282 20.0187 16.999 20.3851 17.1743 20.7476C17.3495 21.1101 17.5946 21.4433 17.9094 21.747C18.2243 22.0508 18.565 22.2828 18.9315 22.443C19.298 22.6032 19.6647 22.6589 20.0315 22.6102C20.3983 22.5614 20.7375 22.3755 21.0492 22.0525Z" fill="black"/>
<path d="M23.9829 20.2547L18.5177 16.1375L19.372 15.5154L23.4657 18.7336L23.5208 18.6935L21.7007 13.8196L22.5687 13.1875L26.6248 16.412L26.68 16.3719L24.8836 11.5017L25.7379 10.8796L27.9789 17.3448L27.1797 17.9268L23.0622 14.7048L22.9795 14.765L24.7821 19.6727L23.9829 20.2547Z" fill="black"/>
<path d="M32.1857 5.86433L33.1677 5.47364L35.3039 10.8427C35.5244 11.397 35.5907 11.944 35.5026 12.4835C35.4162 13.0193 35.1866 13.5066 34.8139 13.9453C34.4401 14.3815 33.9351 14.7261 33.299 14.9792C32.6628 15.2323 32.0591 15.3288 31.4879 15.2686C30.9156 15.2059 30.4127 15.01 29.9792 14.6811C29.5472 14.3485 29.2209 13.905 29.0004 13.3507L26.8642 7.98161L27.8461 7.59092L29.9508 12.8808C30.1083 13.2767 30.3357 13.5945 30.6328 13.834C30.9288 14.0709 31.273 14.2137 31.6654 14.2624C32.0594 14.3075 32.4821 14.2402 32.9335 14.0606C33.3849 13.881 33.7382 13.6395 33.9936 13.3361C34.2479 13.0301 34.3999 12.6898 34.4497 12.3154C34.501 11.9372 34.4479 11.5501 34.2904 11.1542L32.1857 5.86433Z" fill="black"/>
<path d="M39.3067 7.88011L38.4815 8.32795C38.393 8.19353 38.2791 8.0692 38.1398 7.95496C38.0027 7.83731 37.8323 7.75335 37.6288 7.70306C37.4253 7.65278 37.1808 7.65977 36.8954 7.72403C36.5046 7.812 36.1992 7.97538 35.9792 8.21418C35.7614 8.44958 35.6834 8.70447 35.7451 8.97886C35.8 9.22275 35.9321 9.39541 36.1413 9.49683C36.3505 9.59826 36.6541 9.65366 37.0523 9.66304L38.0526 9.68249C38.6547 9.69254 39.1279 9.8088 39.4721 10.0313C39.8156 10.2509 40.0376 10.5839 40.1381 11.0301C40.2204 11.396 40.1887 11.7467 40.043 12.0824C39.9 12.4174 39.6601 12.7102 39.3234 12.9607C38.9867 13.2112 38.5703 13.3923 38.0741 13.504C37.4228 13.6506 36.8519 13.6306 36.3615 13.444C35.871 13.2574 35.5078 12.9052 35.2719 12.3876L36.1508 11.9452C36.3168 12.2689 36.5425 12.4889 36.8279 12.6052C37.116 12.7209 37.461 12.7335 37.8629 12.643C38.3202 12.5401 38.6614 12.3613 38.8866 12.1068C39.1139 11.8489 39.1967 11.5827 39.1349 11.3084C39.085 11.0866 38.9656 10.9184 38.7767 10.8037C38.5872 10.6862 38.3232 10.6262 37.9849 10.6237L36.8645 10.6139C36.2485 10.6069 35.7705 10.4888 35.4306 10.2596C35.0929 10.0269 34.8744 9.69028 34.7752 9.2496C34.6941 8.8893 34.7235 8.54779 34.8635 8.22509C35.0062 7.90177 35.2357 7.6215 35.5522 7.38429C35.8714 7.14645 36.2555 6.977 36.7044 6.87593C37.3364 6.73368 37.8637 6.76058 38.2864 6.95663C38.7118 7.15206 39.0519 7.45989 39.3067 7.88011Z" fill="black"/>
</svg>
