<?xml version="1.0" encoding="utf-8"?>
<!-- Generator: Adobe Illustrator 16.0.4, SVG Export Plug-In . SVG Version: 6.00 Build 0)  -->
<!DOCTYPE svg PUBLIC "-//W3C//DTD SVG 1.1//EN" "http://www.w3.org/Graphics/SVG/1.1/DTD/svg11.dtd">
<svg version="1.1" id="レイヤー_1" xmlns="http://www.w3.org/2000/svg" xmlns:xlink="http://www.w3.org/1999/xlink" x="0px"
	 y="0px" width="391.126px" height="105.545px" viewBox="0 0 391.126 105.545" enable-background="new 0 0 391.126 105.545"
	 xml:space="preserve">
<path d="M95.613,77.778c3.054,2.274,6.018,4.48,9.051,6.739c-0.694,0.754-1.314,1.447-1.955,2.117
	c-5.798,6.054-11.607,12.097-17.389,18.166c-0.508,0.533-1.016,0.745-1.749,0.744c-17.293-0.02-34.585-0.01-51.878-0.038
	c-0.529-0.001-1.214-0.203-1.563-0.565c-6.292-6.512-12.544-13.063-18.803-19.608c-0.228-0.238-0.434-0.498-0.718-0.825
	c3.016-2.25,5.975-4.458,9.031-6.737c-0.997-2.557-1.991-5.116-2.993-7.673C11.152,56.068,5.659,42.038,0.143,28.017
	c-0.234-0.597-0.19-0.995,0.198-1.513C6.788,17.882,13.203,9.237,19.672,0.632c0.281-0.375,1.002-0.59,1.519-0.592
	c11.453-0.033,22.907-0.025,34.361-0.025C68.39,0.015,81.229,0.021,94.067,0c0.786-0.002,1.277,0.22,1.76,0.873
	c6.316,8.534,12.66,17.048,19.028,25.544c0.449,0.6,0.468,1.056,0.208,1.716c-6.383,16.244-12.746,32.496-19.112,48.747
	C95.843,77.155,95.742,77.435,95.613,77.778 M51.652,43.609v5.233H32.3c1.452,7.214,2.85,14.268,4.321,21.306
	c0.157,0.754-0.063,1.071-0.589,1.458c-3.103,2.28-6.188,4.582-9.277,6.88c-2.964,2.203-5.926,4.411-8.893,6.619
	c0.114,0.175,0.161,0.278,0.235,0.356c4.709,4.92,9.41,9.849,14.158,14.732c0.349,0.359,1.046,0.537,1.582,0.54
	c8.753,0.032,17.507,0.022,26.26,0.022c7.113,0,14.224,0.016,21.335-0.03c0.589-0.004,1.33-0.29,1.739-0.704
	c2.869-2.898,5.67-5.864,8.489-8.812c1.909-1.995,3.813-3.994,5.766-6.04c-0.414-0.326-0.754-0.611-1.11-0.875
	c-5.671-4.215-11.343-8.427-17.013-12.64c-0.44-0.327-0.886-0.56-0.725-1.321c1.103-5.216,2.152-10.444,3.211-15.67
	c0.389-1.915,0.758-3.834,1.163-5.891H63.586v-5.164H51.652z M21.772,22.145c5.852-3.78,11.494-7.434,17.157-11.057
	c0.344-0.22,0.846-0.265,1.275-0.265c11.604-0.014,23.208-0.019,34.811,0.012c0.59,0.001,1.255,0.212,1.754,0.53
	c4.507,2.87,8.988,5.783,13.47,8.69c1.001,0.649,2.474,1.135,2.836,2.05c0.384,0.968-0.315,2.356-0.511,3.565
	c-0.6,3.708-1.83,7.308-1.706,11.144c0.114,3.553,0.025,7.11,0.025,10.666v1.312c-0.829,0-1.543-0.073-2.23,0.032
	c-0.332,0.051-0.826,0.392-0.886,0.677c-1.31,6.24-2.577,12.49-3.817,18.745c-0.065,0.328,0.059,0.873,0.296,1.056
	c2.392,1.836,4.826,3.617,7.318,5.465c0.126-0.277,0.207-0.436,0.272-0.6c5.95-15.172,11.895-30.346,17.866-45.509
	c0.253-0.641,0.055-1.012-0.304-1.491c-5.348-7.158-10.684-14.324-16.004-21.503c-0.417-0.563-0.845-0.809-1.569-0.809
	c-22.796,0.02-45.592,0.02-68.388,0c-0.722,0-1.158,0.239-1.574,0.802c-5.297,7.149-10.6,14.293-15.944,21.406
	c-0.498,0.664-0.529,1.147-0.238,1.887C11.524,43.804,17.338,58.67,23.16,73.533c0.154,0.395,0.337,0.776,0.535,1.229
	c2.483-1.842,4.869-3.58,7.203-5.387c0.284-0.22,0.462-0.845,0.387-1.223c-1.221-6.183-2.503-12.354-3.731-18.536
	c-0.133-0.674-0.42-0.867-1.045-0.834c-0.69,0.035-1.382,0.008-2.247,0.008C24.698,39.653,24.584,30.744,21.772,22.145
	 M51.658,38.585h11.973v-5.19h22.458c0.564-2.79,1.081-5.495,1.674-8.183c0.155-0.697,0.018-1.05-0.59-1.437
	c-4.003-2.543-7.972-5.141-11.971-7.691c-0.382-0.244-0.895-0.397-1.348-0.398c-10.811-0.022-21.623-0.02-32.434-0.006
	c-0.392,0.001-0.847,0.065-1.164,0.268c-4.155,2.653-8.293,5.331-12.419,8.027c-0.222,0.145-0.461,0.541-0.417,0.767
	c0.553,2.881,1.158,5.751,1.768,8.714h22.47V38.585z"/>
<path d="M79.991,83.913c0.109,1.65,0.209,3.157,0.305,4.597c-15.121,1.837-30.17,1.834-45.332,0.006
	c0.088-1.413,0.182-2.917,0.288-4.603c5.011,0.322,9.962,0.58,14.901,0.975c4.967,0.397,9.917,0.421,14.887,0.005
	C69.982,84.48,74.939,84.237,79.991,83.913"/>
<path d="M56.044,67.382v6.433h-4.442c0-1.967-0.024-3.893,0.032-5.816c0.006-0.212,0.455-0.574,0.714-0.588
	C53.531,67.347,54.72,67.382,56.044,67.382"/>
<path d="M63.648,73.823h-4.412V67.39c1.302,0,2.592-0.022,3.879,0.027c0.184,0.007,0.506,0.364,0.51,0.564
	C63.664,69.907,63.648,71.834,63.648,73.823"/>
<path d="M263.244,37.505c-1.087,2.673-2.146,5.356-3.278,8.012c-0.31,0.726-0.397,1.724-1.62,1.701
	c-1.121-0.02-1.409-0.834-1.751-1.609c-1.146-2.585-2.268-5.182-3.705-7.732c0,1.858-0.084,3.723,0.019,5.576
	c0.232,4.252-0.316,3.571-3.33,3.496c-0.317-0.008-0.635-0.006-0.952-0.013c-1.779-0.044-2.182-0.544-2.159-2.319
	c0.074-5.932,0.122-11.863,0.135-17.795c0.004-1.874,0.2-2.149,2.055-2.147c0.453,0,0.906,0.039,1.358,0.021
	c1.953-0.077,3.217,0.787,4.005,2.599c1.334,3.064,2.792,6.074,4.302,9.329c1.254-2.607,2.429-5.037,3.59-7.472
	c0.39-0.815,0.735-1.651,1.119-2.47c0.941-2.01,1.236-2.154,3.438-1.932c0.717,0.072,1.448,0.03,2.171,0.012
	c1.242-0.029,1.67,0.616,1.607,1.786c-0.089,1.628-0.167,3.259-0.165,4.89c0.003,4.391,0.029,8.783,0.092,13.173
	c0.029,2.106-0.133,2.325-2.252,2.364c-4.168,0.077-4.347-0.101-4.346-4.289c0.001-1.72,0-3.439,0-5.16
	C263.466,37.52,263.354,37.512,263.244,37.505"/>
<path d="M303.554,35.781c0,2.938-0.009,5.875,0.003,8.812c0.009,2.166-0.244,2.428-2.427,2.382
	c-0.137-0.002-0.271-0.008-0.407-0.012c-3.538-0.101-3.692-0.373-3.635-3.867c0.08-4.931-0.028-9.865-0.01-14.799
	c0.006-1.108-0.595-2.518,0.777-3.183c1.63-0.791,3.425-1.12,5.03,0.047c0.857,0.623,1.584,1.481,2.224,2.341
	c1.916,2.576,3.757,5.209,5.635,7.813c0.258,0.355,0.558,0.678,1.093,1.322c0.094-0.822,0.212-1.316,0.195-1.805
	c-0.091-2.76-0.185-5.52-0.341-8.276c-0.069-1.22,0.395-1.773,1.623-1.749c1.037,0.02,2.078-0.086,3.112-0.034
	c0.996,0.049,1.561,0.638,1.609,1.664c0.048,0.994,0.144,1.989,0.134,2.982c-0.053,5.162-0.132,10.324-0.197,15.485
	c-0.022,1.639-0.33,2.031-1.917,2.171c-2.383,0.21-4.296-0.534-5.726-2.599c-2.077-3.001-4.298-5.902-6.458-8.847
	C303.767,35.68,303.659,35.731,303.554,35.781"/>
<path d="M173.242,35.18c0-2.987,0.042-5.977-0.022-8.963c-0.022-1.057,0.317-1.498,1.376-1.479
	c3.625,0.063,7.254,0.026,10.876,0.161c3.495,0.131,6.123,2.399,6.053,5.354c-0.031,1.274-0.649,2.583-1.204,3.781
	c-0.355,0.767-0.41,1.254,0.137,1.935c3.374,4.196,1.227,10.201-4.1,10.844c-3.844,0.464-7.776,0.227-11.668,0.231
	c-1.325,0.002-1.567-0.947-1.505-2.087c0.176-3.256,0.312-6.514,0.464-9.771C173.514,35.184,173.377,35.181,173.242,35.18
	 M182.162,37.646c-0.772,0.379-2.12,0.649-2.216,1.158c-0.389,2.032-0.5,3.392,2.338,3.234c2.263-0.125,3.218-0.679,3.183-2.067
	C185.429,38.449,184.678,37.971,182.162,37.646 M181.68,33.117c0.75-0.127,1.605-0.076,2.22-0.438
	c0.511-0.299,0.968-1.062,1.016-1.658c0.036-0.426-0.551-1.086-1.022-1.327c-0.615-0.315-1.384-0.403-2.095-0.439
	c-1.507-0.079-2.259,0.522-2.26,1.674C179.537,32.661,179.889,33.006,181.68,33.117"/>
<path d="M283.526,47.487c-6.696-0.095-11.353-5.038-11.262-11.958c0.084-6.556,5.128-11.543,11.587-11.455
	c6.437,0.088,11.107,5.299,11.012,12.286C294.774,42.849,289.955,47.579,283.526,47.487 M278.48,35.978
	c0.013,3.113,2.177,5.428,5.058,5.411c2.821-0.017,5.194-2.532,5.219-5.533c0.027-3.096-2.234-5.54-5.12-5.535
	C280.718,30.324,278.467,32.794,278.48,35.978"/>
<path d="M132.191,35.764c-0.001-3.083,0.041-6.166-0.02-9.247c-0.025-1.303,0.457-1.766,1.753-1.728
	c2.942,0.086,5.891-0.013,8.832,0.107c5.623,0.23,9.436,3.709,10.028,9.331c0.492,4.681-0.887,8.732-5.052,11.354
	c-1.141,0.72-2.597,1.209-3.938,1.286c-3.384,0.192-6.785,0.086-10.179,0.108c-1.173,0.009-1.43-0.709-1.427-1.693
	C132.197,42.108,132.191,38.936,132.191,35.764 M138.711,35.851h-0.005c0,1.354,0.015,2.709-0.004,4.062
	c-0.022,1.668,0.306,2.044,2.011,2.096c0.533,0.016,1.092-0.022,1.603-0.163c3.156-0.869,4.867-3.871,4.213-7.326
	c-0.623-3.294-3.197-5.123-6.634-4.748c-0.844,0.092-1.185,0.542-1.184,1.339C138.712,32.69,138.711,34.271,138.711,35.851"/>
<path d="M236.486,38.206c0,2.438-0.009,4.876,0.004,7.313c0.005,1.019-0.245,1.397-1.456,1.23c-1.524-0.21-3.149-0.205-4.654,0.092
	c-2.616,0.514-5.183,0.847-7.772,0.023c-4.534-1.441-7.353-5.381-7.547-10.51c-0.222-5.852,3.164-10.694,8.499-11.833
	c3.884-0.83,7.468-0.165,10.358,2.87c0.729,0.766,0.811,1.467,0.173,2.269c-0.671,0.846-1.32,1.717-2.061,2.5
	c-0.484,0.515-0.999,0.546-1.616-0.059c-2.287-2.236-5.24-2.484-7.175-0.696c-2.072,1.916-2.43,5.913-0.727,8.118
	c1.373,1.776,4.93,2.488,6.831,1.291c0.319-0.201,0.538-0.788,0.551-1.203c0.024-0.899-0.144-1.803-0.18-2.707
	c-0.042-1.065,0.391-1.715,1.573-1.737c1.083-0.021,2.164-0.146,3.246-0.201c1.594-0.082,1.821,0.143,1.832,1.745
	c0.004,0.498,0.001,0.996,0.001,1.495C236.406,38.206,236.446,38.206,236.486,38.206"/>
<path d="M320.952,40.893c0-4.66,0.003-9.321-0.002-13.982c-0.002-2.11,0.166-2.248,2.229-2.093c0.757,0.057,1.537,0.017,2.292-0.088
	c1.623-0.226,2.293,0.343,2.23,1.992c-0.067,1.718-0.173,3.435-0.197,5.153c-0.019,1.33,0.607,1.884,1.764,1.303
	c0.979-0.491,1.959-1.332,2.49-2.271c0.812-1.436,1.248-3.086,1.818-4.655c0.405-1.116,1.05-1.713,2.352-1.491
	c0.928,0.158,1.898,0.068,2.843,0.148c1.008,0.086,1.678,0.514,1.288,1.678c-1.041,3.118-1.804,6.397-4.661,8.518
	c-0.661,0.492-0.427,0.92-0.087,1.486c1.567,2.591,3.138,5.183,4.61,7.827c1.015,1.822,0.628,2.441-1.484,2.732
	c-3.483,0.48-5.278-0.626-6.658-3.903c-0.54-1.28-1.303-2.479-2.058-3.653c-0.259-0.403-0.807-0.622-1.222-0.925
	c-0.33,0.525-0.9,1.033-0.942,1.581c-0.107,1.394,0.007,2.804,0.056,4.206c0.087,2.55,0.004,2.637-2.481,2.584
	c-0.95-0.019-1.902,0.004-2.852-0.003c-0.917-0.007-1.396-0.347-1.343-1.394c0.083-1.58,0.022-3.167,0.022-4.75
	C320.957,40.893,320.954,40.893,320.952,40.893"/>
<path d="M212.679,34.463c0,1.992,0.057,3.985-0.013,5.975c-0.154,4.553-1.321,5.893-5.78,6.684
	c-2.975,0.528-5.944,0.464-8.896-0.215c-2.161-0.497-3.547-1.851-3.79-4.063c-0.22-2.018-0.206-4.062-0.256-6.095
	c-0.084-3.317-0.143-6.635-0.203-9.952c-0.035-1.978,0.105-2.097,2.048-1.985c0.814,0.047,1.63,0.048,2.444,0.075
	c1.846,0.061,2.261,0.443,2.236,2.25c-0.051,3.576-0.146,7.15-0.22,10.725c-0.009,0.454-0.025,0.909,0.015,1.358
	c0.194,2.146,1,2.822,3.31,2.806c2.054-0.015,2.959-0.735,2.975-2.832c0.025-3.98-0.106-7.963-0.21-11.946
	c-0.056-2.091,0.145-2.346,2.212-2.419c4.176-0.148,4.421,0.085,4.421,4.207v5.428H212.679z"/>
<path d="M162.68,46.972c-1.994,0-3.989-0.039-5.982,0.015c-1.242,0.032-1.702-0.507-1.667-1.707
	c0.115-4.026,0.235-8.053,0.262-12.08c0.015-2.125-0.166-4.251-0.248-6.378c-0.066-1.717,0.309-2.12,1.993-2.124
	c3.761-0.011,7.521-0.015,11.282-0.011c1.72,0.002,2.381,0.504,2.447,2.203c0.126,3.222,0.487,3.479-2.93,3.207
	c-1.443-0.115-2.897-0.089-4.345-0.16c-1.018-0.05-1.839,0.091-1.813,1.387c0.025,1.278,0.502,1.746,1.884,1.701
	c1.81-0.06,3.622-0.143,5.429-0.277c1.009-0.075,1.445,0.319,1.368,1.312c-0.004,0.045-0.004,0.091-0.008,0.136
	c-0.236,3.286,0.443,4.643-4.315,4.086c-0.939-0.11-1.901-0.024-2.852-0.051c-0.8-0.022-1.527,0.091-1.471,1.107
	c0.055,0.963-0.071,2.155,1.432,2.146c2.079-0.015,4.165,0.005,6.234-0.165c1.695-0.139,2.045,0.05,1.962,1.772
	c-0.037,0.767-0.147,1.532-0.275,2.29c-0.16,0.958-0.675,1.555-1.73,1.551c-2.219-0.008-4.438-0.002-6.657-0.002V46.972z"/>
<path d="M342.112,35.737c0-3.079-0.003-6.158,0.002-9.236c0.003-1.61,0.177-1.782,1.797-1.784c3.759-0.005,7.517-0.006,11.275-0.006
	c1.933,0,2.361,0.407,2.506,2.36c0.23,3.129,0.231,3.125-2.961,3.01c-1.538-0.056-3.077-0.103-4.616-0.136
	c-0.863-0.019-1.499,0.168-1.435,1.288c0.06,1.005,0.165,1.846,1.454,1.791c1.991-0.085,3.983-0.15,5.972-0.27
	c1.125-0.067,1.467,0.421,1.256,1.471c-0.169,0.841-0.341,1.688-0.416,2.54c-0.117,1.341-0.896,1.779-2.116,1.713
	c-1.491-0.082-2.984-0.16-4.475-0.248c-0.967-0.058-1.734,0.09-1.702,1.332c0.027,1.127,0.299,1.986,1.674,1.933
	c2.119-0.084,4.242-0.11,6.355-0.257c1.103-0.078,1.599,0.263,1.624,1.396c0.093,3.992-0.337,4.438-4.339,4.406
	c-3.306-0.026-6.611-0.037-9.918-0.051c-1.813-0.008-2.091-0.313-2.081-2.155c0.018-3.033,0.005-6.065,0.005-9.098
	C342.021,35.736,342.066,35.737,342.112,35.737"/>
<path d="M255.545,73.469c2.24-2.033,4.686-2.424,7.346-1.855c2.065,0.442,3.402,1.678,3.841,3.739
	c0.459,2.156,0.177,4.157-1.66,5.669c-0.209,0.173-0.426,0.338-0.655,0.483c-1.063,0.675-1.062,1.476-0.288,2.368
	c0.445,0.513,0.962,0.978,1.324,1.542c0.216,0.339,0.378,0.915,0.23,1.228c-0.138,0.292-0.704,0.495-1.101,0.529
	c-0.854,0.073-1.722-0.024-2.58,0.02c-1.436,0.074-2.414-0.537-3.056-1.807c-0.524-1.032-1.127-1.948-2.549-1.827
	c-0.929,0.079-1.283,0.384-1.129,1.358c0.307,1.929-0.08,2.322-2.065,2.311c-3.469-0.021-3.492-0.021-3.589-3.428
	c-0.162-5.661-0.296-11.323-0.435-16.985c-0.043-1.783,0.371-2.161,2.125-2.104c0.677,0.022,1.355-0.069,2.032-0.102
	c1.812-0.084,2.223,0.333,2.211,2.177C255.537,68.914,255.545,71.042,255.545,73.469 M256.729,80.012
	c2.489-0.014,3.587-0.771,3.61-2.182c0.022-1.195-0.577-1.773-1.85-1.781c-1.615-0.012-3.127,1.233-3.132,2.564
	C255.354,79.896,256.208,80.031,256.729,80.012"/>
<path d="M317.699,86.582c0.09,1.251,0.169,2.509,0.274,3.765c0.103,1.19-0.368,1.718-1.616,1.759
	c-4.059,0.137-4.218,0.062-4.293-4.002c-0.076-4.023-0.032-8.051-0.083-12.074c-0.011-0.853-0.186-1.705-0.312-2.553
	c-0.113-0.762,0.104-1.195,0.95-1.291c0.983-0.113,1.949-0.418,2.933-0.478c0.502-0.031,1.018,0.332,1.542,0.438
	c0.598,0.119,1.324,0.397,1.804,0.182c4.821-2.164,9.717,0.66,10.22,5.98c0.288,3.054-0.4,5.767-2.949,7.73
	c-2.181,1.681-4.59,1.676-7.082,0.828c-0.342-0.117-0.685-0.231-1.032-0.332C317.98,86.512,317.887,86.553,317.699,86.582
	 M323.11,79.574c-0.006-1.766-1.165-3.079-2.718-3.079c-1.521,0-2.642,1.287-2.609,2.997c0.031,1.696,1.305,3.071,2.811,3.033
	C322.061,82.489,323.115,81.252,323.11,79.574"/>
<path d="M368.931,34.309c2.071-2.188,3.496-4.367,2.711-7.41c-0.366-1.419,0.211-2.054,1.662-2.064
	c1.087-0.007,2.174,0.042,3.261,0.023c1.204-0.021,1.645,0.627,1.803,1.738c0.521,3.652-0.27,6.884-2.782,9.674
	c-0.812,0.901-1.468,1.952-2.131,2.977c-1.227,1.904-1.704,3.997-1.238,6.228c0.219,1.049-0.284,1.504-1.143,1.546
	c-1.305,0.062-2.619-0.042-3.927-0.092c-1.007-0.038-1.396-0.706-1.548-1.586c-0.023-0.133-0.037-0.275-0.015-0.406
	c0.665-3.689-1.219-6.481-3.373-9.076c-2.386-2.875-3.115-6.138-2.927-9.747c0.056-1.033,0.405-1.489,1.493-1.363
	c0.987,0.114,1.989,0.109,2.985,0.138c1.32,0.038,1.982,0.731,2.058,2.025c0.017,0.316,0.067,0.641,0.02,0.949
	C365.405,30.659,367.147,32.393,368.931,34.309"/>
<path d="M303.168,85.759c-0.326,0.181-0.49,0.256-0.639,0.354c-5.631,3.71-9.898-1.021-10.337-5.255
	c-0.161-1.57-0.018-3.299,0.484-4.787c1.428-4.24,6.007-5.906,9.961-3.82c0.276,0.146,0.543,0.312,0.802,0.463
	c1.48-1.202,4.133-1.282,5.465-0.102c0.263,0.231,0.322,0.805,0.313,1.216c-0.076,3.286-0.367,6.578-0.249,9.855
	c0.15,4.16-0.164,3.528-3.068,3.488C304.789,87.156,303.413,87.688,303.168,85.759 M303.292,79.279
	c-0.004-1.789-1.11-2.979-2.771-2.977c-1.592,0.004-2.893,1.325-2.897,2.947c-0.006,1.628,1.267,2.932,2.889,2.96
	C302.205,82.239,303.295,81.09,303.292,79.279"/>
<path d="M171.318,78.843c0-2.354,0.009-4.706-0.004-7.06c-0.005-1.057-0.346-1.614-1.625-1.535c-3.582,0.22-3.338,0.608-3.221-3.398
	c0.045-1.51,0.65-1.987,2.129-1.985c4.02,0.009,8.039,0.005,12.058-0.046c1.871-0.024,1.919-0.031,1.899,1.827
	c-0.001,0.045-0.001,0.091-0.001,0.135c0,3.208,0.104,3.427-3.292,3.239c-1.252-0.068-1.68,0.45-1.647,1.676
	c0.12,4.431,0.172,8.862,0.255,13.293c0.037,1.972-0.18,2.202-2.13,2.203c-1.041,0.001-2.084-0.041-3.122,0.013
	c-1.155,0.06-1.625-0.374-1.586-1.577c0.072-2.259,0.02-4.522,0.02-6.784H171.318z"/>
<path d="M189.274,81.25c0.855,1.392,2.059,1.998,3.444,1.754c0.528-0.094,1.053-0.269,1.551-0.476
	c2.204-0.915,2.178-0.91,3.436,1.105c0.616,0.992,0.475,1.773-0.413,2.485c-2.258,1.811-7.227,1.989-10.096,0.352
	c-2.742-1.564-4.296-4.955-3.785-8.258c0.894-5.777,6.101-8.886,11.011-6.524c2.564,1.234,4.015,3.312,4.212,6.185
	c0.132,1.918-0.538,2.621-2.459,2.77C193.893,80.817,191.616,81.041,189.274,81.25 M188.378,78.07
	c1.416-0.074,2.285-0.037,3.117-0.197c0.452-0.087,1.155-0.483,1.182-0.788c0.04-0.471-0.297-1.285-0.664-1.413
	c-0.692-0.244-1.731-0.4-2.234-0.043C189.147,76.077,188.908,77.079,188.378,78.07"/>
<path d="M273.59,81.232c1.546,1.94,3.316,2.239,5.571,1.121c0.844-0.42,1.644-1.272,2.417,0.241
	c1.221,2.393,1.259,2.869-0.271,3.853c-3.185,2.049-8.939,1.321-11.441-1.446c-2.584-2.86-2.685-8.053-0.214-11.213
	c1.967-2.517,5.324-3.496,8.433-2.459c2.924,0.975,4.995,3.721,5.069,6.719c0.046,1.804-0.566,2.456-2.353,2.589
	C278.461,80.813,276.123,81.021,273.59,81.232 M272.909,77.531c0.139,0.127,0.276,0.255,0.417,0.382
	c0.885,0,1.779,0.079,2.648-0.033c0.446-0.058,1.163-0.422,1.196-0.712c0.053-0.473-0.234-1.289-0.591-1.436
	c-0.677-0.277-1.663-0.473-2.232-0.165C273.703,75.916,273.375,76.85,272.909,77.531"/>
<path d="M336.195,81.231c0.863,1.439,2.165,2.06,3.588,1.761c0.525-0.111,1.044-0.302,1.531-0.531
	c2.017-0.947,2.19-0.896,3.185,1.085c0.752,1.504,0.455,2.284-1.202,3.124c-3.69,1.869-11.06,1.155-12.682-4.61
	c-1.515-5.378,1.383-10.337,6.633-11.065c4.244-0.589,8.354,3.008,8.338,7.298c-0.004,1.548-0.682,2.208-2.357,2.343
	C340.933,80.82,338.639,81.023,336.195,81.231 M335.355,77.538c0.141,0.124,0.28,0.248,0.421,0.371c0.895,0,1.803,0.08,2.683-0.035
	c0.412-0.054,1.035-0.437,1.093-0.755c0.074-0.423-0.194-1.212-0.517-1.34c-0.696-0.276-1.681-0.538-2.245-0.237
	C336.142,75.888,335.819,76.846,335.355,77.538"/>
<path d="M391.104,29.032c-0.967,0.086-1.603,0.097-2.219,0.206c-1.865,0.328-2.512,1.624-1.588,3.255
	c0.422,0.743,0.951,1.436,1.508,2.087c5.187,6.058,0.762,11.099-4.3,12.772c-2.048,0.678-3.459-0.255-4.469-2.666
	c-0.82-1.958-0.82-1.956,1.096-2.708c0.38-0.148,0.755-0.307,1.119-0.484c2.562-1.246,2.726-1.97,1.015-4.321
	c-0.851-1.167-1.822-2.275-2.482-3.544c-1.313-2.526-0.795-5.23,1.47-6.931c1.418-1.065,3.112-1.815,4.776-2.468
	c0.495-0.195,1.59,0.223,1.921,0.7C389.784,26.128,390.338,27.52,391.104,29.032"/>
<path d="M212.42,81.162c0-0.771-0.019-1.541,0.005-2.312c0.023-0.847-0.11-1.469-0.952-2.041c-1.325-0.898-1.062-3.381,0.198-4.372
	c0.386-0.303,0.636-0.972,0.669-1.49c0.063-1.034-0.078-2.079-0.108-3.12c-0.022-0.76,0.271-1.213,1.137-1.079
	c1.203,0.185,2.41,0.353,3.619,0.51c1.081,0.141,1.324,0.793,1.114,1.745c-0.078,0.353-0.19,0.7-0.229,1.056
	c-0.188,1.77,0.43,2.345,2.186,2.062c1.669-0.271,1.931-0.044,1.888,1.626c-0.006,0.227-0.03,0.452-0.033,0.679
	c-0.029,2.692-0.029,2.71-2.711,2.667c-0.856-0.014-1.283,0.357-1.317,1.176c-0.026,0.588-0.029,1.184,0.039,1.765
	c0.255,2.167,0.812,2.569,2.954,2.053c0.958-0.232,1.306,0.064,1.403,1.024c0.25,2.448-0.131,3.281-2.531,3.836
	c-1.542,0.355-3.222,0.405-4.799,0.234c-1.648-0.181-2.386-1.21-2.509-2.895c-0.073-1.036-0.013-2.082-0.013-3.123H212.42z"/>
<path d="M237.937,75.926c0,2.945-0.002,5.891,0.001,8.836c0.002,2.141-0.332,2.487-2.395,2.454
	c-3.483-0.056-3.509-0.055-3.535-3.586c-0.024-3.535,0.046-7.07-0.004-10.604c-0.03-2.217-0.176-4.434-0.327-6.646
	c-0.075-1.1,0.281-1.607,1.445-1.532c1.084,0.07,2.174,0.016,3.263,0.026c1.099,0.011,1.643,0.506,1.629,1.673
	c-0.036,3.126-0.013,6.254-0.013,9.38H237.937z"/>
<path d="M203.522,87.638c-1.502-0.029-3.815-2.149-3.834-3.287c-0.006-0.312,0.329-0.654,0.565-0.932
	c0.085-0.099,0.372,0.003,0.521-0.074c0.841-0.438,1.668-0.901,2.5-1.356c-0.451-0.735-0.792-1.576-1.371-2.188
	c-2.592-2.742-2.205-6.027,1.031-7.976c0.613-0.368,1.276-0.684,1.955-0.913c2.253-0.758,4.362,0.647,4.52,3.035
	c0.018,0.28-0.385,0.692-0.692,0.86c-0.286,0.157-0.713,0.035-1.066,0.098c-1.352,0.238-1.813,1.455-0.943,2.504
	c0.374,0.453,0.833,0.835,1.207,1.288c2.257,2.727,1.668,6.071-1.443,7.782C205.457,87.036,204.301,87.338,203.522,87.638"/>
<path d="M352.874,70.59c1.359-0.007,3.746,2.578,3.466,3.588c-0.084,0.303-0.715,0.464-1.106,0.67
	c-0.67,0.351-1.575,0.523-1.971,1.068c-0.621,0.857,0.285,1.46,0.841,2.025c1.631,1.653,2.605,3.505,1.686,5.864
	c-0.721,1.844-3.904,3.88-5.893,3.847c-1.138-0.018-3.417-2.238-3.327-3.376c0.026-0.325,0.524-0.695,0.889-0.895
	c0.834-0.456,1.719-0.82,2.583-1.222c-0.404-0.814-0.673-1.742-1.239-2.423c-1.354-1.624-2.36-3.306-1.317-5.419
	C348.622,72.013,350.739,71.051,352.874,70.59"/>
<path d="M155.201,73.485c0.369,0.15,1.059,0.347,1.657,0.697c1.834,1.077,2.866,1.041,4.574-0.276
	c1.386-1.067,1.669-1.023,2.658,0.422c2.24,3.275,1.987,4.238-1.535,6.004c-1.856,0.928-3.641,1.164-5.496-0.087
	c-1.241-0.837-2.332-0.629-3.587,0.405c-1.408,1.159-1.545,1.116-2.582-0.367c-0.457-0.653-1.007-1.257-1.589-1.804
	c-0.613-0.575-0.69-1.142-0.189-1.779C150.572,74.839,152.423,73.676,155.201,73.485"/>
<path d="M368.703,81.319c-0.755-0.287-1.402-0.472-1.994-0.771c-1.874-0.941-3.636-1.082-5.196,0.594
	c-0.504,0.541-0.892,0.436-1.318-0.114c-0.776-1.001-1.576-1.985-2.401-2.946c-0.493-0.574-0.466-1.027,0.143-1.47
	c1.099-0.796,2.137-1.69,3.295-2.382c1.572-0.938,3.146-1.179,4.764,0.151c1.23,1.012,2.549,0.804,3.972-0.29
	c1.594-1.226,1.984-1.162,3.073,0.496c2.042,3.107,1.889,3.792-1.377,5.503C370.718,80.586,369.687,80.917,368.703,81.319"/>
<path d="M240.818,80.543c-0.126-2.396-0.214-4.792-0.395-7.183c-0.087-1.183,0.361-1.513,1.493-1.405
	c1.058,0.101,2.14,0.049,3.206-0.022c1.227-0.081,1.672,0.267,1.649,1.523c-0.075,4.069-0.18,8.139-0.244,12.209
	c-0.018,0.985-0.378,1.516-1.431,1.543c-4.705,0.125-4.45,0.239-4.412-4.077c0.008-0.86,0.001-1.722,0.001-2.582L240.818,80.543z"/>
<path d="M243.597,65.403c1.997-0.011,3.212,1.046,3.253,2.832c0.04,1.758-1.085,2.749-3.118,2.746
	c-2.055-0.004-3.285-1.058-3.276-2.805C240.466,66.477,241.668,65.414,243.597,65.403"/>
</svg>
