<svg width="219" height="115" viewBox="0 0 219 115" fill="none" xmlns="http://www.w3.org/2000/svg">
<path d="M41.9864 109.37L44.7705 114.017H43.5058L41.0765 109.911C40.9202 109.641 40.6936 109.499 40.3809 109.499C39.9681 109.499 39.5993 109.839 39.5993 110.266V114.017H38.5752V104.073H41.0062C42.6679 104.073 43.6902 105.265 43.6902 106.799C43.6902 107.965 42.9086 109.002 41.9864 109.37ZM40.8921 108.49C41.8582 108.49 42.6539 107.767 42.6539 106.799C42.6539 105.835 41.8582 105.109 40.878 105.109H40.2808C39.7977 105.109 39.5993 105.408 39.5993 105.734V107.951C39.5993 108.178 39.7977 108.49 40.3247 108.49H40.8921Z" fill="black"/>
<rect x="46.6152" y="104.071" width="1.02231" height="9.94552" fill="black"/>
<path d="M54.6528 114.059L49.269 104.071H50.4477L54.0556 110.862C54.1698 111.061 54.4245 111.247 54.6528 111.247C54.8812 111.247 55.1359 111.061 55.2501 110.862L58.858 104.071H60.0366L54.6528 114.059Z" fill="black"/>
<path d="M64.3506 114.017H61.5806V104.071H64.3506V105.109H63.4267C62.7311 105.109 62.6029 105.492 62.6029 105.777V107.567C62.6029 107.951 62.7311 108.363 63.3002 108.363H63.9677V109.399H63.3002C62.7311 109.399 62.6029 109.826 62.6029 110.21V112.313C62.6029 112.596 62.7311 112.98 63.4267 112.98H64.3506V114.017Z" fill="black"/>
<path d="M69.6765 109.37L72.4606 114.017H71.1959L68.7666 109.911C68.6103 109.641 68.3837 109.499 68.071 109.499C67.6583 109.499 67.2894 109.839 67.2894 110.266V114.017H66.2671V104.073H68.6964C70.3581 104.073 71.3804 105.265 71.3804 106.799C71.3804 107.965 70.5987 109.002 69.6765 109.37ZM68.5822 108.49C69.5483 108.49 70.344 107.767 70.344 106.799C70.344 105.835 69.5483 105.109 68.5681 105.109H67.9709C67.4879 105.109 67.2894 105.408 67.2894 105.734V107.951C67.2894 108.178 67.4879 108.49 68.0148 108.49H68.5822Z" fill="black"/>
<path d="M82.301 104.071H83.3373V114.017H82.301V110.209C82.301 109.826 82.1727 109.399 81.6194 109.399H80.3969C79.8295 109.399 79.7013 109.826 79.7013 110.209V114.017H78.6772V104.071H79.7013V107.539C79.7013 107.922 79.8295 108.363 80.3969 108.363H81.6194C82.1727 108.363 82.301 107.922 82.301 107.539V104.071Z" fill="black"/>
<path d="M85.0957 109.03C85.0957 106.202 87.4108 104.001 90.1247 104.001C92.8385 104.001 95.1536 106.202 95.1536 109.03C95.1536 111.842 92.8947 114.059 90.1247 114.059C87.3546 114.059 85.0957 111.842 85.0957 109.03ZM86.1321 109.03C86.1321 111.289 87.9922 113.023 90.1247 113.023C92.2553 113.023 94.1155 111.289 94.1155 109.03C94.1155 106.885 92.3695 105.037 90.1247 105.037C87.8798 105.037 86.1321 106.885 86.1321 109.03Z" fill="black"/>
<path d="M96.7412 111.7V104.071H97.7758V111.644C97.7758 112.482 98.3888 112.951 99.0844 112.951C99.7818 112.951 100.391 112.482 100.391 111.644V104.071H101.428V111.7C101.428 113.065 100.365 114.045 99.0844 114.045C97.8057 114.045 96.7412 113.065 96.7412 111.7Z" fill="black"/>
<path d="M102.889 111.828H103.984C104.196 112.482 104.85 113.021 105.547 113.021C106.625 113.021 107.365 112.225 107.365 111.289C107.365 110.307 106.625 109.555 105.575 109.555C104.098 109.555 102.847 108.361 102.847 106.813C102.847 105.152 104.196 104.001 105.603 104.001C107.024 104.001 108.145 104.979 108.359 106.26H107.251C107.01 105.563 106.369 105.037 105.631 105.037C104.665 105.037 103.884 105.833 103.884 106.813C103.884 107.723 104.665 108.531 105.631 108.531C107.251 108.531 108.401 109.812 108.401 111.289C108.401 112.894 107.123 114.059 105.659 114.059C104.224 114.059 103.074 113.121 102.889 111.828Z" fill="black"/>
<path d="M112.773 114.017H110.003V104.071H112.773V105.109H111.85C111.154 105.109 111.026 105.492 111.026 105.777V107.567C111.026 107.951 111.154 108.363 111.723 108.363H112.391V109.399H111.723C111.154 109.399 111.026 109.826 111.026 110.21V112.313C111.026 112.596 111.154 112.98 111.85 112.98H112.773V114.017Z" fill="black"/>
<path d="M118.667 109.03C118.667 106.202 120.982 104.001 123.695 104.001C126.409 104.001 128.724 106.202 128.724 109.03C128.724 111.842 126.466 114.059 123.695 114.059C120.925 114.059 118.667 111.842 118.667 109.03ZM119.703 109.03C119.703 111.289 121.563 113.023 123.695 113.023C125.826 113.023 127.686 111.289 127.686 109.03C127.686 106.885 125.94 105.037 123.695 105.037C121.451 105.037 119.703 106.885 119.703 109.03Z" fill="black"/>
<path d="M129.883 111.828H130.978C131.19 112.482 131.844 113.021 132.541 113.021C133.62 113.021 134.359 112.225 134.359 111.289C134.359 110.307 133.62 109.555 132.569 109.555C131.092 109.555 129.841 108.361 129.841 106.813C129.841 105.152 131.19 104.001 132.597 104.001C134.018 104.001 135.139 104.979 135.353 106.26H134.245C134.004 105.563 133.363 105.037 132.625 105.037C131.659 105.037 130.878 105.833 130.878 106.813C130.878 107.723 131.659 108.531 132.625 108.531C134.245 108.531 135.395 109.812 135.395 111.289C135.395 112.894 134.117 114.059 132.654 114.059C131.218 114.059 130.068 113.121 129.883 111.828Z" fill="black"/>
<path d="M139.741 110.507C139.371 110.507 139.102 110.693 138.903 111.062L137.326 114.017H136.16L141.545 104.057L146.929 114.017H145.764L144.187 111.062C143.989 110.693 143.718 110.507 143.349 110.507H139.741ZM143.335 109.457L142.227 107.326C141.986 106.871 141.772 106.785 141.545 106.785C141.319 106.785 141.104 106.871 140.864 107.326L139.755 109.457H143.335Z" fill="black"/>
<path d="M149.353 111.289V114.017H148.331V104.071H149.353V109.258L152.123 104.071H153.274L151.129 108.008L154.382 114.017H153.218L150.901 109.683C150.774 109.457 150.688 109.415 150.576 109.415C150.462 109.415 150.362 109.457 150.235 109.683L149.353 111.289Z" fill="black"/>
<path d="M158.401 110.507C158.03 110.507 157.762 110.693 157.563 111.062L155.986 114.017H154.819L160.205 104.057L165.589 114.017H164.424L162.847 111.062C162.648 110.693 162.378 110.507 162.009 110.507H158.401ZM161.995 109.457L160.886 107.326C160.646 106.871 160.431 106.785 160.205 106.785C159.978 106.785 159.764 106.871 159.523 107.326L158.415 109.457H161.995Z" fill="black"/>
<path d="M72.5783 18.2396L69.8574 15.9824C72.6117 13.6884 73.0104 9.78886 73.3319 6.1177C73.3459 5.94556 73.36 5.79274 73.374 5.6206L73.843 0.266671H77.3368L76.8678 5.6206C76.8203 6.17391 76.7694 6.7483 76.7185 7.34025C76.404 10.9359 75.8191 15.199 72.5783 18.2396ZM78.2888 17.4737L79.7502 0.763771H83.2036L81.7404 17.493L78.2888 17.4737ZM84.0889 17.8566L85.6311 0.228027H89.0862L87.5422 17.876L84.0889 17.8566Z" fill="black"/>
<path d="M102.148 17.9532L100.674 15.0461C100.611 15.1234 100.565 15.2007 100.504 15.2569C99.5043 16.346 98.4855 16.8062 97.4509 16.8062C96.9117 16.8062 96.3865 16.6727 95.849 16.4619C93.7341 15.6205 93.0297 13.1526 93.2493 10.6495C93.3037 10.0172 93.4162 9.38657 93.5848 8.77529C94.5509 5.18142 97.8216 1.375 103.427 1.375H103.676C109.922 1.49093 111.635 5.83134 111.328 9.34793L111.301 9.636C110.871 13.0191 108.983 17.0539 102.148 17.9532ZM96.794 9.59735C96.7044 9.98028 96.6341 10.3421 96.6043 10.6882C96.4883 12.0073 96.8274 12.9629 97.3613 13.2106C97.4176 13.2299 97.4544 13.2492 97.5124 13.2492C97.7425 13.2492 97.9902 13.0577 98.1202 12.868C99.297 11.05 100.323 7.66516 101.055 4.55082C98.9791 5.25695 97.4 7.07321 96.794 9.59735ZM107.735 9.59735C107.748 9.46386 107.778 9.33036 107.79 9.19686C108.017 6.59543 106.734 5.02684 104.749 4.45421C103.495 9.80814 102.007 13.2106 100.869 14.7985C105.329 14.282 107.305 12.7521 107.735 9.59735Z" fill="black"/>
<path d="M131.623 12.1605C132.087 13.2302 132.728 14.2244 133.574 15.0851L130.813 17.6866C128.526 15.0851 127.421 11.0521 127.493 6.94008H126.111C127.321 8.47003 127.686 11.089 127.434 13.9768C127.145 17.265 126.123 18.203 122.131 18.203L121.228 15.5822C119.1 16.8628 116.891 17.7814 116.891 17.7814L115.343 14.8357C115.343 14.8357 120.218 13.7467 123.961 10.8993C123.975 10.7272 123.901 10.4777 123.873 10.3618C120.683 12.5996 116.641 13.824 116.641 13.824L115.466 11.4719C115.466 11.4719 119.942 10.5533 123.179 8.64217C123.076 8.50867 122.974 8.35585 122.865 8.27856C120.128 9.73122 117.163 10.4971 117.163 10.4971L116.013 7.85875C116.013 7.85875 118.663 7.60932 120.948 6.94008H117.934L118.04 5.73685H116.562L116.977 0.9942H123.81L123.898 0H127.544L127.456 0.9942H134.309L133.892 5.75442H132.452L132.348 6.94008H130.622C130.609 7.74282 130.674 8.52799 130.778 9.31141C131.517 8.77566 132.129 8.14507 132.596 7.62864L134.021 10.4198C133.355 11.0311 132.533 11.6248 131.623 12.1605ZM130.801 3.78534H119.977L119.923 4.39662H130.748L130.801 3.78534ZM124.129 13.5745C123.55 14.0541 122.856 14.5318 122.071 14.9517C123.759 14.9517 124.021 14.8182 124.1 13.9206L124.129 13.5745Z" fill="black"/>
<path d="M57.6795 43.5532C54.9463 43.5532 52.5364 45.77 52.2975 48.5031C52.0586 51.2363 54.0804 53.4513 56.8135 53.4513C59.5467 53.4513 61.9567 51.2363 62.1956 48.5031C62.4345 45.77 60.4127 43.5532 57.6795 43.5532Z" fill="black"/>
<path d="M50.4775 52.1689C49.1109 52.1689 47.9059 53.2773 47.7864 54.6439C47.667 56.0105 48.677 57.1189 50.0436 57.1189C51.4119 57.1189 52.6169 56.0105 52.7364 54.6439C52.8558 53.2773 51.844 52.1689 50.4775 52.1689Z" fill="black"/>
<path d="M129.044 39.2603H117.135L115.863 31.5562H102.159L103.432 39.2603H78.96L78.21 47.8463H104.85L107.365 63.079C95.3573 57.119 72.698 53.7535 79.227 85.8297H98.7685C98.7685 85.8297 79.7786 54.6441 122.807 73.5919L118.554 47.8463H128.292L129.044 39.2603Z" fill="black"/>
<path d="M101.532 76.562C100.365 76.562 99.4185 77.507 99.4185 78.6751C99.4185 79.8415 100.365 80.7865 101.532 80.7865C102.698 80.7865 103.645 79.8415 103.645 78.6751C103.645 77.507 102.698 76.562 101.532 76.562Z" fill="black"/>
<path d="M35.6068 62.6662L36.9049 47.8463H49.6029L50.3547 39.2603H37.655L38.3295 31.5562H24.625L23.9522 39.2603H11.2524L10.5006 47.8463H23.2004L22.0868 60.5724C20.9116 60.5127 19.7154 60.4775 18.4929 60.4775C8.9338 60.4775 0.672804 66.3497 0.0386934 73.5919C-0.595417 80.8341 6.63976 86.7044 16.1971 86.7044C25.3153 86.7044 33.2373 81.3593 34.5002 74.579L34.5107 74.5896C44.4773 77.8813 50.4215 86.7044 50.4215 86.7044C50.4215 86.7044 50.4988 85.8297 51.767 71.3277C50.1861 68.6823 44.2947 64.9901 35.6068 62.6662ZM13.3901 71.888C12.2238 71.888 11.277 70.943 11.277 69.7749C11.277 68.6086 12.2238 67.6635 13.3901 67.6635C14.5565 67.6635 15.5033 68.6086 15.5033 69.7749C15.5033 70.943 14.5565 71.888 13.3901 71.888Z" fill="black"/>
<path d="M171.355 57.848C171.355 56.6816 170.41 55.7349 169.242 55.7349C168.076 55.7349 167.131 56.6816 167.131 57.848C167.131 59.0143 168.076 59.9611 169.242 59.9611C170.41 59.9611 171.355 59.0143 171.355 57.848Z" fill="black"/>
<path d="M202.211 36.7569C200.743 35.2112 198.833 34.4365 196.483 34.4365C194.955 34.4365 193.479 34.7755 192.055 35.4536C190.63 36.1316 189.237 37.1398 187.879 38.4766C188.824 38.3606 189.559 38.538 190.082 39.007C190.604 39.4743 191.057 40.2524 191.438 41.3415C191.617 41.9334 192.13 44.9125 192.576 45.6959C193.086 46.6322 193.741 47.333 194.54 47.802C195.339 48.2693 196.302 48.5029 197.43 48.5029C199.186 48.5029 200.704 47.9162 201.983 46.7411C203.26 45.5659 203.976 44.0817 204.134 42.2865C204.321 40.147 203.679 38.3044 202.211 36.7569Z" fill="black"/>
<path d="M168.7 39.2832L170.839 31.5562H157.135L155.002 39.2603H146.014L145.262 47.8463H152.624L141.863 86.7062H155.566L166.14 48.5278C177.428 52.603 178.54 74.1663 160.973 86.7062H173.203C192.492 74.8337 201.967 40.2335 168.7 39.2832Z" fill="black"/>
<path d="M202.072 76.7118V78.8284L207.561 76.0829L213.052 78.8284V76.7118L207.561 73.9663L202.072 76.7118Z" fill="black"/>
<path d="M209.657 78.8281H209.184C208.001 78.8281 207.217 79.0477 206.739 80.7779C206.262 82.5081 205.831 83.1123 204.589 83.8729C204.87 83.8729 207.7 84.2541 208.463 81.3523C209.065 79.0617 209.657 78.8281 209.657 78.8281Z" fill="black"/>
<path d="M213.052 78.8281H212.58C211.396 78.8281 210.613 79.0477 210.135 80.7779C209.657 82.5081 209.227 83.1123 207.985 83.8729C208.266 83.8729 211.096 84.2541 211.858 81.3523C212.461 79.0617 213.052 78.8281 213.052 78.8281Z" fill="black"/>
<path d="M206.261 78.8281H205.789C204.605 78.8281 203.822 79.0477 203.344 80.7779C202.866 82.5081 202.436 83.1123 201.194 83.8729C201.475 83.8729 204.305 84.2541 205.067 81.3523C205.669 79.0617 206.261 78.8281 206.261 78.8281Z" fill="black"/>
<path d="M207.563 71.0026C212.114 71.0026 215.803 74.6913 215.803 79.2408C215.803 83.7919 212.114 87.4807 207.563 87.4807C203.012 87.4807 199.323 83.7919 199.323 79.2408C199.323 74.6913 203.012 71.0026 207.563 71.0026ZM207.563 68.5171C201.649 68.5171 196.839 73.3282 196.839 79.2408C196.839 85.155 201.649 89.9662 207.563 89.9662C213.477 89.9662 218.287 85.155 218.287 79.2408C218.287 73.3282 213.477 68.5171 207.563 68.5171Z" fill="black"/>
</svg>
