<svg width="44" height="25" viewBox="0 0 44 25" fill="none" xmlns="http://www.w3.org/2000/svg">
<g id="&#227;&#130;&#176;&#227;&#131;&#171;&#227;&#131;&#188;&#227;&#131;&#151; 103">
<path id="&#227;&#131;&#145;&#227;&#130;&#185; 175" d="M19.8483 21.3687C14.887 22.0487 9.75559 22.7508 5.19914 20.6393C4.97592 20.5355 4.70988 20.6159 4.5801 20.8262C4.45162 21.0364 4.50094 21.3103 4.6943 21.4634C10.0061 25.6474 16.2652 24.7909 22.3193 23.9668C27.2819 23.2906 32.412 22.5899 36.9659 24.6948C37.0411 24.7299 37.1216 24.7441 37.2008 24.739C37.3539 24.7286 37.4993 24.6468 37.5849 24.508C37.7134 24.2977 37.6641 24.0239 37.4707 23.8707C32.1615 19.6829 25.9024 20.5394 19.8483 21.3687Z" fill="black"/>
<path id="&#227;&#131;&#145;&#227;&#130;&#185; 174" d="M43.3858 14.5261C36.4597 9.36228 28.3772 10.4589 20.5633 11.514C13.8331 12.425 6.87448 13.3672 0.704894 10.2798C0.48038 10.1682 0.205254 10.2461 0.0715836 10.4602C-0.0594908 10.6743 -0.0062824 10.9546 0.196169 11.1065C7.12495 16.2638 15.2035 15.1763 23.0213 14.1173C29.7489 13.2102 36.7075 12.2693 42.8771 15.3515C42.9563 15.3917 43.0432 15.4073 43.1263 15.4021C43.2794 15.3917 43.4235 15.3099 43.5091 15.1711C43.6415 14.957 43.5883 14.6766 43.3858 14.5261Z" fill="black"/>
<path id="&#227;&#131;&#145;&#227;&#130;&#185; 173" d="M23.7362 4.26479C28.6963 3.58735 33.8263 2.88786 38.3815 4.99284C38.4581 5.02787 38.5385 5.04215 38.6177 5.03696C38.7708 5.02658 38.9162 4.94482 39.0005 4.80596C39.1303 4.59572 39.081 4.32189 38.8876 4.16875C33.5772 -0.0191407 27.3193 0.838683 21.2653 1.66666C16.3039 2.34669 11.1712 3.04878 6.61606 0.938611C6.39285 0.833492 6.12551 0.913954 5.99703 1.12549C5.86725 1.33573 5.91657 1.60956 6.11123 1.7614C11.4217 5.9454 17.6821 5.08887 23.7362 4.26479Z" fill="black"/>
</g>
</svg>
