<svg width="100" height="101" viewBox="0 0 100 101" fill="none" xmlns="http://www.w3.org/2000/svg">
<path d="M24.4043 38.8576V48.7269L49.9984 35.9299L75.5957 48.7269V38.8576L49.9984 26.0605L24.4043 38.8576Z" fill="white"/>
<path d="M59.7648 48.7295H57.5592C52.0386 48.7295 48.3922 49.7502 46.1636 57.8177C43.9318 65.8852 41.9297 68.7045 36.1367 72.2492C37.443 72.2492 50.6405 74.0249 54.1983 60.4992C57.0045 49.8192 59.7648 48.7295 59.7648 48.7295Z" fill="white"/>
<path d="M75.5978 48.7295H73.3922C67.8717 48.7295 64.2252 49.7502 61.9966 57.8177C59.7648 65.8852 57.7627 68.7045 51.9697 72.2492C53.276 72.2492 66.4735 74.0249 70.0313 60.4992C72.8375 49.8192 75.5978 48.7295 75.5978 48.7295Z" fill="white"/>
<path d="M43.9347 48.7295H41.7291C36.2086 48.7295 32.5621 49.7502 30.3336 57.8177C28.1017 65.8852 26.0996 68.7045 20.3066 72.2492C21.6129 72.2492 34.8104 74.0249 38.3682 60.4992C41.1744 49.8192 43.9347 48.7295 43.9347 48.7295Z" fill="white"/>
<path d="M50 12.2353C71.2157 12.2353 88.4174 29.4337 88.4174 50.6494C88.4174 71.8684 71.2157 89.0668 50 89.0668C28.7843 89.0668 11.5826 71.8684 11.5826 50.6494C11.5826 29.4337 28.7843 12.2353 50 12.2353ZM50 0.649414C22.4301 0.649414 0 23.0795 0 50.6494C0 78.2193 22.4301 100.653 50 100.653C77.5699 100.653 100 78.2193 100 50.6494C100 23.0795 77.5699 0.649414 50 0.649414Z" fill="white"/>
</svg>
