<svg width="193" height="111" viewBox="0 0 193 111" fill="none" xmlns="http://www.w3.org/2000/svg">
<g id="&#227;&#130;&#176;&#227;&#131;&#171;&#227;&#131;&#188;&#227;&#131;&#151; 18">
<g id="&#227;&#130;&#176;&#227;&#131;&#171;&#227;&#131;&#188;&#227;&#131;&#151; 17">
<g id="&#227;&#131;&#145;&#227;&#130;&#185; 103">
<mask id="path-1-outside-1_21_906" maskUnits="userSpaceOnUse" x="32.739" y="36.8906" width="54.0866" height="55.7491" fill="black">
<rect fill="white" x="32.739" y="36.8906" width="54.0866" height="55.7491"/>
<path d="M81.0936 83.5345L80.5275 83.2067C80.054 82.933 79.5809 82.6618 79.137 82.3503C78.7708 82.0952 78.4302 81.7444 78.0646 81.2525C76.3345 78.8947 74.1943 76.8563 71.7027 75.1867C71.6172 75.129 71.5288 75.0692 71.4425 75.0065C71.2531 76.4619 70.4799 77.5744 69.7878 78.5724L69.321 79.2572C69.0611 79.6572 68.5416 79.8643 68.1741 79.9225C67.9804 79.9531 67.7969 79.9517 67.6331 79.914C67.1793 79.8128 66.8392 79.4976 66.7051 79.053C66.6194 78.7688 66.6183 78.4406 66.6982 78.0767C66.6982 78.0767 67.5978 74.0017 67.8732 72.7999C67.7944 72.7844 67.7234 72.7702 67.657 72.7527L67.007 73.9196C66.6296 74.5903 66.1158 74.8015 65.7483 74.8597C65.5199 74.8958 65.2765 74.886 65.0207 74.8298C64.2091 74.6555 63.4946 74.3385 62.8656 73.8705C62.6796 75.2999 62.3311 77.0528 61.4666 78.7297C60.3236 80.9469 58.8816 82.9469 57.0564 84.8421C56.6958 85.2174 56.2737 85.4446 55.8044 85.5189C55.5064 85.5661 55.1916 85.5549 54.8409 85.4781L53.5085 85.1978L55.0437 83.7533C55.401 83.4218 55.747 83.0998 56.082 82.7718C57.6497 81.2279 58.5303 79.2507 58.694 76.8933C58.7655 75.8664 58.2993 74.7872 57.5105 74.1459C57.2038 73.8967 56.6446 73.7893 56.1015 73.687L55.5045 73.5652C55.1208 73.4732 54.729 73.4258 54.3392 73.3756C54.0894 73.3413 53.8401 73.3095 53.592 73.2699C53.3934 73.2377 53.1975 73.2382 52.9939 73.2705C52.5917 73.3342 52.193 73.517 51.8257 73.7049C51.4069 73.9215 50.8494 74.1778 50.2534 74.2721C50.1268 74.2922 49.999 74.3048 49.8725 74.3096C49.7331 74.3138 49.595 74.3255 49.4634 74.3464C48.8426 74.4447 48.2762 74.7253 47.7005 75.0277C46.9135 75.4425 46.0678 75.7114 45.2514 75.9731L44.9002 76.0694C44.4954 76.1335 43.9211 76.0107 43.6091 75.6478C43.2942 75.2827 43.414 74.8336 43.486 74.5651L43.6535 73.4212C43.7571 72.6768 43.8606 71.9325 43.9022 71.1826C43.9365 70.5154 43.9345 69.8438 43.9325 69.1721C43.9297 68.5439 43.9294 67.9152 43.9572 67.2872C43.9726 66.9182 44.047 66.5526 44.1264 66.1863C44.184 65.9226 44.2415 65.659 44.2626 65.3909C44.302 64.8196 44.3262 64.2176 44.2124 63.6757C44.0468 62.8874 43.8196 62.1114 43.5923 61.3355C43.5424 61.4223 43.4925 61.5091 43.4484 61.6001C43.2121 62.0524 42.9983 62.5189 42.7846 62.9855L42.3586 63.8955C42.2728 64.0771 42.1681 64.2515 42.0662 64.4279L41.8902 64.7307L41.5081 65.4683C41.2246 66.0248 40.9383 66.5792 40.6071 67.1077C40.2894 67.6085 39.8555 68.003 39.4031 68.3928C39.2058 68.5615 38.9622 68.6307 38.7884 68.6582C38.5699 68.6928 38.1548 68.7076 37.8562 68.4291C37.5268 68.1173 37.3607 67.5506 37.4684 67.1059C37.5836 66.6117 37.7738 66.1412 38.0134 65.7418C38.2618 65.3334 38.5332 64.9417 38.8067 64.5471L39.2864 63.8475C39.4872 63.5561 39.6072 63.3819 39.6244 63.2977C39.9193 61.8332 40.7117 60.6972 41.4815 59.5953L41.9102 58.9751C42.1863 58.5649 42.247 58.2574 42.133 57.8428C41.4642 55.3881 41.1755 52.6976 41.2247 49.3758C41.2361 48.4678 41.3904 47.4329 42.4352 46.6693C42.7956 46.406 43.1063 46.0692 43.4173 45.7348C43.6216 45.5141 43.8284 45.293 44.0454 45.0881C44.2332 44.9082 44.4481 44.8182 44.6364 44.7374L45.6668 44.2204L45.8943 45.2713C45.8943 47.4246 45.9292 49.7022 46.1562 52.0029L49.0013 48.0779C49.181 47.8306 49.2139 47.749 49.2211 47.73L48.9892 47.5198L48.8485 47.2418C48.8472 47.0893 48.7938 46.8967 48.7363 46.6945C48.574 46.1195 48.3027 45.1622 49.3556 44.3692L49.7307 44.0858L50.5844 44.5742C51.079 44.8523 51.6216 45.1608 52.1333 45.515C52.6368 45.8654 52.6813 46.7086 52.4894 47.136C52.2204 47.736 51.8577 48.2746 51.5726 48.6761C51.188 49.2206 50.7922 49.7593 50.3993 50.3C49.765 51.1641 49.131 52.0306 48.5336 52.9194C47.9195 53.8312 47.3119 54.8641 46.6194 56.165C46.5447 56.3041 46.5668 56.6849 46.5809 56.9347L46.8376 61.3356C46.9587 63.3858 47.0798 65.436 47.1856 67.486C47.2194 68.117 47.2077 68.7501 47.1955 69.3807C47.1831 69.9452 47.1732 70.5093 47.196 71.0708L47.1975 71.0807C47.2195 71.0747 48.4941 70.6208 49.1051 70.3967C50.4602 69.9047 51.8149 69.4101 53.1956 69.0158C54.1327 68.7452 55.0644 68.5366 55.9607 68.3946C56.579 68.2967 57.202 68.2285 57.8194 68.1893C59.5466 68.0863 60.9697 68.6983 61.9186 69.9327C62.3817 69.4012 62.841 68.8779 63.3129 68.3704C63.6607 67.9947 64.0874 67.7642 64.5766 67.6867C64.8422 67.6446 65.1249 67.6456 65.4399 67.6899C65.7789 67.7406 66.1327 67.7406 66.4629 67.6883C66.597 67.667 66.727 67.6363 66.8509 67.5988C67.2338 67.4771 67.6079 67.3644 67.9804 67.3054C68.6458 67.2 69.2454 67.273 69.8046 67.5255C70.3536 66.5401 70.8631 65.5303 71.3594 64.5176C70.4861 62.9734 70.7774 60.779 72.0556 59.4643L72.4221 59.0779C72.8248 58.6476 73.2426 58.1996 73.7501 57.8367C74.0129 57.6474 74.2622 57.5341 74.513 57.4944C74.8333 57.4437 75.146 57.5214 75.3899 57.7119C75.6976 57.9508 75.8796 58.3445 75.9318 58.8834C75.9703 59.2871 75.9542 59.6995 75.9302 60.1106C76.2636 59.9178 76.5983 59.7324 76.9539 59.5997C77.1534 59.5248 77.3513 59.4731 77.5376 59.4436C78.131 59.3496 78.6601 59.4924 79.0243 59.847C79.3093 60.12 79.6213 60.6433 79.5014 61.5736C79.3501 62.7557 79.0989 63.9663 78.7577 65.1708C78.106 67.4681 76.5026 69.0278 75.1756 70.1314C75.5439 70.3836 75.8875 70.6728 76.2135 70.9953C76.9163 71.6883 77.6416 72.3625 78.3665 73.0342L78.7747 73.4099L78.9846 72.9669L79.7059 73.4711C81.1898 74.6284 82.1106 76.1192 82.8573 77.4263C83.0834 77.8258 83.2888 78.2387 83.4917 78.652C83.7166 79.1076 83.9419 79.5657 84.2066 79.9998C84.8613 81.0797 84.3882 81.9334 83.9787 82.4819C83.8546 82.6467 83.3909 83.2063 83.3909 83.2063L83.1567 83.4953L82.7858 83.4675C82.5541 83.4508 82.3467 83.3793 82.1637 83.3166C82.1423 83.3098 82.1155 83.3014 82.0908 83.29L81.8755 83.9553L81.0936 83.5345ZM72.6175 68.9737C73.0398 69.085 73.4405 69.2201 73.8202 69.3839L73.8215 69.3277C73.8462 69.2424 73.8622 69.1508 73.8807 69.0587C73.9373 68.7571 74.0098 68.3791 74.2764 68.0696C74.889 67.3413 75.1771 66.4608 75.2204 65.1431C74.5423 65.7952 74.0333 66.4867 73.6478 67.0416C73.345 67.4764 73.1138 67.961 72.8797 68.4435L72.6175 68.9737Z"/>
</mask>
<path d="M81.0936 83.5345L80.5275 83.2067C80.054 82.933 79.5809 82.6618 79.137 82.3503C78.7708 82.0952 78.4302 81.7444 78.0646 81.2525C76.3345 78.8947 74.1943 76.8563 71.7027 75.1867C71.6172 75.129 71.5288 75.0692 71.4425 75.0065C71.2531 76.4619 70.4799 77.5744 69.7878 78.5724L69.321 79.2572C69.0611 79.6572 68.5416 79.8643 68.1741 79.9225C67.9804 79.9531 67.7969 79.9517 67.6331 79.914C67.1793 79.8128 66.8392 79.4976 66.7051 79.053C66.6194 78.7688 66.6183 78.4406 66.6982 78.0767C66.6982 78.0767 67.5978 74.0017 67.8732 72.7999C67.7944 72.7844 67.7234 72.7702 67.657 72.7527L67.007 73.9196C66.6296 74.5903 66.1158 74.8015 65.7483 74.8597C65.5199 74.8958 65.2765 74.886 65.0207 74.8298C64.2091 74.6555 63.4946 74.3385 62.8656 73.8705C62.6796 75.2999 62.3311 77.0528 61.4666 78.7297C60.3236 80.9469 58.8816 82.9469 57.0564 84.8421C56.6958 85.2174 56.2737 85.4446 55.8044 85.5189C55.5064 85.5661 55.1916 85.5549 54.8409 85.4781L53.5085 85.1978L55.0437 83.7533C55.401 83.4218 55.747 83.0998 56.082 82.7718C57.6497 81.2279 58.5303 79.2507 58.694 76.8933C58.7655 75.8664 58.2993 74.7872 57.5105 74.1459C57.2038 73.8967 56.6446 73.7893 56.1015 73.687L55.5045 73.5652C55.1208 73.4732 54.729 73.4258 54.3392 73.3756C54.0894 73.3413 53.8401 73.3095 53.592 73.2699C53.3934 73.2377 53.1975 73.2382 52.9939 73.2705C52.5917 73.3342 52.193 73.517 51.8257 73.7049C51.4069 73.9215 50.8494 74.1778 50.2534 74.2721C50.1268 74.2922 49.999 74.3048 49.8725 74.3096C49.7331 74.3138 49.595 74.3255 49.4634 74.3464C48.8426 74.4447 48.2762 74.7253 47.7005 75.0277C46.9135 75.4425 46.0678 75.7114 45.2514 75.9731L44.9002 76.0694C44.4954 76.1335 43.9211 76.0107 43.6091 75.6478C43.2942 75.2827 43.414 74.8336 43.486 74.5651L43.6535 73.4212C43.7571 72.6768 43.8606 71.9325 43.9022 71.1826C43.9365 70.5154 43.9345 69.8438 43.9325 69.1721C43.9297 68.5439 43.9294 67.9152 43.9572 67.2872C43.9726 66.9182 44.047 66.5526 44.1264 66.1863C44.184 65.9226 44.2415 65.659 44.2626 65.3909C44.302 64.8196 44.3262 64.2176 44.2124 63.6757C44.0468 62.8874 43.8196 62.1114 43.5923 61.3355C43.5424 61.4223 43.4925 61.5091 43.4484 61.6001C43.2121 62.0524 42.9983 62.5189 42.7846 62.9855L42.3586 63.8955C42.2728 64.0771 42.1681 64.2515 42.0662 64.4279L41.8902 64.7307L41.5081 65.4683C41.2246 66.0248 40.9383 66.5792 40.6071 67.1077C40.2894 67.6085 39.8555 68.003 39.4031 68.3928C39.2058 68.5615 38.9622 68.6307 38.7884 68.6582C38.5699 68.6928 38.1548 68.7076 37.8562 68.4291C37.5268 68.1173 37.3607 67.5506 37.4684 67.1059C37.5836 66.6117 37.7738 66.1412 38.0134 65.7418C38.2618 65.3334 38.5332 64.9417 38.8067 64.5471L39.2864 63.8475C39.4872 63.5561 39.6072 63.3819 39.6244 63.2977C39.9193 61.8332 40.7117 60.6972 41.4815 59.5953L41.9102 58.9751C42.1863 58.5649 42.247 58.2574 42.133 57.8428C41.4642 55.3881 41.1755 52.6976 41.2247 49.3758C41.2361 48.4678 41.3904 47.4329 42.4352 46.6693C42.7956 46.406 43.1063 46.0692 43.4173 45.7348C43.6216 45.5141 43.8284 45.293 44.0454 45.0881C44.2332 44.9082 44.4481 44.8182 44.6364 44.7374L45.6668 44.2204L45.8943 45.2713C45.8943 47.4246 45.9292 49.7022 46.1562 52.0029L49.0013 48.0779C49.181 47.8306 49.2139 47.749 49.2211 47.73L48.9892 47.5198L48.8485 47.2418C48.8472 47.0893 48.7938 46.8967 48.7363 46.6945C48.574 46.1195 48.3027 45.1622 49.3556 44.3692L49.7307 44.0858L50.5844 44.5742C51.079 44.8523 51.6216 45.1608 52.1333 45.515C52.6368 45.8654 52.6813 46.7086 52.4894 47.136C52.2204 47.736 51.8577 48.2746 51.5726 48.6761C51.188 49.2206 50.7922 49.7593 50.3993 50.3C49.765 51.1641 49.131 52.0306 48.5336 52.9194C47.9195 53.8312 47.3119 54.8641 46.6194 56.165C46.5447 56.3041 46.5668 56.6849 46.5809 56.9347L46.8376 61.3356C46.9587 63.3858 47.0798 65.436 47.1856 67.486C47.2194 68.117 47.2077 68.7501 47.1955 69.3807C47.1831 69.9452 47.1732 70.5093 47.196 71.0708L47.1975 71.0807C47.2195 71.0747 48.4941 70.6208 49.1051 70.3967C50.4602 69.9047 51.8149 69.4101 53.1956 69.0158C54.1327 68.7452 55.0644 68.5366 55.9607 68.3946C56.579 68.2967 57.202 68.2285 57.8194 68.1893C59.5466 68.0863 60.9697 68.6983 61.9186 69.9327C62.3817 69.4012 62.841 68.8779 63.3129 68.3704C63.6607 67.9947 64.0874 67.7642 64.5766 67.6867C64.8422 67.6446 65.1249 67.6456 65.4399 67.6899C65.7789 67.7406 66.1327 67.7406 66.4629 67.6883C66.597 67.667 66.727 67.6363 66.8509 67.5988C67.2338 67.4771 67.6079 67.3644 67.9804 67.3054C68.6458 67.2 69.2454 67.273 69.8046 67.5255C70.3536 66.5401 70.8631 65.5303 71.3594 64.5176C70.4861 62.9734 70.7774 60.779 72.0556 59.4643L72.4221 59.0779C72.8248 58.6476 73.2426 58.1996 73.7501 57.8367C74.0129 57.6474 74.2622 57.5341 74.513 57.4944C74.8333 57.4437 75.146 57.5214 75.3899 57.7119C75.6976 57.9508 75.8796 58.3445 75.9318 58.8834C75.9703 59.2871 75.9542 59.6995 75.9302 60.1106C76.2636 59.9178 76.5983 59.7324 76.9539 59.5997C77.1534 59.5248 77.3513 59.4731 77.5376 59.4436C78.131 59.3496 78.6601 59.4924 79.0243 59.847C79.3093 60.12 79.6213 60.6433 79.5014 61.5736C79.3501 62.7557 79.0989 63.9663 78.7577 65.1708C78.106 67.4681 76.5026 69.0278 75.1756 70.1314C75.5439 70.3836 75.8875 70.6728 76.2135 70.9953C76.9163 71.6883 77.6416 72.3625 78.3665 73.0342L78.7747 73.4099L78.9846 72.9669L79.7059 73.4711C81.1898 74.6284 82.1106 76.1192 82.8573 77.4263C83.0834 77.8258 83.2888 78.2387 83.4917 78.652C83.7166 79.1076 83.9419 79.5657 84.2066 79.9998C84.8613 81.0797 84.3882 81.9334 83.9787 82.4819C83.8546 82.6467 83.3909 83.2063 83.3909 83.2063L83.1567 83.4953L82.7858 83.4675C82.5541 83.4508 82.3467 83.3793 82.1637 83.3166C82.1423 83.3098 82.1155 83.3014 82.0908 83.29L81.8755 83.9553L81.0936 83.5345ZM72.6175 68.9737C73.0398 69.085 73.4405 69.2201 73.8202 69.3839L73.8215 69.3277C73.8462 69.2424 73.8622 69.1508 73.8807 69.0587C73.9373 68.7571 74.0098 68.3791 74.2764 68.0696C74.889 67.3413 75.1771 66.4608 75.2204 65.1431C74.5423 65.7952 74.0333 66.4867 73.6478 67.0416C73.345 67.4764 73.1138 67.961 72.8797 68.4435L72.6175 68.9737Z" fill="white"/>
<path d="M81.0936 83.5345L80.5275 83.2067C80.054 82.933 79.5809 82.6618 79.137 82.3503C78.7708 82.0952 78.4302 81.7444 78.0646 81.2525C76.3345 78.8947 74.1943 76.8563 71.7027 75.1867C71.6172 75.129 71.5288 75.0692 71.4425 75.0065C71.2531 76.4619 70.4799 77.5744 69.7878 78.5724L69.321 79.2572C69.0611 79.6572 68.5416 79.8643 68.1741 79.9225C67.9804 79.9531 67.7969 79.9517 67.6331 79.914C67.1793 79.8128 66.8392 79.4976 66.7051 79.053C66.6194 78.7688 66.6183 78.4406 66.6982 78.0767C66.6982 78.0767 67.5978 74.0017 67.8732 72.7999C67.7944 72.7844 67.7234 72.7702 67.657 72.7527L67.007 73.9196C66.6296 74.5903 66.1158 74.8015 65.7483 74.8597C65.5199 74.8958 65.2765 74.886 65.0207 74.8298C64.2091 74.6555 63.4946 74.3385 62.8656 73.8705C62.6796 75.2999 62.3311 77.0528 61.4666 78.7297C60.3236 80.9469 58.8816 82.9469 57.0564 84.8421C56.6958 85.2174 56.2737 85.4446 55.8044 85.5189C55.5064 85.5661 55.1916 85.5549 54.8409 85.4781L53.5085 85.1978L55.0437 83.7533C55.401 83.4218 55.747 83.0998 56.082 82.7718C57.6497 81.2279 58.5303 79.2507 58.694 76.8933C58.7655 75.8664 58.2993 74.7872 57.5105 74.1459C57.2038 73.8967 56.6446 73.7893 56.1015 73.687L55.5045 73.5652C55.1208 73.4732 54.729 73.4258 54.3392 73.3756C54.0894 73.3413 53.8401 73.3095 53.592 73.2699C53.3934 73.2377 53.1975 73.2382 52.9939 73.2705C52.5917 73.3342 52.193 73.517 51.8257 73.7049C51.4069 73.9215 50.8494 74.1778 50.2534 74.2721C50.1268 74.2922 49.999 74.3048 49.8725 74.3096C49.7331 74.3138 49.595 74.3255 49.4634 74.3464C48.8426 74.4447 48.2762 74.7253 47.7005 75.0277C46.9135 75.4425 46.0678 75.7114 45.2514 75.9731L44.9002 76.0694C44.4954 76.1335 43.9211 76.0107 43.6091 75.6478C43.2942 75.2827 43.414 74.8336 43.486 74.5651L43.6535 73.4212C43.7571 72.6768 43.8606 71.9325 43.9022 71.1826C43.9365 70.5154 43.9345 69.8438 43.9325 69.1721C43.9297 68.5439 43.9294 67.9152 43.9572 67.2872C43.9726 66.9182 44.047 66.5526 44.1264 66.1863C44.184 65.9226 44.2415 65.659 44.2626 65.3909C44.302 64.8196 44.3262 64.2176 44.2124 63.6757C44.0468 62.8874 43.8196 62.1114 43.5923 61.3355C43.5424 61.4223 43.4925 61.5091 43.4484 61.6001C43.2121 62.0524 42.9983 62.5189 42.7846 62.9855L42.3586 63.8955C42.2728 64.0771 42.1681 64.2515 42.0662 64.4279L41.8902 64.7307L41.5081 65.4683C41.2246 66.0248 40.9383 66.5792 40.6071 67.1077C40.2894 67.6085 39.8555 68.003 39.4031 68.3928C39.2058 68.5615 38.9622 68.6307 38.7884 68.6582C38.5699 68.6928 38.1548 68.7076 37.8562 68.4291C37.5268 68.1173 37.3607 67.5506 37.4684 67.1059C37.5836 66.6117 37.7738 66.1412 38.0134 65.7418C38.2618 65.3334 38.5332 64.9417 38.8067 64.5471L39.2864 63.8475C39.4872 63.5561 39.6072 63.3819 39.6244 63.2977C39.9193 61.8332 40.7117 60.6972 41.4815 59.5953L41.9102 58.9751C42.1863 58.5649 42.247 58.2574 42.133 57.8428C41.4642 55.3881 41.1755 52.6976 41.2247 49.3758C41.2361 48.4678 41.3904 47.4329 42.4352 46.6693C42.7956 46.406 43.1063 46.0692 43.4173 45.7348C43.6216 45.5141 43.8284 45.293 44.0454 45.0881C44.2332 44.9082 44.4481 44.8182 44.6364 44.7374L45.6668 44.2204L45.8943 45.2713C45.8943 47.4246 45.9292 49.7022 46.1562 52.0029L49.0013 48.0779C49.181 47.8306 49.2139 47.749 49.2211 47.73L48.9892 47.5198L48.8485 47.2418C48.8472 47.0893 48.7938 46.8967 48.7363 46.6945C48.574 46.1195 48.3027 45.1622 49.3556 44.3692L49.7307 44.0858L50.5844 44.5742C51.079 44.8523 51.6216 45.1608 52.1333 45.515C52.6368 45.8654 52.6813 46.7086 52.4894 47.136C52.2204 47.736 51.8577 48.2746 51.5726 48.6761C51.188 49.2206 50.7922 49.7593 50.3993 50.3C49.765 51.1641 49.131 52.0306 48.5336 52.9194C47.9195 53.8312 47.3119 54.8641 46.6194 56.165C46.5447 56.3041 46.5668 56.6849 46.5809 56.9347L46.8376 61.3356C46.9587 63.3858 47.0798 65.436 47.1856 67.486C47.2194 68.117 47.2077 68.7501 47.1955 69.3807C47.1831 69.9452 47.1732 70.5093 47.196 71.0708L47.1975 71.0807C47.2195 71.0747 48.4941 70.6208 49.1051 70.3967C50.4602 69.9047 51.8149 69.4101 53.1956 69.0158C54.1327 68.7452 55.0644 68.5366 55.9607 68.3946C56.579 68.2967 57.202 68.2285 57.8194 68.1893C59.5466 68.0863 60.9697 68.6983 61.9186 69.9327C62.3817 69.4012 62.841 68.8779 63.3129 68.3704C63.6607 67.9947 64.0874 67.7642 64.5766 67.6867C64.8422 67.6446 65.1249 67.6456 65.4399 67.6899C65.7789 67.7406 66.1327 67.7406 66.4629 67.6883C66.597 67.667 66.727 67.6363 66.8509 67.5988C67.2338 67.4771 67.6079 67.3644 67.9804 67.3054C68.6458 67.2 69.2454 67.273 69.8046 67.5255C70.3536 66.5401 70.8631 65.5303 71.3594 64.5176C70.4861 62.9734 70.7774 60.779 72.0556 59.4643L72.4221 59.0779C72.8248 58.6476 73.2426 58.1996 73.7501 57.8367C74.0129 57.6474 74.2622 57.5341 74.513 57.4944C74.8333 57.4437 75.146 57.5214 75.3899 57.7119C75.6976 57.9508 75.8796 58.3445 75.9318 58.8834C75.9703 59.2871 75.9542 59.6995 75.9302 60.1106C76.2636 59.9178 76.5983 59.7324 76.9539 59.5997C77.1534 59.5248 77.3513 59.4731 77.5376 59.4436C78.131 59.3496 78.6601 59.4924 79.0243 59.847C79.3093 60.12 79.6213 60.6433 79.5014 61.5736C79.3501 62.7557 79.0989 63.9663 78.7577 65.1708C78.106 67.4681 76.5026 69.0278 75.1756 70.1314C75.5439 70.3836 75.8875 70.6728 76.2135 70.9953C76.9163 71.6883 77.6416 72.3625 78.3665 73.0342L78.7747 73.4099L78.9846 72.9669L79.7059 73.4711C81.1898 74.6284 82.1106 76.1192 82.8573 77.4263C83.0834 77.8258 83.2888 78.2387 83.4917 78.652C83.7166 79.1076 83.9419 79.5657 84.2066 79.9998C84.8613 81.0797 84.3882 81.9334 83.9787 82.4819C83.8546 82.6467 83.3909 83.2063 83.3909 83.2063L83.1567 83.4953L82.7858 83.4675C82.5541 83.4508 82.3467 83.3793 82.1637 83.3166C82.1423 83.3098 82.1155 83.3014 82.0908 83.29L81.8755 83.9553L81.0936 83.5345ZM72.6175 68.9737C73.0398 69.085 73.4405 69.2201 73.8202 69.3839L73.8215 69.3277C73.8462 69.2424 73.8622 69.1508 73.8807 69.0587C73.9373 68.7571 74.0098 68.3791 74.2764 68.0696C74.889 67.3413 75.1771 66.4608 75.2204 65.1431C74.5423 65.7952 74.0333 66.4867 73.6478 67.0416C73.345 67.4764 73.1138 67.961 72.8797 68.4435L72.6175 68.9737Z" stroke="#00ABCC" stroke-width="2" mask="url(#path-1-outside-1_21_906)"/>
</g>
<path id="&#227;&#131;&#145;&#227;&#130;&#185; 104" d="M118.994 52.31C118.537 52.3823 118.083 52.1666 117.745 51.7188C116.974 50.6904 116.586 49.4792 116.56 48.0171C116.505 45.147 116.746 42.4897 117.291 39.8886C117.43 39.2202 117.194 38.3565 116.965 37.5198L116.87 37.1784C116.141 34.4559 115.35 31.7481 114.538 29.0463C114.222 27.9968 113.859 26.9623 113.494 25.9257L112.788 23.9121C112.631 23.4789 112.475 23.0453 112.34 22.6061C112.025 21.5819 112.855 21.1195 113.171 20.9422C113.48 20.7583 113.665 20.6858 113.851 20.6563C114.447 20.5619 114.963 20.8951 115.159 21.5055C115.266 21.8296 115.352 22.1621 115.44 22.4919C115.53 22.8389 115.62 23.1811 115.734 23.5168C116.117 24.6296 116.507 25.7437 116.959 26.8327L117.325 27.7293C117.83 28.9704 118.351 30.2521 118.996 31.4175C119.591 32.4891 120.066 33.6407 120.482 35.0257C121.341 34.3093 122.361 34.1146 123.265 33.9409C123.51 33.8945 123.995 33.7922 123.997 33.7918C124.616 33.6939 125.238 34.0077 125.556 34.3442C126.509 35.3616 127.421 36.4134 128.327 37.4713C128.736 37.9487 129.133 38.433 129.531 38.9198C130.282 39.8368 131.031 40.7567 131.857 41.6007C132.525 42.2839 133.211 42.5445 134.005 42.4186C134.358 42.3628 134.744 42.2303 135.157 42.0225C135.293 41.955 135.437 41.8966 135.626 41.8208L137.471 41.0603L136.862 42.6177C136.01 44.7915 133.89 46.4967 131.581 46.8624C131.226 46.9187 130.865 46.9426 130.508 46.9331L129.958 46.9312C129.536 46.9344 129.116 46.9347 128.7 46.8809C128.305 46.8289 127.759 46.6278 127.403 46.2158C126.736 45.4408 126.082 44.6535 125.428 43.8663C124.842 43.1597 124.257 42.4532 123.66 41.7561C123.076 41.0723 122.462 40.4085 121.828 39.7682C122.191 41.0139 122.249 42.2444 122.247 43.3087L122.255 44.888C122.258 45.9056 122.264 46.9228 122.255 47.9399C122.249 48.4627 122.131 48.8783 121.906 49.1787C121.213 50.1055 120.494 51.0135 119.733 51.8824C119.526 52.1188 119.272 52.2659 118.994 52.31Z" fill="white" stroke="#00ABCC"/>
<path id="&#227;&#131;&#145;&#227;&#130;&#185; 105" d="M92.8787 61.2774L92.2538 61.1244C91.7467 61.0087 91.2621 60.8894 90.8115 60.6961C89.6207 60.1847 89.1088 58.9295 89.5672 57.6453C90.6565 54.5915 92.7649 52.6362 95.8316 51.8297L93.1436 47.651L91.0588 49.4015L90.1869 48.7658L90.1146 48.1002L90.2029 47.8062C90.2837 47.5287 90.3698 47.2529 90.5004 47.0006C90.681 46.6462 90.8912 46.3023 91.099 45.9589L91.3897 45.4802C91.5016 45.2868 91.4911 45.2528 91.3642 45.11L91.0501 44.75C90.4862 44.0986 89.9535 43.483 89.2086 43.1352C88.656 42.8765 88.3155 42.5105 88.1985 42.0454C88.0785 41.5605 88.222 41.0363 88.6294 40.4907L88.9808 40.01C89.3023 39.5645 89.6262 39.1187 89.9862 38.7079C90.3774 38.2692 90.8069 38.0077 91.2638 37.9354C91.6884 37.8681 92.338 37.9358 93.0167 38.6377C93.7529 39.3967 94.4303 40.2184 95.0886 41.0483C95.8215 40.3723 96.7139 39.7066 97.6193 39.0592C97.8571 38.8892 98.1296 38.762 98.403 38.6398L99.1096 38.2963L99.8785 38.9559L99.8713 39.6341L99.7108 40.0184C99.5775 40.3501 99.426 40.7279 99.1737 41.0631C98.7171 41.6674 98.2173 42.2403 97.7175 42.8133L97.2357 43.3707C97.1172 43.5065 97.052 43.5932 97.0127 43.6503C97.0439 43.6708 97.0911 43.7117 97.1606 43.7644C99.0643 45.242 100.188 47.2428 101.279 49.1777L101.759 50.0255C102.128 50.6695 102.355 50.8016 102.964 50.7383C104.143 50.6126 105.316 50.4853 106.481 50.3009C107.628 50.1192 108.633 49.9041 109.553 49.6412L109.971 49.5776L111.43 49.4204L110.895 50.6403C109.889 52.2453 108.821 53.7304 106.827 54.2524C106.436 54.3551 106.05 54.4722 105.666 54.5915C105.295 54.7038 104.926 54.8157 104.552 54.9156C104.189 55.0164 103.837 55.1078 103.482 55.1641C103.32 55.1896 103.155 55.2081 102.993 55.2159C102.963 55.2182 102.936 55.2225 102.911 55.2264C102.7 55.2599 102.609 55.3124 102.475 55.5424L102.229 55.9657C101.72 56.8506 101.193 57.7639 100.51 58.5644C99.701 59.5147 98.5858 60.0909 97.1009 60.3261C96.7731 60.378 96.4398 60.4105 96.1073 60.4326C95.5925 60.4606 95.0716 60.4184 94.555 60.3704C94.2894 60.3489 94.023 60.3223 93.7594 60.3132C93.7602 60.3665 93.8734 61.5474 93.8734 61.5474L92.8787 61.2774ZM95.0932 56.6174C95.8972 56.8082 96.9504 56.901 97.7897 56.7681C97.9436 56.7437 98.0836 56.7114 98.2071 56.6714C98.2647 56.6496 98.3519 56.6052 98.4304 56.5546C98.3038 56.1572 98.211 56.037 98.1645 56.0011C97.8239 55.8107 97.4304 55.7534 96.9661 55.8269C96.6408 55.8785 96.287 55.9905 95.8858 56.1737C95.6128 56.2984 95.3496 56.452 95.0932 56.6174Z" fill="white" stroke="#00ABCC"/>
<path id="&#227;&#131;&#145;&#227;&#130;&#185; 106" d="M154.501 45.8233L154.528 45.9494L154.56 45.9518L154.855 46.598L155.032 46.9848L155.442 46.8723L156.162 46.6749C156.414 46.6352 156.894 46.5583 157.284 46.1901C157.284 46.1901 157.284 46.1901 157.284 46.1901L157.301 46.1744C157.995 45.5198 158.742 44.8157 159.373 43.9946C159.792 43.4517 160.37 42.5326 160.327 41.5475L154.501 45.8233ZM154.501 45.8233L154.258 45.2926L154.388 45.2683M154.501 45.8233L154.388 45.2683M154.388 45.2683C154.37 45.162 154.355 45.0495 154.349 44.9347C154.333 44.6306 154.327 44.3289 154.321 44.0371L154.321 44.0341L154.388 45.2683ZM148.795 9.97584C149.542 15.854 150.732 21.66 151.887 27.0896L148.795 9.97584ZM148.795 9.97584C148.726 9.45172 148.6 8.93115 148.465 8.38274L148.464 8.38004L148.464 8.38004C148.343 7.87831 148.262 7.44199 148.245 7.0627C148.228 6.67917 148.276 6.32225 148.442 6.00072C148.771 5.36237 149.472 5.04888 150.327 4.76105L150.328 4.76087L151.048 4.51952L151.557 4.3491L151.691 4.86841L152.138 6.59469L152.139 6.5997L152.139 6.59971C152.144 6.61882 152.148 6.63792 152.153 6.65699C152.326 7.35456 152.491 8.02228 152.721 8.66246C152.925 9.22486 153.17 9.77387 153.424 10.3418C153.436 10.368 153.447 10.3943 153.459 10.4207L148.795 9.97584ZM158.26 28.3224C157.81 26.7328 157.362 25.1534 156.974 23.5637C156.767 22.7125 156.639 21.841 156.506 20.9399L156.496 20.8715L156.494 20.8613C156.36 19.9478 156.222 19.0101 156.006 18.0889L156.005 18.0882C155.528 16.0682 154.887 14.1336 154.326 12.5231C154.086 11.8231 153.784 11.1479 153.493 10.4969C153.482 10.4715 153.47 10.4461 153.459 10.4207L158.26 28.3224ZM158.26 28.3224C158.61 29.5515 158.962 30.7895 159.285 32.0357C159.562 33.0996 159.676 34.1903 159.78 35.2014C159.781 35.2017 159.781 35.202 159.781 35.2023L159.844 35.7961L159.844 35.7977L159.861 35.9577C160.05 37.7759 160.247 39.6682 160.327 41.5473L158.26 28.3224Z" fill="white" stroke="#00ABCC"/>
<path id="&#227;&#131;&#145;&#227;&#130;&#185; 107" d="M100.59 33.2775C100.471 33.3106 100.35 33.3371 100.226 33.3567C99.2494 33.5114 98.3267 33.2011 97.7742 32.9864L97.7729 32.9859C96.1053 32.3326 95.0263 30.9488 94.6351 29.0533L100.59 33.2775ZM100.59 33.2775L100.579 33.747L100.557 34.661L101.338 34.1864L102.648 33.391L102.649 33.3903C102.655 33.3868 102.661 33.3831 102.667 33.3793C102.811 33.2916 103.071 33.1332 103.267 32.8459L102.854 32.564M100.59 33.2775L101.578 33.771L101.586 33.4508L102.388 32.9636L102.394 32.96C102.539 32.8713 102.72 32.761 102.854 32.564M102.854 32.564C103.053 32.2755 103.257 31.9886 103.464 31.7039C104.026 30.9277 104.606 30.1231 105.034 29.228M102.854 32.564L103.266 32.8476C103.462 32.5632 103.663 32.2798 103.868 31.9978L103.869 31.997C104.427 31.226 105.034 30.3861 105.485 29.444M105.034 29.228L105.485 29.4444C105.485 29.4443 105.485 29.4441 105.485 29.444M105.034 29.228C105.557 28.1398 105.698 26.9109 105.723 26.0721M105.034 29.228L105.485 29.4438C105.485 29.4439 105.485 29.4439 105.485 29.444M105.485 29.444L105.723 26.0721M105.723 26.0721C105.771 24.5602 104.54 23.1186 103.139 23.0502L105.723 26.0721ZM96.1247 24.7467L96.125 24.7463C96.5175 24.3418 96.9567 23.9877 97.371 23.6544L96.1247 24.7467ZM96.1247 24.7467C94.844 26.0691 94.312 27.4916 94.6351 29.0531L96.1247 24.7467ZM97.9575 23.173L97.9575 23.173C98.437 22.7606 98.9967 22.5002 99.6158 22.4021C99.9488 22.3494 100.289 22.3433 100.653 22.3788L100.654 22.3788C101.484 22.4605 102.32 22.5094 103.164 22.5508L97.9575 23.173ZM97.9575 23.173L97.9566 23.1737M97.9575 23.173L97.9566 23.1737M97.9566 23.1737C97.7901 23.3176 97.6168 23.4569 97.4363 23.6019M97.9566 23.1737L97.4363 23.6019M97.4363 23.6019C97.4146 23.6193 97.3929 23.6368 97.371 23.6544L97.4363 23.6019ZM106.223 26.088C106.251 25.1934 105.903 24.3363 105.355 23.695C104.808 23.055 104.029 22.5931 103.164 22.5508L106.223 26.088ZM99.4891 27.9772C99.6311 28.001 99.7777 28.0397 99.9224 28.0935C99.7462 28.0863 99.6151 28.0481 99.4891 27.9772Z" fill="white" stroke="#00ABCC"/>
<path id="&#227;&#131;&#145;&#227;&#130;&#185; 108" d="M89.806 64.9405C89.153 65.0439 88.7457 64.6095 88.5256 64.3771L87.7735 63.5978C87.0749 62.8837 86.3526 62.148 85.7609 61.305C84.5228 59.5463 83.425 57.7093 82.3172 55.8256C81.854 55.0387 81.4403 54.2261 81.0315 53.4127C80.7837 52.925 80.5384 52.437 80.279 51.9563C80.152 51.7168 80.0038 51.4883 79.8556 51.2598C79.6127 50.8833 79.3719 50.504 79.1954 50.0967C78.6294 48.789 78.1252 47.4537 77.6334 46.1163C77.267 45.1206 76.9457 44.217 76.7243 43.2696C76.2179 41.0844 77.0742 39.1951 77.8279 37.5256C78.269 36.5496 78.9844 35.7312 79.9546 35.0914L80.2771 34.8774L81.1956 35.2766L81.2697 35.9699C81.1804 36.4346 81.1246 36.7413 80.9323 37.0212C80.1118 38.2049 80.1179 39.5453 80.2131 41.1745C80.3873 44.1224 81.4685 46.9318 82.515 49.6499L82.7008 50.1321C84.259 54.1843 85.9752 57.5472 87.9505 60.4084C88.4027 61.0622 89.0017 61.6622 89.5805 62.2145C89.8828 62.5001 89.9923 62.5005 90.0097 62.4978C90.0494 62.4915 90.1312 62.4455 90.2404 62.3314L91.3936 61.1434L91.4646 62.7968C91.5181 64.0508 90.6627 64.5477 90.2989 64.758C90.1357 64.8526 89.9699 64.9145 89.806 64.9405Z" fill="white" stroke="#00ABCC"/>
<path id="&#227;&#131;&#145;&#227;&#130;&#185; 109" d="M95.5136 36.9822L94.8052 37.0893M95.5136 36.9822L82.2304 44.7494C82.0964 45.1092 82.0848 45.9357 82.6562 46.2168C83.0041 46.3883 83.452 46.4522 83.8568 46.3881L83.8915 46.3826C84.3149 46.3079 84.6278 46.0013 84.8239 45.7768M95.5136 36.9822L95.6082 36.9367L95.5136 36.9822ZM94.8052 37.0893C94.5966 37.1224 94.3694 37.166 94.1518 37.2386C93.4916 37.4577 92.9089 37.6518 92.4861 37.9555C90.8715 39.1072 89.1902 40.384 87.9462 42.1719M94.8052 37.0893L94.8799 37.5837L94.8817 37.5834M94.8052 37.0893L81.7616 44.5756M87.9462 42.1719C87.2878 43.1201 86.5002 43.9659 85.7354 44.7873L85.7187 44.8053M87.9462 42.1719L88.3569 42.457M87.9462 42.1719L88.3566 42.4574C88.3567 42.4573 88.3568 42.4572 88.3569 42.457M85.7187 44.8053C85.673 44.8544 85.6273 44.9034 85.5816 44.9524C85.3271 45.2253 85.0732 45.4978 84.8239 45.7768M85.7187 44.8053L86.0846 45.146M85.7187 44.8053L86.0846 45.146L86.0846 45.146M84.8239 45.7768L85.2005 46.1057C85.1998 46.1064 85.1992 46.1071 85.1986 46.1079M84.8239 45.7768L85.1968 46.1099C85.1974 46.1092 85.198 46.1085 85.1986 46.1079M81.7616 44.5756C82.238 43.2857 82.9143 41.7342 84.2354 40.4818C85.8834 38.9152 87.5343 37.3486 89.205 35.8065C89.6522 35.3931 90.1704 35.0631 90.6422 34.7684C90.6425 34.7681 90.6428 34.7679 90.6432 34.7677L91.1688 34.436L91.1701 34.4351C91.2167 34.4059 91.2633 34.3767 91.3099 34.3475C92.4846 33.6111 93.6698 32.868 94.8851 32.172C95.2894 31.939 95.7636 31.7861 96.2862 31.7033C96.4557 31.6764 96.625 31.658 96.7857 31.6463L96.7866 31.6463C97.7127 31.5806 98.2293 32.0147 98.4637 32.3273C98.7029 32.6442 98.9764 33.2672 98.6559 34.1576L98.6559 34.1576C98.1077 35.6802 97.2006 36.7205 95.8263 37.3866L95.8251 37.3872L95.7305 37.4328L95.6627 37.4654L95.5884 37.4766L94.8834 37.5832C94.8828 37.5833 94.8823 37.5833 94.8817 37.5834M81.7616 44.5756C81.662 44.8434 81.6198 45.2309 81.6868 45.6015C81.7546 45.9772 81.9556 46.4294 82.4355 46.6655M81.7616 44.5756L94.8817 37.5834M94.8817 37.5834C94.6828 37.615 94.4881 37.6535 94.3101 37.7129L94.3093 37.7132C93.6258 37.94 93.1257 38.1118 92.7778 38.3616L92.7765 38.3626C91.164 39.5127 89.5471 40.7468 88.3569 42.457M88.3569 42.457C87.678 43.4349 86.8697 44.3029 86.1118 45.1168L86.0846 45.146M86.0846 45.146C86.0385 45.1956 85.9925 45.2449 85.9466 45.2941C85.6927 45.5665 85.4434 45.8339 85.1986 46.1079M85.1986 46.1079C84.9911 46.3451 84.5809 46.7687 83.9784 46.875L83.9698 46.8765L83.9697 46.8765L83.935 46.882C83.4344 46.9612 82.8814 46.8851 82.4355 46.6655M82.4355 46.6655L82.6562 46.2168L82.4352 46.6653C82.4353 46.6654 82.4354 46.6654 82.4355 46.6655Z" fill="white" stroke="#00ABCC"/>
<path id="&#227;&#131;&#145;&#227;&#130;&#185; 110" d="M157.733 60.3698C157.507 60.4056 157.17 60.4157 156.866 60.2677C156.45 60.0639 156.067 59.7988 155.686 59.5308L155.569 59.4501C155.537 59.4577 155.507 59.4624 155.475 59.4675C154.866 59.5639 154.287 59.2814 153.847 58.6716C153.531 58.2379 153.523 57.6894 153.515 57.2504C153.503 56.7609 153.688 56.495 153.807 56.3183C154.271 55.5322 154.428 55.2069 154.289 54.9235L154.018 54.3836L155.501 53.3011C156.215 52.7782 156.906 52.2717 157.61 51.7835C158.027 51.4934 158.451 51.3117 158.868 51.2456C159.462 51.1516 160.029 51.2909 160.513 51.647C161.132 52.1012 161.561 52.8834 161.69 53.792C161.978 55.7725 161.279 57.5759 159.668 59.007L159.311 59.3435C159.021 59.6185 158.734 59.8931 158.41 60.1124C158.226 60.2382 157.986 60.3297 157.733 60.3698Z" fill="white" stroke="#00ABCC"/>
<path id="&#227;&#131;&#145;&#227;&#130;&#185; 111" d="M142.843 38.8859L142.822 39.1256L142.848 39.1343L142.868 40.0254L142.883 40.7303L143.543 40.4825L144.643 40.0699C144.813 40.0089 145.124 39.8968 145.401 39.6387L145.402 39.6381C145.774 39.2893 146.146 38.9123 146.477 38.4987L146.478 38.4978C147.674 36.9954 149.122 34.8417 149.083 32.0367L149.083 32.0365C149.07 31.1274 148.739 30.3065 148.105 29.7684L148.105 29.7683L148.103 29.7662C147.526 29.2834 146.775 29.1003 146.008 29.2217C145.662 29.2766 145.318 29.3918 144.982 29.5607C144.982 29.5608 144.982 29.561 144.981 29.5611L144.497 29.8026L144.488 29.8074L144.478 29.8125C142.486 30.9141 140.876 32.3095 139.698 33.9615L139.698 33.9619C139.167 34.7085 138.721 35.5247 138.363 36.3853L138.363 36.386C138.121 36.9684 138.2 37.6199 138.588 38.1118L138.588 38.1118L138.589 38.1133C139 38.6308 139.665 38.8723 140.32 38.7686L140.342 38.7651L140.363 38.7597L140.637 38.6908L140.679 38.6804L140.718 38.6632L140.797 38.6281C141.149 38.4751 141.476 38.238 141.722 37.9422L141.722 37.9416C141.959 37.656 142.186 37.3674 142.409 37.0841L142.412 37.0809L142.412 37.0808C142.752 36.6495 143.084 36.2307 143.44 35.8348L143.44 35.8348L143.441 35.8331C143.577 35.6811 143.71 35.5407 143.839 35.4115C143.691 35.9388 143.514 36.4624 143.332 37.0003C143.324 37.0254 143.315 37.0504 143.307 37.0755L143.306 37.0779L142.966 38.0989L142.966 38.0989L142.965 38.1032C142.937 38.1894 142.917 38.2742 142.902 38.3538L142.831 38.3448L142.843 38.8859Z" fill="white" stroke="#00ABCC"/>
<path id="&#227;&#131;&#145;&#227;&#130;&#185; 112" d="M168.334 25.0668C167.587 25.1852 167.453 24.407 167.375 23.9435C167.334 23.6853 167.301 23.4283 167.276 23.1727L167.166 22.9152L166.844 23.0477L166.686 22.3905C166.355 21.6666 166.098 20.9131 165.842 20.1597L165.798 20.0316L165.772 20.0434C165.29 19.2517 164.876 17.4567 164.491 15.685C163.9 13.0603 163.739 10.627 164.007 8.41591C164.198 7.06716 164.501 5.66765 165.44 4.46009C166.15 3.48214 167.318 2.79059 168.632 2.58255C168.91 2.5385 169.189 2.51719 169.462 2.52229C171.21 2.50251 172.922 3.32847 174.022 4.7298C174.636 5.60478 174.945 6.6021 174.914 7.56901C174.847 8.75302 174.216 9.84568 174.026 10.1533C172.51 12.7987 171.521 14.9763 170.93 16.9814L170.729 17.67L170.496 17.6C170.145 18.5515 169.936 18.885 169.459 18.9605L169.328 18.9813L169.27 18.9726C169.237 19.1662 169.209 19.354 169.195 19.4911L169.136 20.035L168.89 20.1198L168.87 20.2858C169.193 21.1357 169.545 21.9734 169.926 22.7936C170.254 23.5257 170.388 23.8277 170.193 24.187L170.026 24.496L169.673 24.5543C169.42 24.5944 169.243 24.5538 169.046 24.3558L169.129 24.8314L168.787 24.8857L168.768 24.9293L168.334 25.0668ZM169.051 5.50433C168.182 5.64197 167.496 6.36923 167.216 7.44944C166.841 8.79174 166.761 10.441 166.97 12.5027C167.12 13.9604 167.396 15.4489 167.795 16.9512C168.185 15.4003 168.764 13.7992 169.525 12.1592C169.931 11.2676 170.389 10.3984 170.856 9.54041L171.57 8.27937C171.712 7.96929 171.819 7.74118 171.838 7.54212C171.911 7.09013 171.714 6.72938 171.538 6.50022C171.122 5.96038 170.403 5.5702 169.706 5.50754C169.459 5.47289 169.25 5.47286 169.051 5.50433Z" fill="white" stroke="#00ABCC"/>
<path id="&#227;&#131;&#145;&#227;&#130;&#185; 113" d="M175.027 26.5897L175.216 26.2769L175.368 26.411L175.545 26.5666L175.777 26.5298L176.117 26.4759C176.256 26.454 176.38 26.4118 176.491 26.354L176.845 26.4484L176.904 26.0097C177.082 25.7798 177.17 25.522 177.215 25.3875C177.219 25.3776 177.222 25.3683 177.225 25.3598L177.228 25.3513L177.23 25.3428C177.26 25.2468 177.29 25.1512 177.321 25.0558L177.474 25.2849L177.887 25.0205L178.477 24.6423C178.478 24.6422 178.478 24.6421 178.478 24.642C179.075 24.2612 179.824 23.9127 180.895 23.5286C180.961 23.5079 181.183 23.4342 181.454 23.3012C181.748 23.1572 182.134 22.9271 182.438 22.5922C182.925 22.0623 183.219 21.3741 183.278 20.6241L183.279 20.6141L183.279 20.604C183.324 19.4448 182.842 18.3532 181.96 17.6286C181.222 16.9954 180.203 16.7017 179.124 16.8726L179.107 16.8754L179.096 16.8772L179.085 16.8794C178.132 17.0745 177.484 17.5813 176.99 18.0029L176.99 18.0028L176.981 18.0109C176.146 18.7592 175.46 19.6752 174.939 20.7277L174.745 21.0886C174.598 21.3476 174.435 21.6387 174.31 21.9315C174.199 22.1919 174.104 22.4849 174.087 22.7903C173.977 23.0488 173.861 23.3362 173.783 23.642L173.783 23.642L173.781 23.6487L173.777 23.6692C173.723 23.7487 173.668 23.834 173.61 23.9279L173.602 23.9414L173.595 23.9554C173.592 23.9601 173.589 23.9655 173.586 23.9714C173.496 24.1392 173.158 24.7705 173.571 25.4115L173.585 25.4323L173.6 25.4517L173.889 25.8157L174.051 26.019L174.297 26.0045L174.581 26.2326L175.027 26.5897Z" fill="white" stroke="#00ABCC"/>
<path id="&#227;&#131;&#145;&#227;&#130;&#185; 114" d="M36.3712 95.2628L36.3712 95.2628C35.9903 95.3231 35.6675 95.2048 35.1466 95.0088L35.1345 95.0042L35.1226 94.9991C31.8936 93.5895 27.9098 93.2359 23.2227 93.9778L22.4381 94.1122L22.4378 94.1123M36.3712 95.2628L19.0096 94.3476C20.1191 94.0726 21.2284 93.8129 22.3534 93.6195L22.4378 94.1123M36.3712 95.2628L36.377 95.2618L36.7983 95.19L37.08 95.142L37.1816 94.8749L37.329 94.4876L37.3429 94.451L37.3509 94.4127L37.4317 94.0289L37.5571 94.0085L37.8698 93.9574L37.9571 93.6528L38.0816 93.2185C38.1306 93.0479 38.1554 92.8638 38.1212 92.6674C38.0871 92.471 38.0014 92.304 37.8943 92.1561C37.7088 91.8998 37.3964 91.6239 37.0148 91.2868C36.9983 91.2722 36.9816 91.2575 36.9648 91.2427L36.9649 91.2426L36.9603 91.2387C33.0278 87.8468 28.8259 85.2633 24.4656 83.5722L24.4656 83.5722L24.4612 83.5705C22.3634 82.7793 19.7847 81.9513 16.8376 81.966L16.8376 81.966L16.832 81.966C16.418 81.9727 15.9894 82.0054 15.5563 82.074C14.3237 82.2692 13.2272 82.7105 12.3084 83.3944C10.946 84.4049 10.0358 85.993 9.79499 87.7435C9.56083 89.3968 9.84888 91.0255 10.6354 92.4407C11.5156 94.0864 13.1475 95.2493 14.895 95.4584C15.4471 95.5444 16.0187 95.5286 16.678 95.4242C16.9268 95.3848 17.169 95.3357 17.4325 95.2812L17.4459 95.2785L17.4591 95.275L19.1337 94.832M36.3712 95.2628L19.1337 94.832M22.4378 94.1123C21.3326 94.3023 20.2388 94.5581 19.1337 94.832M22.4378 94.1123L19.1337 94.832M28.3594 89.8601C28.3175 89.8557 28.2745 89.8514 28.2306 89.8473L28.2294 89.7819C28.2728 89.8079 28.3161 89.834 28.3594 89.8601ZM26.038 88.5679C26.5537 88.8041 27.1918 89.1656 27.8426 89.5512L27.7227 89.554L27.0074 89.5709C27.007 89.5709 27.0066 89.5709 27.0062 89.5709C25.5744 89.5981 24.0419 89.743 22.4562 89.9942C20.7217 90.2689 18.8884 90.6727 16.8346 91.2338L16.8345 91.2337L16.824 91.2368C16.544 91.3199 16.3136 91.3743 16.1055 91.4073C15.827 91.4514 15.5811 91.4563 15.3515 91.4352C15.0136 91.348 14.6941 91.1521 14.4254 90.8619C13.8215 90.0897 13.5782 88.9547 13.8193 87.9772L13.8194 87.9772L13.8215 87.9678C14.0094 87.1375 14.5509 86.4972 15.2709 86.2179L15.2817 86.2137L15.2924 86.209C15.513 86.1114 15.7769 86.0372 16.0846 85.9885C16.7112 85.8892 17.4963 85.9027 18.5632 86.0491C21.3915 86.4813 24.1583 87.6808 26.0327 88.5655L26.0327 88.5655L26.038 88.5679Z" fill="white" stroke="#00ABCC"/>
<path id="&#227;&#131;&#145;&#227;&#130;&#185; 115" d="M28.6512 108.63C28.1149 108.715 27.5512 108.659 27.0662 108.473C26.31 108.199 25.6657 107.682 25.2092 106.986C24.7172 106.242 24.5339 105.293 24.7163 104.452C24.874 103.712 25.3071 102.992 25.9379 102.426C26.9232 101.56 27.951 101.107 28.9198 100.747C29.8782 100.402 30.8887 100.145 31.9266 99.9811C32.9124 99.825 33.9488 99.7474 35.006 99.753C35.3742 99.7634 36.0956 99.7866 36.1442 100.479C36.1596 100.721 36.095 100.891 35.9704 101.021L36.1302 101.387L36.3373 101.538L36.334 101.999C36.2841 102.455 35.8718 102.632 35.698 102.708C34.3371 103.147 33.0803 104.115 31.8927 105.617C31.6184 105.958 31.3622 106.317 31.1117 106.68L30.7331 107.246C30.4857 107.581 30.2118 107.924 29.7955 108.189C29.4834 108.404 29.0783 108.562 28.6512 108.63ZM29.4972 103.718C29.1036 103.885 28.7231 104.07 28.3734 104.288C27.8705 104.584 27.6523 104.878 27.6099 105.061C27.7619 105.441 27.9871 105.594 28.1344 105.624C28.1391 105.605 28.1922 105.539 28.2838 105.394C28.6901 104.777 29.0935 104.222 29.4972 103.718Z" fill="white" stroke="#00ABCC"/>
</g>
</g>
</svg>
